<ttFont>
<head>
    <!-- Most of this table will be recalculated by the compiler -->
    <tableVersion value="1.0"/>
    <fontRevision value="1.004"/>
    <checkSumAdjustment value="0x299af86d"/>
    <magicNumber value="0x5f0f3cf5"/>
    <flags value="00100000 00001111"/>
    <unitsPerEm value="1024"/>
    <created value="Fri Aug  2 16:15:38 2024"/>
    <modified value="Fri Aug  2 16:15:48 2024"/>
    <xMin value="-188"/>
    <yMin value="-202"/>
    <xMax value="792"/>
    <yMax value="946"/>
    <macStyle value="00000000 00000000"/>
    <lowestRecPPEM value="7"/>
    <fontDirectionHint value="2"/>
    <indexToLocFormat value="0"/>
    <glyphDataFormat value="0"/>
  </head>
    <TTGlyph name=".notdef" xMin="34" yMin="-192" xMax="414" yMax="832">
      <contour>
        <pt x="34" y="832" on="1"/>
        <pt x="414" y="832" on="1"/>
        <pt x="414" y="-192" on="1"/>
        <pt x="34" y="-192" on="1"/>
      </contour>
      <contour>
        <pt x="194" y="585" on="0"/>
        <pt x="292" y="554" on="0"/>
        <pt x="321" y="514" on="0"/>
        <pt x="321" y="489" on="1"/>
        <pt x="321" y="462" on="0"/>
        <pt x="299" y="424" on="0"/>
        <pt x="274" y="397" on="1"/>
        <pt x="249" y="370" on="0"/>
        <pt x="216" y="323" on="0"/>
        <pt x="192" y="248" on="0"/>
        <pt x="191" y="195" on="1"/>
        <pt x="252" y="192" on="1"/>
        <pt x="252" y="238" on="0"/>
        <pt x="273" y="303" on="0"/>
        <pt x="303" y="346" on="0"/>
        <pt x="326" y="372" on="1"/>
        <pt x="355" y="404" on="0"/>
        <pt x="383" y="455" on="0"/>
        <pt x="383" y="494" on="1"/>
        <pt x="383" y="542" on="0"/>
        <pt x="331" y="605" on="0"/>
        <pt x="207" y="642" on="0"/>
        <pt x="101" y="645" on="1"/>
        <pt x="98" y="590" on="1"/>
      </contour>
      <contour>
        <pt x="165" y="21" on="0"/>
        <pt x="199" y="-10" on="0"/>
        <pt x="224" y="-10" on="1"/>
        <pt x="249" y="-10" on="0"/>
        <pt x="283" y="21" on="0"/>
        <pt x="283" y="49" on="1"/>
        <pt x="283" y="76" on="0"/>
        <pt x="249" y="108" on="0"/>
        <pt x="224" y="108" on="1"/>
        <pt x="199" y="108" on="0"/>
        <pt x="165" y="76" on="0"/>
        <pt x="165" y="49" on="1"/>
      </contour>
    </TTGlyph>
    <TTGlyph name="A" xMin="37" yMin="0" xMax="411" yMax="643">
      <contour>
        <pt x="53" y="186" on="0"/>
        <pt x="135" y="520" on="0"/>
        <pt x="197" y="643" on="1"/>
        <pt x="251" y="643" on="1"/>
        <pt x="313" y="520" on="0"/>
        <pt x="395" y="186" on="0"/>
        <pt x="411" y="0" on="1"/>
        <pt x="345" y="0" on="1"/>
        <pt x="336" y="102" on="0"/>
        <pt x="321" y="196" on="1"/>
        <pt x="127" y="196" on="1"/>
        <pt x="112" y="102" on="0"/>
        <pt x="103" y="0" on="1"/>
        <pt x="37" y="0" on="1"/>
      </contour>
      <contour>
        <pt x="311" y="252" on="1"/>
        <pt x="278" y="431" on="0"/>
        <pt x="224" y="561" on="1"/>
        <pt x="170" y="431" on="0"/>
        <pt x="137" y="252" on="1"/>
      </contour>
    </TTGlyph>
    <TTGlyph name="A.hex" xMin="37" yMin="0" xMax="411" yMax="579">
      <contour>
        <pt x="53" y="167" on="0"/>
        <pt x="135" y="468" on="0"/>
        <pt x="197" y="579" on="1"/>
        <pt x="251" y="579" on="1"/>
        <pt x="313" y="468" on="0"/>
        <pt x="395" y="167" on="0"/>
        <pt x="411" y="0" on="1"/>
        <pt x="345" y="0" on="1"/>
        <pt x="340" y="63" on="0"/>
        <pt x="328" y="132" on="1"/>
        <pt x="120" y="132" on="1"/>
        <pt x="108" y="63" on="0"/>
        <pt x="103" y="0" on="1"/>
        <pt x="37" y="0" on="1"/>
      </contour>
      <contour>
        <pt x="318" y="188" on="1"/>
        <pt x="284" y="372" on="0"/>
        <pt x="224" y="499" on="1"/>
        <pt x="164" y="372" on="0"/>
        <pt x="130" y="188" on="1"/>
      </contour>
    </TTGlyph>
    <TTGlyph name="A.short" xMin="37" yMin="0" xMax="411" yMax="579">
      <component glyphName="A.hex" x="0" y="0" flags="0x400"/>
    </TTGlyph>
    <TTGlyph name="A.sups" xMin="114" yMin="320" xMax="334" yMax="643">
      <contour>
        <pt x="126" y="500" on="0"/>
        <pt x="195" y="643" on="1"/>
        <pt x="253" y="643" on="1"/>
        <pt x="322" y="505" on="0"/>
        <pt x="334" y="320" on="1"/>
        <pt x="277" y="320" on="1"/>
        <pt x="275" y="365" on="0"/>
        <pt x="270" y="397" on="1"/>
        <pt x="178" y="397" on="1"/>
        <pt x="172" y="352" on="0"/>
        <pt x="170" y="320" on="1"/>
        <pt x="114" y="320" on="1"/>
      </contour>
      <contour>
        <pt x="263" y="446" on="1"/>
        <pt x="249" y="519" on="0"/>
        <pt x="224" y="587" on="1"/>
        <pt x="200" y="527" on="0"/>
        <pt x="185" y="446" on="1"/>
      </contour>
    </TTGlyph>
    <TTGlyph name="AE" xMin="-16" yMin="0" xMax="456" yMax="640">
      <contour>
        <pt x="456" y="56" on="1"/>
        <pt x="456" y="0" on="1"/>
        <pt x="202" y="0" on="1"/>
        <pt x="202" y="196" on="1"/>
        <pt x="74" y="196" on="1"/>
        <pt x="57" y="89" on="0"/>
        <pt x="49" y="0" on="1"/>
        <pt x="-16" y="0" on="1"/>
        <pt x="0" y="184" on="0"/>
        <pt x="81" y="518" on="0"/>
        <pt x="141" y="640" on="1"/>
        <pt x="446" y="640" on="1"/>
        <pt x="446" y="584" on="1"/>
        <pt x="264" y="584" on="1"/>
        <pt x="264" y="316" on="1"/>
        <pt x="392" y="316" on="1"/>
        <pt x="392" y="260" on="1"/>
        <pt x="264" y="260" on="1"/>
        <pt x="264" y="56" on="1"/>
      </contour>
      <contour>
        <pt x="202" y="252" on="1"/>
        <pt x="202" y="584" on="1"/>
        <pt x="180" y="584" on="1"/>
        <pt x="121" y="451" on="0"/>
        <pt x="83" y="252" on="1"/>
      </contour>
    </TTGlyph>
    <TTGlyph name="AEacute" xMin="-16" yMin="0" xMax="456" yMax="841">
      <component glyphName="AE" x="0" y="0" flags="0x400"/>
      <component glyphName="acutecomb.case" x="48" y="0" flags="0x400"/>
    </TTGlyph>
    <TTGlyph name="Aacute" xMin="37" yMin="0" xMax="411" yMax="841">
      <component glyphName="A" x="0" y="0" flags="0x400"/>
      <component glyphName="acutecomb.case" x="0" y="0" flags="0x400"/>
    </TTGlyph>
    <TTGlyph name="Abreve" xMin="37" yMin="0" xMax="411" yMax="834">
      <component glyphName="A" x="0" y="0" flags="0x400"/>
      <component glyphName="uni0306.case" x="0" y="0" flags="0x400"/>
    </TTGlyph>
    <TTGlyph name="Acircumflex" xMin="37" yMin="0" xMax="411" yMax="842">
      <component glyphName="A" x="0" y="0" flags="0x400"/>
      <component glyphName="uni0302.case" x="0" y="0" flags="0x400"/>
    </TTGlyph>
    <TTGlyph name="Adieresis" xMin="37" yMin="0" xMax="411" yMax="814">
      <component glyphName="A" x="0" y="0" flags="0x400"/>
      <component glyphName="uni0308.case" x="0" y="0" flags="0x400"/>
    </TTGlyph>
    <TTGlyph name="Agrave" xMin="37" yMin="0" xMax="411" yMax="841">
      <component glyphName="A" x="0" y="0" flags="0x400"/>
      <component glyphName="gravecomb.case" x="0" y="0" flags="0x400"/>
    </TTGlyph>
    <TTGlyph name="Alpha" xMin="37" yMin="0" xMax="411" yMax="643">
      <component glyphName="A" x="0" y="0" flags="0x400"/>
    </TTGlyph>
    <TTGlyph name="Alphatonos" xMin="1" yMin="0" xMax="411" yMax="704">
      <component glyphName="A" x="0" y="0" flags="0x400"/>
      <component glyphName="tonos" x="-192" y="0" flags="0x400"/>
    </TTGlyph>
    <TTGlyph name="Amacron" xMin="37" yMin="0" xMax="411" yMax="766">
      <component glyphName="A" x="0" y="0" flags="0x400"/>
      <component glyphName="uni0304.case" x="0" y="0" flags="0x400"/>
    </TTGlyph>
    <TTGlyph name="Aogonek" xMin="37" yMin="-197" xMax="430" yMax="643">
      <component glyphName="A" x="0" y="0" flags="0x400"/>
      <component glyphName="uni0328" x="31" y="0" flags="0x400"/>
    </TTGlyph>
    <TTGlyph name="Aring" xMin="37" yMin="0" xMax="411" yMax="821">
      <component glyphName="A.short" x="0" y="0" flags="0x400"/>
      <component glyphName="uni030A.case" x="0" y="0" flags="0x400"/>
    </TTGlyph>
    <TTGlyph name="Aringacute" xMin="37" yMin="0" xMax="411" yMax="832">
      <component glyphName="A.short" x="0" y="0" flags="0x400"/>
      <component glyphName="uni030A.case" x="0" y="-94" flags="0x404"/>
      <component glyphName="acutecomb.case" x="0" y="-9" flags="0x404"/>
    </TTGlyph>
    <TTGlyph name="Atilde" xMin="37" yMin="0" xMax="411" yMax="837">
      <component glyphName="A" x="0" y="0" flags="0x400"/>
      <component glyphName="tildecomb.case" x="0" y="0" flags="0x400"/>
    </TTGlyph>
    <TTGlyph name="B" xMin="62" yMin="0" xMax="409" yMax="640">
      <contour>
        <pt x="62" y="640" on="1"/>
        <pt x="191" y="640" on="1"/>
        <pt x="284" y="640" on="0"/>
        <pt x="388" y="557" on="0"/>
        <pt x="388" y="477" on="1"/>
        <pt x="388" y="385" on="0"/>
        <pt x="297" y="311" on="1"/>
        <pt x="347" y="298" on="0"/>
        <pt x="409" y="223" on="0"/>
        <pt x="409" y="166" on="1"/>
        <pt x="409" y="87" on="0"/>
        <pt x="302" y="0" on="0"/>
        <pt x="211" y="0" on="1"/>
        <pt x="62" y="0" on="1"/>
      </contour>
      <contour>
        <pt x="205" y="56" on="1"/>
        <pt x="278" y="56" on="0"/>
        <pt x="342" y="111" on="0"/>
        <pt x="342" y="168" on="1"/>
        <pt x="342" y="220" on="0"/>
        <pt x="278" y="276" on="0"/>
        <pt x="205" y="276" on="1"/>
        <pt x="125" y="276" on="1"/>
        <pt x="125" y="56" on="1"/>
      </contour>
      <contour>
        <pt x="244" y="332" on="1"/>
        <pt x="281" y="359" on="0"/>
        <pt x="319" y="437" on="0"/>
        <pt x="319" y="479" on="1"/>
        <pt x="319" y="532" on="0"/>
        <pt x="257" y="584" on="0"/>
        <pt x="186" y="584" on="1"/>
        <pt x="125" y="584" on="1"/>
        <pt x="125" y="332" on="1"/>
      </contour>
    </TTGlyph>
    <TTGlyph name="B.hex" xMin="62" yMin="0" xMax="409" yMax="576">
      <contour>
        <pt x="62" y="576" on="1"/>
        <pt x="191" y="576" on="1"/>
        <pt x="284" y="576" on="0"/>
        <pt x="388" y="501" on="0"/>
        <pt x="388" y="429" on="1"/>
        <pt x="388" y="344" on="0"/>
        <pt x="299" y="279" on="1"/>
        <pt x="350" y="265" on="0"/>
        <pt x="409" y="200" on="0"/>
        <pt x="409" y="150" on="1"/>
        <pt x="409" y="78" on="0"/>
        <pt x="302" y="0" on="0"/>
        <pt x="211" y="0" on="1"/>
        <pt x="62" y="0" on="1"/>
      </contour>
      <contour>
        <pt x="205" y="56" on="1"/>
        <pt x="278" y="56" on="0"/>
        <pt x="342" y="103" on="0"/>
        <pt x="342" y="152" on="1"/>
        <pt x="342" y="196" on="0"/>
        <pt x="278" y="244" on="0"/>
        <pt x="205" y="244" on="1"/>
        <pt x="125" y="244" on="1"/>
        <pt x="125" y="56" on="1"/>
      </contour>
      <contour>
        <pt x="246" y="300" on="1"/>
        <pt x="282" y="324" on="0"/>
        <pt x="319" y="394" on="0"/>
        <pt x="319" y="431" on="1"/>
        <pt x="319" y="476" on="0"/>
        <pt x="257" y="520" on="0"/>
        <pt x="186" y="520" on="1"/>
        <pt x="125" y="520" on="1"/>
        <pt x="125" y="300" on="1"/>
      </contour>
    </TTGlyph>
    <TTGlyph name="B.short" xMin="62" yMin="0" xMax="409" yMax="576">
      <component glyphName="B.hex" x="0" y="0" flags="0x400"/>
    </TTGlyph>
    <TTGlyph name="B.sups" xMin="122" yMin="320" xMax="330" yMax="640">
      <contour>
        <pt x="122" y="640" on="1"/>
        <pt x="214" y="640" on="1"/>
        <pt x="264" y="640" on="0"/>
        <pt x="319" y="596" on="0"/>
        <pt x="319" y="560" on="1"/>
        <pt x="319" y="517" on="0"/>
        <pt x="279" y="480" on="1"/>
        <pt x="303" y="471" on="0"/>
        <pt x="330" y="434" on="0"/>
        <pt x="330" y="408" on="1"/>
        <pt x="330" y="369" on="0"/>
        <pt x="274" y="320" on="0"/>
        <pt x="224" y="320" on="1"/>
        <pt x="122" y="320" on="1"/>
      </contour>
      <contour>
        <pt x="219" y="367" on="1"/>
        <pt x="271" y="367" on="0"/>
        <pt x="271" y="408" on="1"/>
        <pt x="271" y="426" on="0"/>
        <pt x="246" y="448" on="0"/>
        <pt x="219" y="448" on="1"/>
        <pt x="178" y="448" on="1"/>
        <pt x="178" y="367" on="1"/>
      </contour>
      <contour>
        <pt x="237" y="496" on="1"/>
        <pt x="260" y="519" on="0"/>
        <pt x="260" y="550" on="1"/>
        <pt x="260" y="593" on="0"/>
        <pt x="210" y="593" on="1"/>
        <pt x="178" y="593" on="1"/>
        <pt x="178" y="496" on="1"/>
      </contour>
    </TTGlyph>
    <TTGlyph name="Beta" xMin="62" yMin="0" xMax="409" yMax="640">
      <component glyphName="B" x="0" y="0" flags="0x400"/>
    </TTGlyph>
    <TTGlyph name="C" xMin="62" yMin="-9" xMax="381" yMax="647">
      <contour>
        <pt x="195" y="-9" on="0"/>
        <pt x="104" y="55" on="0"/>
        <pt x="62" y="197" on="0"/>
        <pt x="62" y="319" on="1"/>
        <pt x="62" y="441" on="0"/>
        <pt x="104" y="583" on="0"/>
        <pt x="195" y="647" on="0"/>
        <pt x="273" y="647" on="1"/>
        <pt x="328" y="647" on="0"/>
        <pt x="376" y="635" on="1"/>
        <pt x="365" y="583" on="1"/>
        <pt x="325" y="591" on="0"/>
        <pt x="278" y="591" on="1"/>
        <pt x="214" y="591" on="0"/>
        <pt x="151" y="537" on="0"/>
        <pt x="131" y="425" on="0"/>
        <pt x="131" y="319" on="1"/>
        <pt x="131" y="213" on="0"/>
        <pt x="152" y="101" on="0"/>
        <pt x="215" y="47" on="0"/>
        <pt x="279" y="47" on="1"/>
        <pt x="321" y="47" on="0"/>
        <pt x="370" y="57" on="1"/>
        <pt x="381" y="5" on="1"/>
        <pt x="330" y="-9" on="0"/>
        <pt x="273" y="-9" on="1"/>
      </contour>
    </TTGlyph>
    <TTGlyph name="C.hex" xMin="62" yMin="-9" xMax="381" yMax="583">
      <contour>
        <pt x="195" y="-9" on="0"/>
        <pt x="104" y="49" on="0"/>
        <pt x="62" y="177" on="0"/>
        <pt x="62" y="287" on="1"/>
        <pt x="62" y="397" on="0"/>
        <pt x="104" y="525" on="0"/>
        <pt x="195" y="583" on="0"/>
        <pt x="273" y="583" on="1"/>
        <pt x="328" y="583" on="0"/>
        <pt x="376" y="571" on="1"/>
        <pt x="365" y="519" on="1"/>
        <pt x="325" y="527" on="0"/>
        <pt x="278" y="527" on="1"/>
        <pt x="214" y="527" on="0"/>
        <pt x="151" y="479" on="0"/>
        <pt x="131" y="381" on="0"/>
        <pt x="131" y="287" on="1"/>
        <pt x="131" y="194" on="0"/>
        <pt x="152" y="95" on="0"/>
        <pt x="215" y="47" on="0"/>
        <pt x="279" y="47" on="1"/>
        <pt x="321" y="47" on="0"/>
        <pt x="370" y="57" on="1"/>
        <pt x="381" y="5" on="1"/>
        <pt x="330" y="-9" on="0"/>
        <pt x="273" y="-9" on="1"/>
      </contour>
    </TTGlyph>
    <TTGlyph name="C.short" xMin="62" yMin="-9" xMax="381" yMax="583">
      <component glyphName="C.hex" x="0" y="0" flags="0x400"/>
    </TTGlyph>
    <TTGlyph name="C.sups" xMin="130" yMin="316" xMax="321" yMax="644">
      <contour>
        <pt x="194" y="316" on="0"/>
        <pt x="130" y="400" on="0"/>
        <pt x="130" y="480" on="1"/>
        <pt x="130" y="560" on="0"/>
        <pt x="194" y="644" on="0"/>
        <pt x="252" y="644" on="1"/>
        <pt x="285" y="644" on="0"/>
        <pt x="321" y="635" on="1"/>
        <pt x="313" y="588" on="1"/>
        <pt x="280" y="595" on="0"/>
        <pt x="256" y="595" on="1"/>
        <pt x="221" y="595" on="0"/>
        <pt x="189" y="548" on="0"/>
        <pt x="189" y="480" on="1"/>
        <pt x="189" y="418" on="0"/>
        <pt x="226" y="365" on="0"/>
        <pt x="260" y="365" on="1"/>
        <pt x="280" y="365" on="0"/>
        <pt x="313" y="372" on="1"/>
        <pt x="321" y="325" on="1"/>
        <pt x="285" y="316" on="0"/>
        <pt x="252" y="316" on="1"/>
      </contour>
    </TTGlyph>
    <TTGlyph name="Cacute" xMin="62" yMin="-9" xMax="381" yMax="841">
      <component glyphName="C" x="0" y="0" flags="0x400"/>
      <component glyphName="acutecomb.case" x="32" y="0" flags="0x400"/>
    </TTGlyph>
    <TTGlyph name="Ccaron" xMin="62" yMin="-9" xMax="390" yMax="839">
      <component glyphName="C" x="0" y="0" flags="0x400"/>
      <component glyphName="uni030C.case" x="32" y="0" flags="0x400"/>
    </TTGlyph>
    <TTGlyph name="Ccedilla" xMin="62" yMin="-192" xMax="381" yMax="647">
      <component glyphName="C" x="0" y="0" flags="0x400"/>
      <component glyphName="uni0327" x="0" y="0" flags="0x400"/>
    </TTGlyph>
    <TTGlyph name="Ccircumflex" xMin="62" yMin="-9" xMax="390" yMax="842">
      <component glyphName="C" x="0" y="0" flags="0x400"/>
      <component glyphName="uni0302.case" x="32" y="0" flags="0x400"/>
    </TTGlyph>
    <TTGlyph name="Cdotaccent" xMin="62" yMin="-9" xMax="381" yMax="816">
      <component glyphName="C" x="0" y="0" flags="0x400"/>
      <component glyphName="uni0307.case" x="32" y="0" flags="0x400"/>
    </TTGlyph>
    <TTGlyph name="Chi" xMin="49" yMin="0" xMax="398" yMax="640">
      <component glyphName="X" x="0" y="0" flags="0x400"/>
    </TTGlyph>
    <TTGlyph name="D" xMin="62" yMin="0" xMax="392" yMax="640">
      <contour>
        <pt x="256" y="640" on="0"/>
        <pt x="349" y="574" on="0"/>
        <pt x="392" y="433" on="0"/>
        <pt x="392" y="317" on="1"/>
        <pt x="392" y="201" on="0"/>
        <pt x="349" y="63" on="0"/>
        <pt x="257" y="0" on="0"/>
        <pt x="181" y="0" on="1"/>
        <pt x="62" y="0" on="1"/>
        <pt x="62" y="640" on="1"/>
        <pt x="180" y="640" on="1"/>
      </contour>
      <contour>
        <pt x="174" y="56" on="1"/>
        <pt x="239" y="56" on="0"/>
        <pt x="303" y="110" on="0"/>
        <pt x="323" y="217" on="0"/>
        <pt x="323" y="317" on="1"/>
        <pt x="323" y="419" on="0"/>
        <pt x="302" y="530" on="0"/>
        <pt x="239" y="584" on="0"/>
        <pt x="174" y="584" on="1"/>
        <pt x="125" y="584" on="1"/>
        <pt x="125" y="56" on="1"/>
      </contour>
    </TTGlyph>
    <TTGlyph name="D.hex" xMin="62" yMin="0" xMax="392" yMax="576">
      <contour>
        <pt x="256" y="576" on="0"/>
        <pt x="349" y="517" on="0"/>
        <pt x="392" y="389" on="0"/>
        <pt x="392" y="285" on="1"/>
        <pt x="392" y="180" on="0"/>
        <pt x="349" y="56" on="0"/>
        <pt x="257" y="0" on="0"/>
        <pt x="181" y="0" on="1"/>
        <pt x="62" y="0" on="1"/>
        <pt x="62" y="576" on="1"/>
        <pt x="180" y="576" on="1"/>
      </contour>
      <contour>
        <pt x="174" y="56" on="1"/>
        <pt x="239" y="56" on="0"/>
        <pt x="303" y="103" on="0"/>
        <pt x="323" y="197" on="0"/>
        <pt x="323" y="285" on="1"/>
        <pt x="323" y="375" on="0"/>
        <pt x="302" y="472" on="0"/>
        <pt x="239" y="520" on="0"/>
        <pt x="174" y="520" on="1"/>
        <pt x="125" y="520" on="1"/>
        <pt x="125" y="56" on="1"/>
      </contour>
    </TTGlyph>
    <TTGlyph name="D.short" xMin="62" yMin="0" xMax="392" yMax="576">
      <component glyphName="D.hex" x="0" y="0" flags="0x400"/>
    </TTGlyph>
    <TTGlyph name="D.sups" xMin="119" yMin="320" xMax="335" yMax="640">
      <contour>
        <pt x="119" y="640" on="1"/>
        <pt x="209" y="640" on="1"/>
        <pt x="274" y="640" on="0"/>
        <pt x="335" y="564" on="0"/>
        <pt x="335" y="478" on="1"/>
        <pt x="335" y="394" on="0"/>
        <pt x="274" y="320" on="0"/>
        <pt x="210" y="320" on="1"/>
        <pt x="119" y="320" on="1"/>
      </contour>
      <contour>
        <pt x="206" y="368" on="1"/>
        <pt x="247" y="368" on="0"/>
        <pt x="275" y="415" on="0"/>
        <pt x="275" y="478" on="1"/>
        <pt x="275" y="522" on="0"/>
        <pt x="264" y="570" on="0"/>
        <pt x="234" y="592" on="0"/>
        <pt x="206" y="592" on="1"/>
        <pt x="175" y="592" on="1"/>
        <pt x="175" y="368" on="1"/>
      </contour>
    </TTGlyph>
    <TTGlyph name="Dcaron" xMin="62" yMin="0" xMax="392" yMax="839">
      <component glyphName="D" x="0" y="0" flags="0x400"/>
      <component glyphName="uni030C.case" x="-12" y="0" flags="0x400"/>
    </TTGlyph>
    <TTGlyph name="Dcroat" xMin="7" yMin="0" xMax="392" yMax="640">
      <component glyphName="Eth" x="0" y="0" flags="0x400"/>
    </TTGlyph>
    <TTGlyph name="E" xMin="62" yMin="0" xMax="379" yMax="640">
      <contour>
        <pt x="62" y="640" on="1"/>
        <pt x="369" y="640" on="1"/>
        <pt x="369" y="584" on="1"/>
        <pt x="125" y="584" on="1"/>
        <pt x="125" y="316" on="1"/>
        <pt x="315" y="316" on="1"/>
        <pt x="315" y="260" on="1"/>
        <pt x="125" y="260" on="1"/>
        <pt x="125" y="56" on="1"/>
        <pt x="379" y="56" on="1"/>
        <pt x="379" y="0" on="1"/>
        <pt x="62" y="0" on="1"/>
      </contour>
    </TTGlyph>
    <TTGlyph name="E.hex" xMin="62" yMin="0" xMax="379" yMax="576">
      <contour>
        <pt x="62" y="576" on="1"/>
        <pt x="369" y="576" on="1"/>
        <pt x="369" y="520" on="1"/>
        <pt x="125" y="520" on="1"/>
        <pt x="125" y="300" on="1"/>
        <pt x="315" y="300" on="1"/>
        <pt x="315" y="244" on="1"/>
        <pt x="125" y="244" on="1"/>
        <pt x="125" y="56" on="1"/>
        <pt x="379" y="56" on="1"/>
        <pt x="379" y="0" on="1"/>
        <pt x="62" y="0" on="1"/>
      </contour>
    </TTGlyph>
    <TTGlyph name="E.short" xMin="62" yMin="0" xMax="379" yMax="576">
      <component glyphName="E.hex" x="0" y="0" flags="0x400"/>
    </TTGlyph>
    <TTGlyph name="E.sups" xMin="132" yMin="320" xMax="312" yMax="640">
      <contour>
        <pt x="132" y="640" on="1"/>
        <pt x="308" y="640" on="1"/>
        <pt x="308" y="592" on="1"/>
        <pt x="188" y="592" on="1"/>
        <pt x="188" y="507" on="1"/>
        <pt x="296" y="507" on="1"/>
        <pt x="296" y="458" on="1"/>
        <pt x="188" y="458" on="1"/>
        <pt x="188" y="368" on="1"/>
        <pt x="312" y="368" on="1"/>
        <pt x="312" y="320" on="1"/>
        <pt x="132" y="320" on="1"/>
      </contour>
    </TTGlyph>
    <TTGlyph name="Eacute" xMin="62" yMin="0" xMax="379" yMax="841">
      <component glyphName="E" x="0" y="0" flags="0x400"/>
      <component glyphName="acutecomb.case" x="-4" y="0" flags="0x400"/>
    </TTGlyph>
    <TTGlyph name="Ebreve" xMin="62" yMin="0" xMax="379" yMax="834">
      <component glyphName="E" x="0" y="0" flags="0x400"/>
      <component glyphName="uni0306.case" x="-4" y="0" flags="0x400"/>
    </TTGlyph>
    <TTGlyph name="Ecaron" xMin="62" yMin="0" xMax="379" yMax="839">
      <component glyphName="E" x="0" y="0" flags="0x400"/>
      <component glyphName="uni030C.case" x="-4" y="0" flags="0x400"/>
    </TTGlyph>
    <TTGlyph name="Ecircumflex" xMin="62" yMin="0" xMax="379" yMax="842">
      <component glyphName="E" x="0" y="0" flags="0x400"/>
      <component glyphName="uni0302.case" x="-4" y="0" flags="0x400"/>
    </TTGlyph>
    <TTGlyph name="Edieresis" xMin="62" yMin="0" xMax="379" yMax="814">
      <component glyphName="E" x="0" y="0" flags="0x400"/>
      <component glyphName="uni0308.case" x="-4" y="0" flags="0x400"/>
    </TTGlyph>
    <TTGlyph name="Edotaccent" xMin="62" yMin="0" xMax="379" yMax="816">
      <component glyphName="E" x="0" y="0" flags="0x400"/>
      <component glyphName="uni0307.case" x="-4" y="0" flags="0x400"/>
    </TTGlyph>
    <TTGlyph name="Egrave" xMin="62" yMin="0" xMax="379" yMax="841">
      <component glyphName="E" x="0" y="0" flags="0x400"/>
      <component glyphName="gravecomb.case" x="-4" y="0" flags="0x400"/>
    </TTGlyph>
    <TTGlyph name="Emacron" xMin="62" yMin="0" xMax="379" yMax="766">
      <component glyphName="E" x="0" y="0" flags="0x400"/>
      <component glyphName="uni0304.case" x="-4" y="0" flags="0x400"/>
    </TTGlyph>
    <TTGlyph name="Eng" xMin="60" yMin="-12" xMax="386" yMax="644">
      <contour>
        <pt x="62" y="570" on="1"/>
        <pt x="60" y="640" on="1"/>
        <pt x="117" y="640" on="1"/>
        <pt x="122" y="579" on="1"/>
        <pt x="189" y="644" on="0"/>
        <pt x="260" y="644" on="1"/>
        <pt x="316" y="644" on="0"/>
        <pt x="386" y="574" on="0"/>
        <pt x="386" y="497" on="1"/>
        <pt x="386" y="179" on="1"/>
        <pt x="386" y="107" on="0"/>
        <pt x="334" y="17" on="0"/>
        <pt x="268" y="-12" on="1"/>
        <pt x="244" y="39" on="1"/>
        <pt x="289" y="58" on="0"/>
        <pt x="323" y="116" on="0"/>
        <pt x="323" y="171" on="1"/>
        <pt x="323" y="495" on="1"/>
        <pt x="323" y="543" on="0"/>
        <pt x="287" y="588" on="0"/>
        <pt x="248" y="588" on="1"/>
        <pt x="190" y="588" on="0"/>
        <pt x="125" y="525" on="1"/>
        <pt x="125" y="0" on="1"/>
        <pt x="62" y="0" on="1"/>
      </contour>
    </TTGlyph>
    <TTGlyph name="Eng.loclNSM" xMin="62" yMin="-196" xMax="386" yMax="640">
      <contour>
        <pt x="386" y="-77" on="0"/>
        <pt x="334" y="-167" on="0"/>
        <pt x="268" y="-196" on="1"/>
        <pt x="244" y="-145" on="1"/>
        <pt x="289" y="-126" on="0"/>
        <pt x="323" y="-68" on="0"/>
        <pt x="323" y="-13" on="1"/>
        <pt x="323" y="4" on="1"/>
        <pt x="172" y="384" on="1"/>
        <pt x="125" y="533" on="1"/>
        <pt x="125" y="0" on="1"/>
        <pt x="62" y="0" on="1"/>
        <pt x="62" y="640" on="1"/>
        <pt x="137" y="640" on="1"/>
        <pt x="289" y="260" on="1"/>
        <pt x="323" y="149" on="1"/>
        <pt x="323" y="640" on="1"/>
        <pt x="386" y="640" on="1"/>
        <pt x="386" y="-5" on="1"/>
      </contour>
    </TTGlyph>
    <TTGlyph name="Eogonek" xMin="62" yMin="-197" xMax="398" yMax="640">
      <component glyphName="E" x="0" y="0" flags="0x400"/>
      <component glyphName="uni0328" x="-1" y="0" flags="0x400"/>
    </TTGlyph>
    <TTGlyph name="Epsilon" xMin="62" yMin="0" xMax="379" yMax="640">
      <component glyphName="E" x="0" y="0" flags="0x400"/>
    </TTGlyph>
    <TTGlyph name="Epsilontonos" xMin="-63" yMin="0" xMax="379" yMax="704">
      <component glyphName="E" x="0" y="0" flags="0x400"/>
      <component glyphName="tonos" x="-256" y="0" flags="0x400"/>
    </TTGlyph>
    <TTGlyph name="Eta" xMin="62" yMin="0" xMax="386" yMax="640">
      <component glyphName="H" x="0" y="0" flags="0x400"/>
    </TTGlyph>
    <TTGlyph name="Etatonos" xMin="-63" yMin="0" xMax="386" yMax="704">
      <component glyphName="H" x="0" y="0" flags="0x400"/>
      <component glyphName="tonos" x="-256" y="0" flags="0x400"/>
    </TTGlyph>
    <TTGlyph name="Eth" xMin="7" yMin="0" xMax="392" yMax="640">
      <contour>
        <pt x="62" y="316" on="1"/>
        <pt x="62" y="640" on="1"/>
        <pt x="180" y="640" on="1"/>
        <pt x="256" y="640" on="0"/>
        <pt x="349" y="574" on="0"/>
        <pt x="392" y="433" on="0"/>
        <pt x="392" y="317" on="1"/>
        <pt x="392" y="201" on="0"/>
        <pt x="349" y="63" on="0"/>
        <pt x="257" y="0" on="0"/>
        <pt x="181" y="0" on="1"/>
        <pt x="62" y="0" on="1"/>
        <pt x="62" y="260" on="1"/>
        <pt x="7" y="260" on="1"/>
        <pt x="7" y="316" on="1"/>
      </contour>
      <contour>
        <pt x="174" y="56" on="1"/>
        <pt x="239" y="56" on="0"/>
        <pt x="303" y="110" on="0"/>
        <pt x="323" y="217" on="0"/>
        <pt x="323" y="317" on="1"/>
        <pt x="323" y="419" on="0"/>
        <pt x="302" y="530" on="0"/>
        <pt x="239" y="584" on="0"/>
        <pt x="174" y="584" on="1"/>
        <pt x="125" y="584" on="1"/>
        <pt x="125" y="316" on="1"/>
        <pt x="234" y="316" on="1"/>
        <pt x="234" y="260" on="1"/>
        <pt x="125" y="260" on="1"/>
        <pt x="125" y="56" on="1"/>
      </contour>
    </TTGlyph>
    <TTGlyph name="Euro" xMin="66" yMin="-7" xMax="407" yMax="583">
      <contour>
        <pt x="347" y="49" on="0"/>
        <pt x="393" y="63" on="1"/>
        <pt x="407" y="12" on="1"/>
        <pt x="356" y="-7" on="0"/>
        <pt x="308" y="-7" on="1"/>
        <pt x="225" y="-7" on="0"/>
        <pt x="132" y="95" on="0"/>
        <pt x="119" y="196" on="1"/>
        <pt x="66" y="196" on="1"/>
        <pt x="66" y="250" on="1"/>
        <pt x="115" y="250" on="1"/>
        <pt x="114" y="262" on="0"/>
        <pt x="114" y="288" on="1"/>
        <pt x="114" y="314" on="0"/>
        <pt x="115" y="326" on="1"/>
        <pt x="66" y="326" on="1"/>
        <pt x="66" y="380" on="1"/>
        <pt x="120" y="380" on="1"/>
        <pt x="147" y="583" on="0"/>
        <pt x="308" y="583" on="1"/>
        <pt x="356" y="583" on="0"/>
        <pt x="407" y="564" on="1"/>
        <pt x="392" y="514" on="1"/>
        <pt x="349" y="527" on="0"/>
        <pt x="310" y="527" on="1"/>
        <pt x="256" y="527" on="0"/>
        <pt x="193" y="458" on="0"/>
        <pt x="182" y="380" on="1"/>
        <pt x="363" y="380" on="1"/>
        <pt x="350" y="326" on="1"/>
        <pt x="178" y="326" on="1"/>
        <pt x="177" y="314" on="0"/>
        <pt x="177" y="288" on="1"/>
        <pt x="177" y="262" on="0"/>
        <pt x="178" y="250" on="1"/>
        <pt x="335" y="250" on="1"/>
        <pt x="323" y="196" on="1"/>
        <pt x="182" y="196" on="1"/>
        <pt x="193" y="117" on="0"/>
        <pt x="256" y="49" on="0"/>
        <pt x="310" y="49" on="1"/>
      </contour>
    </TTGlyph>
    <TTGlyph name="F" xMin="63" yMin="0" xMax="379" yMax="640">
      <contour>
        <pt x="63" y="640" on="1"/>
        <pt x="379" y="640" on="1"/>
        <pt x="379" y="584" on="1"/>
        <pt x="125" y="584" on="1"/>
        <pt x="125" y="316" on="1"/>
        <pt x="315" y="316" on="1"/>
        <pt x="315" y="260" on="1"/>
        <pt x="125" y="260" on="1"/>
        <pt x="125" y="0" on="1"/>
        <pt x="63" y="0" on="1"/>
      </contour>
    </TTGlyph>
    <TTGlyph name="F.hex" xMin="63" yMin="0" xMax="379" yMax="576">
      <contour>
        <pt x="63" y="576" on="1"/>
        <pt x="379" y="576" on="1"/>
        <pt x="379" y="520" on="1"/>
        <pt x="125" y="520" on="1"/>
        <pt x="125" y="300" on="1"/>
        <pt x="315" y="300" on="1"/>
        <pt x="315" y="244" on="1"/>
        <pt x="125" y="244" on="1"/>
        <pt x="125" y="0" on="1"/>
        <pt x="63" y="0" on="1"/>
      </contour>
    </TTGlyph>
    <TTGlyph name="F.short" xMin="63" yMin="0" xMax="379" yMax="576">
      <component glyphName="F.hex" x="0" y="0" flags="0x400"/>
    </TTGlyph>
    <TTGlyph name="F.sups" xMin="132" yMin="320" xMax="316" yMax="640">
      <contour>
        <pt x="132" y="640" on="1"/>
        <pt x="316" y="640" on="1"/>
        <pt x="316" y="592" on="1"/>
        <pt x="188" y="592" on="1"/>
        <pt x="188" y="499" on="1"/>
        <pt x="296" y="499" on="1"/>
        <pt x="296" y="451" on="1"/>
        <pt x="188" y="451" on="1"/>
        <pt x="188" y="320" on="1"/>
        <pt x="132" y="320" on="1"/>
      </contour>
    </TTGlyph>
    <TTGlyph name="G" xMin="56" yMin="-9" xMax="386" yMax="647">
      <contour>
        <pt x="189" y="-9" on="0"/>
        <pt x="98" y="55" on="0"/>
        <pt x="56" y="197" on="0"/>
        <pt x="56" y="319" on="1"/>
        <pt x="56" y="441" on="0"/>
        <pt x="98" y="583" on="0"/>
        <pt x="189" y="647" on="0"/>
        <pt x="267" y="647" on="1"/>
        <pt x="326" y="647" on="0"/>
        <pt x="380" y="633" on="1"/>
        <pt x="370" y="581" on="1"/>
        <pt x="317" y="591" on="0"/>
        <pt x="272" y="591" on="1"/>
        <pt x="208" y="591" on="0"/>
        <pt x="145" y="537" on="0"/>
        <pt x="125" y="425" on="0"/>
        <pt x="125" y="319" on="1"/>
        <pt x="125" y="213" on="0"/>
        <pt x="146" y="101" on="0"/>
        <pt x="209" y="47" on="0"/>
        <pt x="273" y="47" on="1"/>
        <pt x="295" y="47" on="0"/>
        <pt x="323" y="50" on="1"/>
        <pt x="323" y="260" on="1"/>
        <pt x="230" y="260" on="1"/>
        <pt x="230" y="316" on="1"/>
        <pt x="386" y="316" on="1"/>
        <pt x="386" y="7" on="1"/>
        <pt x="359" y="-1" on="0"/>
        <pt x="293" y="-9" on="0"/>
        <pt x="267" y="-9" on="1"/>
      </contour>
    </TTGlyph>
    <TTGlyph name="G.short" xMin="56" yMin="-9" xMax="386" yMax="583">
      <contour>
        <pt x="189" y="-9" on="0"/>
        <pt x="98" y="49" on="0"/>
        <pt x="56" y="177" on="0"/>
        <pt x="56" y="287" on="1"/>
        <pt x="56" y="397" on="0"/>
        <pt x="98" y="525" on="0"/>
        <pt x="189" y="583" on="0"/>
        <pt x="267" y="583" on="1"/>
        <pt x="326" y="583" on="0"/>
        <pt x="380" y="569" on="1"/>
        <pt x="370" y="517" on="1"/>
        <pt x="317" y="527" on="0"/>
        <pt x="272" y="527" on="1"/>
        <pt x="208" y="527" on="0"/>
        <pt x="145" y="479" on="0"/>
        <pt x="125" y="381" on="0"/>
        <pt x="125" y="287" on="1"/>
        <pt x="125" y="194" on="0"/>
        <pt x="146" y="95" on="0"/>
        <pt x="209" y="47" on="0"/>
        <pt x="273" y="47" on="1"/>
        <pt x="295" y="47" on="0"/>
        <pt x="323" y="50" on="1"/>
        <pt x="323" y="228" on="1"/>
        <pt x="230" y="228" on="1"/>
        <pt x="230" y="284" on="1"/>
        <pt x="386" y="284" on="1"/>
        <pt x="386" y="7" on="1"/>
        <pt x="359" y="-1" on="0"/>
        <pt x="293" y="-9" on="0"/>
        <pt x="267" y="-9" on="1"/>
      </contour>
    </TTGlyph>
    <TTGlyph name="G.sups" xMin="107" yMin="315" xMax="317" yMax="647">
      <contour>
        <pt x="165" y="315" on="0"/>
        <pt x="107" y="391" on="0"/>
        <pt x="107" y="481" on="1"/>
        <pt x="107" y="568" on="0"/>
        <pt x="168" y="647" on="0"/>
        <pt x="236" y="647" on="1"/>
        <pt x="272" y="647" on="0"/>
        <pt x="317" y="639" on="1"/>
        <pt x="309" y="590" on="1"/>
        <pt x="265" y="598" on="0"/>
        <pt x="239" y="598" on="1"/>
        <pt x="205" y="598" on="0"/>
        <pt x="174" y="574" on="0"/>
        <pt x="165" y="527" on="0"/>
        <pt x="165" y="481" on="1"/>
        <pt x="165" y="435" on="0"/>
        <pt x="175" y="386" on="0"/>
        <pt x="202" y="364" on="0"/>
        <pt x="228" y="364" on="1"/>
        <pt x="237" y="364" on="0"/>
        <pt x="261" y="366" on="1"/>
        <pt x="261" y="512" on="1"/>
        <pt x="317" y="512" on="1"/>
        <pt x="317" y="324" on="1"/>
        <pt x="267" y="315" on="0"/>
        <pt x="226" y="315" on="1"/>
      </contour>
    </TTGlyph>
    <TTGlyph name="Gamma" xMin="62" yMin="0" xMax="382" yMax="640">
      <component glyphName="uni0413" x="0" y="0" flags="0x400"/>
    </TTGlyph>
    <TTGlyph name="Gbreve" xMin="56" yMin="-9" xMax="386" yMax="834">
      <component glyphName="G" x="0" y="0" flags="0x400"/>
      <component glyphName="uni0306.case" x="20" y="0" flags="0x400"/>
    </TTGlyph>
    <TTGlyph name="Gcaron" xMin="56" yMin="-9" xMax="386" yMax="839">
      <component glyphName="G" x="0" y="0" flags="0x400"/>
      <component glyphName="uni030C.case" x="20" y="0" flags="0x400"/>
    </TTGlyph>
    <TTGlyph name="Gcircumflex" xMin="56" yMin="-9" xMax="386" yMax="842">
      <component glyphName="G" x="0" y="0" flags="0x400"/>
      <component glyphName="uni0302.case" x="20" y="0" flags="0x400"/>
    </TTGlyph>
    <TTGlyph name="Gdotaccent" xMin="56" yMin="-9" xMax="386" yMax="816">
      <component glyphName="G" x="0" y="0" flags="0x400"/>
      <component glyphName="uni0307.case" x="20" y="0" flags="0x400"/>
    </TTGlyph>
    <TTGlyph name="H" xMin="62" yMin="0" xMax="386" yMax="640">
      <contour>
        <pt x="62" y="640" on="1"/>
        <pt x="125" y="640" on="1"/>
        <pt x="125" y="316" on="1"/>
        <pt x="323" y="316" on="1"/>
        <pt x="323" y="640" on="1"/>
        <pt x="386" y="640" on="1"/>
        <pt x="386" y="0" on="1"/>
        <pt x="323" y="0" on="1"/>
        <pt x="323" y="260" on="1"/>
        <pt x="125" y="260" on="1"/>
        <pt x="125" y="0" on="1"/>
        <pt x="62" y="0" on="1"/>
      </contour>
    </TTGlyph>
    <TTGlyph name="H.sups" xMin="122" yMin="320" xMax="326" yMax="640">
      <contour>
        <pt x="122" y="640" on="1"/>
        <pt x="178" y="640" on="1"/>
        <pt x="178" y="505" on="1"/>
        <pt x="270" y="505" on="1"/>
        <pt x="270" y="640" on="1"/>
        <pt x="326" y="640" on="1"/>
        <pt x="326" y="320" on="1"/>
        <pt x="270" y="320" on="1"/>
        <pt x="270" y="455" on="1"/>
        <pt x="178" y="455" on="1"/>
        <pt x="178" y="320" on="1"/>
        <pt x="122" y="320" on="1"/>
      </contour>
    </TTGlyph>
    <TTGlyph name="Hbar" xMin="10" yMin="0" xMax="438" yMax="640">
      <contour>
        <pt x="62" y="498" on="1"/>
        <pt x="62" y="640" on="1"/>
        <pt x="125" y="640" on="1"/>
        <pt x="125" y="498" on="1"/>
        <pt x="323" y="498" on="1"/>
        <pt x="323" y="640" on="1"/>
        <pt x="386" y="640" on="1"/>
        <pt x="386" y="498" on="1"/>
        <pt x="438" y="498" on="1"/>
        <pt x="438" y="445" on="1"/>
        <pt x="386" y="445" on="1"/>
        <pt x="386" y="0" on="1"/>
        <pt x="323" y="0" on="1"/>
        <pt x="323" y="260" on="1"/>
        <pt x="125" y="260" on="1"/>
        <pt x="125" y="0" on="1"/>
        <pt x="62" y="0" on="1"/>
        <pt x="62" y="445" on="1"/>
        <pt x="10" y="445" on="1"/>
        <pt x="10" y="498" on="1"/>
      </contour>
      <contour>
        <pt x="323" y="316" on="1"/>
        <pt x="323" y="445" on="1"/>
        <pt x="125" y="445" on="1"/>
        <pt x="125" y="316" on="1"/>
      </contour>
    </TTGlyph>
    <TTGlyph name="Hcircumflex" xMin="62" yMin="0" xMax="386" yMax="842">
      <component glyphName="H" x="0" y="0" flags="0x400"/>
      <component glyphName="uni0302.case" x="0" y="0" flags="0x400"/>
    </TTGlyph>
    <TTGlyph name="I" xMin="77" yMin="0" xMax="371" yMax="640">
      <contour>
        <pt x="77" y="47" on="1"/>
        <pt x="193" y="55" on="1"/>
        <pt x="193" y="585" on="1"/>
        <pt x="81" y="593" on="1"/>
        <pt x="81" y="640" on="1"/>
        <pt x="367" y="640" on="1"/>
        <pt x="367" y="593" on="1"/>
        <pt x="255" y="585" on="1"/>
        <pt x="255" y="55" on="1"/>
        <pt x="371" y="47" on="1"/>
        <pt x="371" y="0" on="1"/>
        <pt x="77" y="0" on="1"/>
      </contour>
    </TTGlyph>
    <TTGlyph name="I.cv02" xMin="193" yMin="0" xMax="255" yMax="640">
      <contour>
        <pt x="193" y="640" on="1"/>
        <pt x="255" y="640" on="1"/>
        <pt x="255" y="0" on="1"/>
        <pt x="193" y="0" on="1"/>
      </contour>
    </TTGlyph>
    <TTGlyph name="I.short" xMin="77" yMin="0" xMax="371" yMax="576">
      <contour>
        <pt x="77" y="47" on="1"/>
        <pt x="193" y="55" on="1"/>
        <pt x="193" y="521" on="1"/>
        <pt x="81" y="529" on="1"/>
        <pt x="81" y="576" on="1"/>
        <pt x="367" y="576" on="1"/>
        <pt x="367" y="529" on="1"/>
        <pt x="255" y="521" on="1"/>
        <pt x="255" y="55" on="1"/>
        <pt x="371" y="47" on="1"/>
        <pt x="371" y="0" on="1"/>
        <pt x="77" y="0" on="1"/>
      </contour>
    </TTGlyph>
    <TTGlyph name="I.short.cv02" xMin="193" yMin="0" xMax="255" yMax="576">
      <contour>
        <pt x="193" y="576" on="1"/>
        <pt x="255" y="576" on="1"/>
        <pt x="255" y="0" on="1"/>
        <pt x="193" y="0" on="1"/>
      </contour>
    </TTGlyph>
    <TTGlyph name="I.sups" xMin="132" yMin="320" xMax="316" yMax="640">
      <contour>
        <pt x="316" y="320" on="1"/>
        <pt x="132" y="320" on="1"/>
        <pt x="132" y="363" on="1"/>
        <pt x="196" y="369" on="1"/>
        <pt x="196" y="591" on="1"/>
        <pt x="132" y="597" on="1"/>
        <pt x="132" y="640" on="1"/>
        <pt x="316" y="640" on="1"/>
        <pt x="316" y="597" on="1"/>
        <pt x="252" y="591" on="1"/>
        <pt x="252" y="369" on="1"/>
        <pt x="316" y="363" on="1"/>
      </contour>
    </TTGlyph>
    <TTGlyph name="IJ" xMin="4" yMin="0" xMax="387" yMax="640">
      <contour>
        <pt x="4" y="47" on="1"/>
        <pt x="68" y="56" on="1"/>
        <pt x="68" y="584" on="1"/>
        <pt x="9" y="593" on="1"/>
        <pt x="9" y="640" on="1"/>
        <pt x="192" y="640" on="1"/>
        <pt x="192" y="593" on="1"/>
        <pt x="131" y="584" on="1"/>
        <pt x="131" y="56" on="1"/>
        <pt x="225" y="56" on="1"/>
        <pt x="278" y="56" on="0"/>
        <pt x="324" y="117" on="0"/>
        <pt x="324" y="177" on="1"/>
        <pt x="324" y="584" on="1"/>
        <pt x="240" y="584" on="1"/>
        <pt x="240" y="640" on="1"/>
        <pt x="387" y="640" on="1"/>
        <pt x="387" y="181" on="1"/>
        <pt x="387" y="88" on="0"/>
        <pt x="300" y="0" on="0"/>
        <pt x="225" y="0" on="1"/>
        <pt x="4" y="0" on="1"/>
      </contour>
    </TTGlyph>
    <TTGlyph name="Iacute" xMin="77" yMin="0" xMax="371" yMax="841">
      <component glyphName="I" x="0" y="0" flags="0x400"/>
      <component glyphName="acutecomb.case" x="0" y="0" flags="0x400"/>
    </TTGlyph>
    <TTGlyph name="Iacute.cv02" xMin="193" yMin="0" xMax="331" yMax="841">
      <component glyphName="I.cv02" x="0" y="0" flags="0x400"/>
      <component glyphName="acutecomb.case" x="0" y="0" flags="0x400"/>
    </TTGlyph>
    <TTGlyph name="Ibreve" xMin="77" yMin="0" xMax="371" yMax="834">
      <component glyphName="I" x="0" y="0" flags="0x400"/>
      <component glyphName="uni0306.case" x="0" y="0" flags="0x400"/>
    </TTGlyph>
    <TTGlyph name="Ibreve.cv02" xMin="97" yMin="0" xMax="351" yMax="834">
      <component glyphName="I.cv02" x="0" y="0" flags="0x400"/>
      <component glyphName="uni0306.case" x="0" y="0" flags="0x400"/>
    </TTGlyph>
    <TTGlyph name="Icircumflex" xMin="77" yMin="0" xMax="371" yMax="842">
      <component glyphName="I" x="0" y="0" flags="0x400"/>
      <component glyphName="uni0302.case" x="0" y="0" flags="0x400"/>
    </TTGlyph>
    <TTGlyph name="Icircumflex.cv02" xMin="90" yMin="0" xMax="358" yMax="842">
      <component glyphName="I.cv02" x="0" y="0" flags="0x400"/>
      <component glyphName="uni0302.case" x="0" y="0" flags="0x400"/>
    </TTGlyph>
    <TTGlyph name="Idieresis" xMin="77" yMin="0" xMax="371" yMax="814">
      <component glyphName="I" x="0" y="0" flags="0x400"/>
      <component glyphName="uni0308.case" x="0" y="0" flags="0x400"/>
    </TTGlyph>
    <TTGlyph name="Idieresis.cv02" xMin="83" yMin="0" xMax="365" yMax="814">
      <component glyphName="I.cv02" x="0" y="0" flags="0x400"/>
      <component glyphName="uni0308.case" x="0" y="0" flags="0x400"/>
    </TTGlyph>
    <TTGlyph name="Idotaccent" xMin="77" yMin="0" xMax="371" yMax="816">
      <component glyphName="I" x="0" y="0" flags="0x400"/>
      <component glyphName="uni0307.case" x="0" y="0" flags="0x400"/>
    </TTGlyph>
    <TTGlyph name="Idotaccent.cv02" xMin="167" yMin="0" xMax="281" yMax="816">
      <component glyphName="I.cv02" x="0" y="0" flags="0x400"/>
      <component glyphName="uni0307.case" x="0" y="0" flags="0x400"/>
    </TTGlyph>
    <TTGlyph name="Igrave" xMin="77" yMin="0" xMax="371" yMax="841">
      <component glyphName="I" x="0" y="0" flags="0x400"/>
      <component glyphName="gravecomb.case" x="0" y="0" flags="0x400"/>
    </TTGlyph>
    <TTGlyph name="Igrave.cv02" xMin="117" yMin="0" xMax="255" yMax="841">
      <component glyphName="I.cv02" x="0" y="0" flags="0x400"/>
      <component glyphName="gravecomb.case" x="0" y="0" flags="0x400"/>
    </TTGlyph>
    <TTGlyph name="Imacron" xMin="77" yMin="0" xMax="371" yMax="766">
      <component glyphName="I" x="0" y="0" flags="0x400"/>
      <component glyphName="uni0304.case" x="0" y="0" flags="0x400"/>
    </TTGlyph>
    <TTGlyph name="Imacron.cv02" xMin="104" yMin="0" xMax="344" yMax="766">
      <component glyphName="I.cv02" x="0" y="0" flags="0x400"/>
      <component glyphName="uni0304.case" x="0" y="0" flags="0x400"/>
    </TTGlyph>
    <TTGlyph name="Iogonek" xMin="77" yMin="-197" xMax="390" yMax="640">
      <component glyphName="I" x="0" y="0" flags="0x400"/>
      <component glyphName="uni0328" x="-9" y="0" flags="0x400"/>
    </TTGlyph>
    <TTGlyph name="Iogonek.cv02" xMin="132" yMin="-197" xMax="274" yMax="640">
      <component glyphName="I.cv02" x="0" y="0" flags="0x400"/>
      <component glyphName="uni0328" x="-125" y="0" flags="0x400"/>
    </TTGlyph>
    <TTGlyph name="Iota" xMin="77" yMin="0" xMax="371" yMax="640">
      <component glyphName="I" x="0" y="0" flags="0x400"/>
    </TTGlyph>
    <TTGlyph name="Iota.cv02" xMin="193" yMin="0" xMax="255" yMax="640">
      <component glyphName="I.cv02" x="0" y="0" flags="0x400"/>
    </TTGlyph>
    <TTGlyph name="Iotadieresis" xMin="77" yMin="0" xMax="371" yMax="814">
      <component glyphName="I" x="0" y="0" flags="0x400"/>
      <component glyphName="uni0308.case" x="0" y="0" flags="0x400"/>
    </TTGlyph>
    <TTGlyph name="Iotadieresis.cv02" xMin="83" yMin="0" xMax="365" yMax="814">
      <component glyphName="Iota.cv02" x="0" y="0" flags="0x400"/>
      <component glyphName="uni0308.case" x="0" y="0" flags="0x400"/>
    </TTGlyph>
    <TTGlyph name="Iotatonos" xMin="-63" yMin="0" xMax="371" yMax="704">
      <component glyphName="I" x="0" y="0" flags="0x400"/>
      <component glyphName="tonos" x="-256" y="0" flags="0x400"/>
    </TTGlyph>
    <TTGlyph name="Iotatonos.cv02" xMin="67" yMin="0" xMax="255" yMax="704">
      <component glyphName="tonos" x="-126" y="0" flags="0x400"/>
      <component glyphName="Iota.cv02" x="0" y="0" flags="0x400"/>
    </TTGlyph>
    <TTGlyph name="Itilde" xMin="73" yMin="0" xMax="375" yMax="837">
      <component glyphName="I" x="0" y="0" flags="0x400"/>
      <component glyphName="tildecomb.case" x="0" y="0" flags="0x400"/>
    </TTGlyph>
    <TTGlyph name="Itilde.cv02" xMin="73" yMin="0" xMax="375" yMax="837">
      <component glyphName="I.cv02" x="0" y="0" flags="0x400"/>
      <component glyphName="tildecomb.case" x="0" y="0" flags="0x400"/>
    </TTGlyph>
    <TTGlyph name="J" xMin="64" yMin="-8" xMax="386" yMax="640">
      <contour>
        <pt x="133" y="90" on="0"/>
        <pt x="179" y="48" on="0"/>
        <pt x="224" y="48" on="1"/>
        <pt x="277" y="48" on="0"/>
        <pt x="323" y="109" on="0"/>
        <pt x="323" y="169" on="1"/>
        <pt x="323" y="584" on="1"/>
        <pt x="169" y="584" on="1"/>
        <pt x="169" y="640" on="1"/>
        <pt x="386" y="640" on="1"/>
        <pt x="386" y="173" on="1"/>
        <pt x="386" y="80" on="0"/>
        <pt x="299" y="-8" on="0"/>
        <pt x="224" y="-8" on="1"/>
        <pt x="94" y="-8" on="0"/>
        <pt x="64" y="116" on="1"/>
        <pt x="122" y="131" on="1"/>
      </contour>
    </TTGlyph>
    <TTGlyph name="J.cv03" xMin="64" yMin="-8" xMax="386" yMax="640">
      <contour>
        <pt x="94" y="-8" on="0"/>
        <pt x="64" y="116" on="1"/>
        <pt x="122" y="131" on="1"/>
        <pt x="133" y="90" on="0"/>
        <pt x="179" y="48" on="0"/>
        <pt x="224" y="48" on="1"/>
        <pt x="277" y="48" on="0"/>
        <pt x="323" y="109" on="0"/>
        <pt x="323" y="169" on="1"/>
        <pt x="323" y="640" on="1"/>
        <pt x="386" y="640" on="1"/>
        <pt x="386" y="173" on="1"/>
        <pt x="386" y="80" on="0"/>
        <pt x="299" y="-8" on="0"/>
        <pt x="224" y="-8" on="1"/>
      </contour>
    </TTGlyph>
    <TTGlyph name="J.sups" xMin="128" yMin="318" xMax="316" yMax="640">
      <contour>
        <pt x="160" y="318" on="0"/>
        <pt x="128" y="324" on="1"/>
        <pt x="134" y="371" on="1"/>
        <pt x="162" y="367" on="0"/>
        <pt x="191" y="367" on="1"/>
        <pt x="226" y="367" on="0"/>
        <pt x="260" y="395" on="0"/>
        <pt x="260" y="429" on="1"/>
        <pt x="260" y="591" on="1"/>
        <pt x="142" y="591" on="1"/>
        <pt x="142" y="640" on="1"/>
        <pt x="316" y="640" on="1"/>
        <pt x="316" y="426" on="1"/>
        <pt x="316" y="318" on="0"/>
        <pt x="197" y="318" on="1"/>
      </contour>
    </TTGlyph>
    <TTGlyph name="Jcircumflex" xMin="64" yMin="-8" xMax="404" yMax="842">
      <component glyphName="J" x="0" y="0" flags="0x400"/>
      <component glyphName="uni0302.case" x="46" y="0" flags="0x400"/>
    </TTGlyph>
    <TTGlyph name="Jcircumflex.cv03" xMin="64" yMin="-8" xMax="488" yMax="842">
      <component glyphName="J.cv03" x="0" y="0" flags="0x400"/>
      <component glyphName="uni0302.case" x="130" y="0" flags="0x400"/>
    </TTGlyph>
    <TTGlyph name="K" xMin="62" yMin="0" xMax="398" yMax="640">
      <contour>
        <pt x="62" y="640" on="1"/>
        <pt x="125" y="640" on="1"/>
        <pt x="125" y="321" on="1"/>
        <pt x="180" y="321" on="1"/>
        <pt x="242" y="393" on="0"/>
        <pt x="317" y="540" on="0"/>
        <pt x="332" y="640" on="1"/>
        <pt x="397" y="640" on="1"/>
        <pt x="381" y="542" on="0"/>
        <pt x="307" y="390" on="0"/>
        <pt x="243" y="318" on="1"/>
        <pt x="376" y="301" on="0"/>
        <pt x="387" y="150" on="1"/>
        <pt x="398" y="0" on="1"/>
        <pt x="332" y="0" on="1"/>
        <pt x="323" y="147" on="1"/>
        <pt x="319" y="211" on="0"/>
        <pt x="264" y="265" on="0"/>
        <pt x="199" y="265" on="1"/>
        <pt x="125" y="265" on="1"/>
        <pt x="125" y="0" on="1"/>
        <pt x="62" y="0" on="1"/>
      </contour>
    </TTGlyph>
    <TTGlyph name="K.short" xMin="62" yMin="0" xMax="398" yMax="576">
      <contour>
        <pt x="62" y="576" on="1"/>
        <pt x="125" y="576" on="1"/>
        <pt x="125" y="299" on="1"/>
        <pt x="181" y="299" on="1"/>
        <pt x="242" y="361" on="0"/>
        <pt x="317" y="490" on="0"/>
        <pt x="332" y="576" on="1"/>
        <pt x="397" y="576" on="1"/>
        <pt x="381" y="490" on="0"/>
        <pt x="309" y="358" on="0"/>
        <pt x="245" y="296" on="1"/>
        <pt x="378" y="280" on="0"/>
        <pt x="387" y="150" on="1"/>
        <pt x="398" y="0" on="1"/>
        <pt x="332" y="0" on="1"/>
        <pt x="323" y="147" on="1"/>
        <pt x="320" y="199" on="0"/>
        <pt x="264" y="244" on="0"/>
        <pt x="199" y="244" on="1"/>
        <pt x="125" y="244" on="1"/>
        <pt x="125" y="0" on="1"/>
        <pt x="62" y="0" on="1"/>
      </contour>
    </TTGlyph>
    <TTGlyph name="K.sups" xMin="126" yMin="320" xMax="333" yMax="640">
      <contour>
        <pt x="126" y="640" on="1"/>
        <pt x="182" y="640" on="1"/>
        <pt x="182" y="499" on="1"/>
        <pt x="221" y="499" on="1"/>
        <pt x="243" y="531" on="0"/>
        <pt x="270" y="595" on="0"/>
        <pt x="277" y="640" on="1"/>
        <pt x="333" y="640" on="1"/>
        <pt x="326" y="593" on="0"/>
        <pt x="297" y="525" on="0"/>
        <pt x="272" y="494" on="1"/>
        <pt x="317" y="478" on="0"/>
        <pt x="325" y="410" on="1"/>
        <pt x="333" y="320" on="1"/>
        <pt x="276" y="320" on="1"/>
        <pt x="269" y="411" on="1"/>
        <pt x="267" y="433" on="0"/>
        <pt x="247" y="451" on="0"/>
        <pt x="225" y="451" on="1"/>
        <pt x="182" y="451" on="1"/>
        <pt x="182" y="320" on="1"/>
        <pt x="126" y="320" on="1"/>
      </contour>
    </TTGlyph>
    <TTGlyph name="Kappa" xMin="62" yMin="0" xMax="398" yMax="640">
      <component glyphName="K" x="0" y="0" flags="0x400"/>
    </TTGlyph>
    <TTGlyph name="L" xMin="62" yMin="0" xMax="382" yMax="640">
      <contour>
        <pt x="62" y="640" on="1"/>
        <pt x="125" y="640" on="1"/>
        <pt x="125" y="56" on="1"/>
        <pt x="382" y="56" on="1"/>
        <pt x="382" y="0" on="1"/>
        <pt x="62" y="0" on="1"/>
      </contour>
    </TTGlyph>
    <TTGlyph name="L.sups" xMin="132" yMin="320" xMax="316" yMax="640">
      <contour>
        <pt x="316" y="320" on="1"/>
        <pt x="132" y="320" on="1"/>
        <pt x="132" y="640" on="1"/>
        <pt x="188" y="640" on="1"/>
        <pt x="188" y="369" on="1"/>
        <pt x="316" y="369" on="1"/>
      </contour>
    </TTGlyph>
    <TTGlyph name="Lacute" xMin="62" yMin="0" xMax="382" yMax="841">
      <component glyphName="L" x="0" y="0" flags="0x400"/>
      <component glyphName="acutecomb.case" x="-130" y="0" flags="0x400"/>
    </TTGlyph>
    <TTGlyph name="Lambda" xMin="37" yMin="0" xMax="411" yMax="643">
      <contour>
        <pt x="53" y="186" on="0"/>
        <pt x="135" y="520" on="0"/>
        <pt x="197" y="643" on="1"/>
        <pt x="251" y="643" on="1"/>
        <pt x="313" y="520" on="0"/>
        <pt x="395" y="186" on="0"/>
        <pt x="411" y="0" on="1"/>
        <pt x="345" y="0" on="1"/>
        <pt x="330" y="170" on="0"/>
        <pt x="268" y="457" on="0"/>
        <pt x="224" y="561" on="1"/>
        <pt x="180" y="457" on="0"/>
        <pt x="118" y="170" on="0"/>
        <pt x="103" y="0" on="1"/>
        <pt x="37" y="0" on="1"/>
      </contour>
    </TTGlyph>
    <TTGlyph name="Lcaron" xMin="62" yMin="0" xMax="382" yMax="640">
      <component glyphName="L" x="0" y="0" flags="0x400"/>
      <component glyphName="uni030C.alt" x="-64" y="0" flags="0x400"/>
    </TTGlyph>
    <TTGlyph name="Ldot" xMin="62" yMin="0" xMax="382" yMax="640">
      <component glyphName="L" x="0" y="0" flags="0x400"/>
      <component glyphName="period" x="128" y="256" flags="0x404"/>
    </TTGlyph>
    <TTGlyph name="Lslash" xMin="-33" yMin="0" xMax="382" yMax="640">
      <component glyphName="L" x="0" y="0" flags="0x400"/>
      <component glyphName="_part.slash.comp" x="-112" y="0" flags="0x400"/>
    </TTGlyph>
    <TTGlyph name="M" xMin="21" yMin="0" xMax="427" yMax="640">
      <contour>
        <pt x="26" y="356" on="0"/>
        <pt x="46" y="640" on="1"/>
        <pt x="113" y="640" on="1"/>
        <pt x="223" y="254" on="1"/>
        <pt x="225" y="254" on="1"/>
        <pt x="334" y="640" on="1"/>
        <pt x="402" y="640" on="1"/>
        <pt x="422" y="356" on="0"/>
        <pt x="427" y="0" on="1"/>
        <pt x="365" y="0" on="1"/>
        <pt x="363" y="292" on="0"/>
        <pt x="353" y="509" on="1"/>
        <pt x="351" y="509" on="1"/>
        <pt x="250" y="155" on="1"/>
        <pt x="198" y="155" on="1"/>
        <pt x="96" y="509" on="1"/>
        <pt x="94" y="509" on="1"/>
        <pt x="83" y="243" on="0"/>
        <pt x="83" y="0" on="1"/>
        <pt x="21" y="0" on="1"/>
      </contour>
    </TTGlyph>
    <TTGlyph name="M.sups" xMin="108" yMin="320" xMax="340" yMax="640">
      <contour>
        <pt x="112" y="519" on="0"/>
        <pt x="122" y="640" on="1"/>
        <pt x="184" y="640" on="1"/>
        <pt x="224" y="480" on="1"/>
        <pt x="264" y="640" on="1"/>
        <pt x="326" y="640" on="1"/>
        <pt x="336" y="519" on="0"/>
        <pt x="340" y="320" on="1"/>
        <pt x="285" y="320" on="1"/>
        <pt x="285" y="382" on="0"/>
        <pt x="281" y="488" on="1"/>
        <pt x="280" y="524" on="1"/>
        <pt x="246" y="394" on="1"/>
        <pt x="202" y="394" on="1"/>
        <pt x="168" y="525" on="1"/>
        <pt x="163" y="417" on="0"/>
        <pt x="163" y="320" on="1"/>
        <pt x="108" y="320" on="1"/>
      </contour>
    </TTGlyph>
    <TTGlyph name="Mu" xMin="21" yMin="0" xMax="427" yMax="640">
      <component glyphName="M" x="0" y="0" flags="0x400"/>
    </TTGlyph>
    <TTGlyph name="N" xMin="62" yMin="0" xMax="386" yMax="640">
      <contour>
        <pt x="137" y="640" on="1"/>
        <pt x="281" y="256" on="1"/>
        <pt x="323" y="111" on="1"/>
        <pt x="323" y="640" on="1"/>
        <pt x="386" y="640" on="1"/>
        <pt x="386" y="0" on="1"/>
        <pt x="311" y="0" on="1"/>
        <pt x="167" y="384" on="1"/>
        <pt x="125" y="527" on="1"/>
        <pt x="125" y="0" on="1"/>
        <pt x="62" y="0" on="1"/>
        <pt x="62" y="640" on="1"/>
      </contour>
    </TTGlyph>
    <TTGlyph name="N.short" xMin="62" yMin="0" xMax="386" yMax="576">
      <contour>
        <pt x="137" y="576" on="1"/>
        <pt x="281" y="229" on="1"/>
        <pt x="323" y="104" on="1"/>
        <pt x="323" y="576" on="1"/>
        <pt x="386" y="576" on="1"/>
        <pt x="386" y="0" on="1"/>
        <pt x="311" y="0" on="1"/>
        <pt x="167" y="347" on="1"/>
        <pt x="125" y="470" on="1"/>
        <pt x="125" y="0" on="1"/>
        <pt x="62" y="0" on="1"/>
        <pt x="62" y="576" on="1"/>
      </contour>
    </TTGlyph>
    <TTGlyph name="N.sups" xMin="114" yMin="320" xMax="334" yMax="640">
      <contour>
        <pt x="114" y="640" on="1"/>
        <pt x="194" y="640" on="1"/>
        <pt x="280" y="403" on="1"/>
        <pt x="280" y="640" on="1"/>
        <pt x="334" y="640" on="1"/>
        <pt x="334" y="320" on="1"/>
        <pt x="254" y="320" on="1"/>
        <pt x="168" y="557" on="1"/>
        <pt x="168" y="320" on="1"/>
        <pt x="114" y="320" on="1"/>
      </contour>
    </TTGlyph>
    <TTGlyph name="Nacute" xMin="62" yMin="0" xMax="386" yMax="841">
      <component glyphName="N" x="0" y="0" flags="0x400"/>
      <component glyphName="acutecomb.case" x="0" y="0" flags="0x400"/>
    </TTGlyph>
    <TTGlyph name="Ncaron" xMin="62" yMin="0" xMax="386" yMax="839">
      <component glyphName="N" x="0" y="0" flags="0x400"/>
      <component glyphName="uni030C.case" x="0" y="0" flags="0x400"/>
    </TTGlyph>
    <TTGlyph name="Ntilde" xMin="62" yMin="0" xMax="386" yMax="837">
      <component glyphName="N" x="0" y="0" flags="0x400"/>
      <component glyphName="tildecomb.case" x="0" y="0" flags="0x400"/>
    </TTGlyph>
    <TTGlyph name="Nu" xMin="62" yMin="0" xMax="386" yMax="640">
      <component glyphName="N" x="0" y="0" flags="0x400"/>
    </TTGlyph>
    <TTGlyph name="O" xMin="39" yMin="-10" xMax="409" yMax="650">
      <contour>
        <pt x="39" y="-10" on="0"/>
        <pt x="39" y="319" on="1"/>
        <pt x="39" y="485" on="0"/>
        <pt x="131" y="650" on="0"/>
        <pt x="224" y="650" on="1"/>
        <pt x="319" y="650" on="0"/>
        <pt x="409" y="486" on="0"/>
        <pt x="409" y="319" on="1"/>
        <pt x="409" y="155" on="0"/>
        <pt x="318" y="-10" on="0"/>
        <pt x="224" y="-10" on="1"/>
      </contour>
      <contour>
        <pt x="106" y="221" on="0"/>
        <pt x="129" y="102" on="0"/>
        <pt x="181" y="47" on="0"/>
        <pt x="224" y="47" on="1"/>
        <pt x="267" y="47" on="0"/>
        <pt x="319" y="102" on="0"/>
        <pt x="342" y="221" on="0"/>
        <pt x="342" y="319" on="1"/>
        <pt x="342" y="418" on="0"/>
        <pt x="319" y="538" on="0"/>
        <pt x="267" y="593" on="0"/>
        <pt x="224" y="593" on="1"/>
        <pt x="181" y="593" on="0"/>
        <pt x="129" y="538" on="0"/>
        <pt x="106" y="418" on="0"/>
        <pt x="106" y="319" on="1"/>
      </contour>
    </TTGlyph>
    <TTGlyph name="O.short" xMin="39" yMin="-10" xMax="409" yMax="586">
      <contour>
        <pt x="132" y="-10" on="0"/>
        <pt x="39" y="144" on="0"/>
        <pt x="39" y="287" on="1"/>
        <pt x="39" y="430" on="0"/>
        <pt x="132" y="586" on="0"/>
        <pt x="224" y="586" on="1"/>
        <pt x="317" y="586" on="0"/>
        <pt x="409" y="431" on="0"/>
        <pt x="409" y="287" on="1"/>
        <pt x="409" y="144" on="0"/>
        <pt x="316" y="-10" on="0"/>
        <pt x="224" y="-10" on="1"/>
      </contour>
      <contour>
        <pt x="106" y="163" on="0"/>
        <pt x="161" y="47" on="0"/>
        <pt x="224" y="47" on="1"/>
        <pt x="287" y="47" on="0"/>
        <pt x="342" y="163" on="0"/>
        <pt x="342" y="287" on="1"/>
        <pt x="342" y="411" on="0"/>
        <pt x="287" y="529" on="0"/>
        <pt x="224" y="529" on="1"/>
        <pt x="161" y="529" on="0"/>
        <pt x="106" y="411" on="0"/>
        <pt x="106" y="287" on="1"/>
      </contour>
    </TTGlyph>
    <TTGlyph name="O.sups" xMin="107" yMin="316" xMax="341" yMax="644">
      <contour>
        <pt x="162" y="316" on="0"/>
        <pt x="107" y="405" on="0"/>
        <pt x="107" y="480" on="1"/>
        <pt x="107" y="555" on="0"/>
        <pt x="162" y="644" on="0"/>
        <pt x="224" y="644" on="1"/>
        <pt x="285" y="644" on="0"/>
        <pt x="341" y="555" on="0"/>
        <pt x="341" y="480" on="1"/>
        <pt x="341" y="406" on="0"/>
        <pt x="284" y="316" on="0"/>
        <pt x="224" y="316" on="1"/>
      </contour>
      <contour>
        <pt x="164" y="416" on="0"/>
        <pt x="191" y="365" on="0"/>
        <pt x="224" y="365" on="1"/>
        <pt x="257" y="365" on="0"/>
        <pt x="284" y="416" on="0"/>
        <pt x="284" y="480" on="1"/>
        <pt x="284" y="542" on="0"/>
        <pt x="257" y="595" on="0"/>
        <pt x="224" y="595" on="1"/>
        <pt x="191" y="595" on="0"/>
        <pt x="164" y="542" on="0"/>
        <pt x="164" y="480" on="1"/>
      </contour>
    </TTGlyph>
    <TTGlyph name="OE" xMin="0" yMin="0" xMax="446" yMax="640">
      <contour>
        <pt x="0" y="0" on="0"/>
        <pt x="0" y="319" on="1"/>
        <pt x="0" y="480" on="0"/>
        <pt x="85" y="640" on="0"/>
        <pt x="170" y="640" on="1"/>
        <pt x="436" y="640" on="1"/>
        <pt x="436" y="584" on="1"/>
        <pt x="265" y="584" on="1"/>
        <pt x="265" y="316" on="1"/>
        <pt x="396" y="316" on="1"/>
        <pt x="396" y="260" on="1"/>
        <pt x="265" y="260" on="1"/>
        <pt x="265" y="56" on="1"/>
        <pt x="446" y="56" on="1"/>
        <pt x="446" y="0" on="1"/>
        <pt x="170" y="0" on="1"/>
      </contour>
      <contour>
        <pt x="67" y="177" on="0"/>
        <pt x="115" y="56" on="0"/>
        <pt x="170" y="56" on="1"/>
        <pt x="203" y="56" on="1"/>
        <pt x="203" y="584" on="1"/>
        <pt x="170" y="584" on="1"/>
        <pt x="115" y="584" on="0"/>
        <pt x="67" y="463" on="0"/>
        <pt x="67" y="319" on="1"/>
      </contour>
    </TTGlyph>
    <TTGlyph name="Oacute" xMin="39" yMin="-10" xMax="409" yMax="841">
      <component glyphName="O" x="0" y="0" flags="0x400"/>
      <component glyphName="acutecomb.case" x="0" y="0" flags="0x400"/>
    </TTGlyph>
    <TTGlyph name="Obreve" xMin="39" yMin="-10" xMax="409" yMax="834">
      <component glyphName="O" x="0" y="0" flags="0x400"/>
      <component glyphName="uni0306.case" x="0" y="0" flags="0x400"/>
    </TTGlyph>
    <TTGlyph name="Ocircumflex" xMin="39" yMin="-10" xMax="409" yMax="842">
      <component glyphName="O" x="0" y="0" flags="0x400"/>
      <component glyphName="uni0302.case" x="0" y="0" flags="0x400"/>
    </TTGlyph>
    <TTGlyph name="Odieresis" xMin="39" yMin="-10" xMax="409" yMax="814">
      <component glyphName="O" x="0" y="0" flags="0x400"/>
      <component glyphName="uni0308.case" x="0" y="0" flags="0x400"/>
    </TTGlyph>
    <TTGlyph name="Ograve" xMin="39" yMin="-10" xMax="409" yMax="841">
      <component glyphName="O" x="0" y="0" flags="0x400"/>
      <component glyphName="gravecomb.case" x="0" y="0" flags="0x400"/>
    </TTGlyph>
    <TTGlyph name="Ohorn" xMin="39" yMin="-10" xMax="416" yMax="768">
      <contour>
        <pt x="39" y="-10" on="0"/>
        <pt x="39" y="319" on="1"/>
        <pt x="39" y="485" on="0"/>
        <pt x="131" y="650" on="0"/>
        <pt x="224" y="650" on="1"/>
        <pt x="239" y="650" on="0"/>
        <pt x="267" y="646" on="0"/>
        <pt x="271" y="645" on="1"/>
        <pt x="293" y="640" on="0"/>
        <pt x="310" y="640" on="1"/>
        <pt x="334" y="640" on="0"/>
        <pt x="354" y="664" on="0"/>
        <pt x="354" y="689" on="1"/>
        <pt x="354" y="714" on="0"/>
        <pt x="345" y="768" on="1"/>
        <pt x="403" y="768" on="1"/>
        <pt x="416" y="722" on="0"/>
        <pt x="416" y="683" on="1"/>
        <pt x="416" y="605" on="0"/>
        <pt x="349" y="591" on="1"/>
        <pt x="409" y="513" on="0"/>
        <pt x="409" y="319" on="1"/>
        <pt x="409" y="155" on="0"/>
        <pt x="318" y="-10" on="0"/>
        <pt x="224" y="-10" on="1"/>
      </contour>
      <contour>
        <pt x="106" y="221" on="0"/>
        <pt x="129" y="102" on="0"/>
        <pt x="181" y="47" on="0"/>
        <pt x="224" y="47" on="1"/>
        <pt x="267" y="47" on="0"/>
        <pt x="319" y="102" on="0"/>
        <pt x="342" y="221" on="0"/>
        <pt x="342" y="319" on="1"/>
        <pt x="342" y="418" on="0"/>
        <pt x="319" y="538" on="0"/>
        <pt x="267" y="593" on="0"/>
        <pt x="224" y="593" on="1"/>
        <pt x="181" y="593" on="0"/>
        <pt x="129" y="538" on="0"/>
        <pt x="106" y="418" on="0"/>
        <pt x="106" y="319" on="1"/>
      </contour>
    </TTGlyph>
    <TTGlyph name="Ohorn.short" xMin="39" yMin="-10" xMax="416" yMax="704">
      <contour>
        <pt x="132" y="-10" on="0"/>
        <pt x="39" y="143" on="0"/>
        <pt x="39" y="287" on="1"/>
        <pt x="39" y="430" on="0"/>
        <pt x="132" y="586" on="0"/>
        <pt x="224" y="586" on="1"/>
        <pt x="239" y="586" on="0"/>
        <pt x="267" y="582" on="0"/>
        <pt x="271" y="581" on="1"/>
        <pt x="293" y="576" on="0"/>
        <pt x="310" y="576" on="1"/>
        <pt x="334" y="576" on="0"/>
        <pt x="354" y="600" on="0"/>
        <pt x="354" y="625" on="1"/>
        <pt x="354" y="650" on="0"/>
        <pt x="345" y="704" on="1"/>
        <pt x="403" y="704" on="1"/>
        <pt x="416" y="658" on="0"/>
        <pt x="416" y="619" on="1"/>
        <pt x="416" y="578" on="0"/>
        <pt x="383" y="535" on="0"/>
        <pt x="350" y="528" on="1"/>
        <pt x="378" y="491" on="0"/>
        <pt x="409" y="369" on="0"/>
        <pt x="409" y="287" on="1"/>
        <pt x="409" y="141" on="0"/>
        <pt x="317" y="-10" on="0"/>
        <pt x="224" y="-10" on="1"/>
      </contour>
      <contour>
        <pt x="106" y="163" on="0"/>
        <pt x="161" y="47" on="0"/>
        <pt x="224" y="47" on="1"/>
        <pt x="287" y="47" on="0"/>
        <pt x="342" y="163" on="0"/>
        <pt x="342" y="287" on="1"/>
        <pt x="342" y="412" on="0"/>
        <pt x="288" y="529" on="0"/>
        <pt x="224" y="529" on="1"/>
        <pt x="161" y="529" on="0"/>
        <pt x="106" y="411" on="0"/>
        <pt x="106" y="287" on="1"/>
      </contour>
    </TTGlyph>
    <TTGlyph name="Ohungarumlaut" xMin="39" yMin="-10" xMax="409" yMax="838">
      <component glyphName="O" x="0" y="0" flags="0x400"/>
      <component glyphName="uni030B.case" x="0" y="0" flags="0x400"/>
    </TTGlyph>
    <TTGlyph name="Omacron" xMin="39" yMin="-10" xMax="409" yMax="766">
      <component glyphName="O" x="0" y="0" flags="0x400"/>
      <component glyphName="uni0304.case" x="0" y="0" flags="0x400"/>
    </TTGlyph>
    <TTGlyph name="Omegatonos" xMin="-63" yMin="0" xMax="409" yMax="704">
      <component glyphName="uni03A9" x="0" y="0" flags="0x400"/>
      <component glyphName="tonos" x="-256" y="0" flags="0x400"/>
    </TTGlyph>
    <TTGlyph name="Omicron" xMin="39" yMin="-10" xMax="409" yMax="650">
      <component glyphName="O" x="0" y="0" flags="0x400"/>
    </TTGlyph>
    <TTGlyph name="Omicrontonos" xMin="-63" yMin="-10" xMax="409" yMax="704">
      <component glyphName="O" x="0" y="0" flags="0x400"/>
      <component glyphName="tonos" x="-256" y="0" flags="0x400"/>
    </TTGlyph>
    <TTGlyph name="Oslash" xMin="39" yMin="-12" xMax="409" yMax="653">
      <component glyphName="O" x="0" y="0" flags="0x400"/>
      <component glyphName="_part.slash.O" x="0" y="0" flags="0x400"/>
    </TTGlyph>
    <TTGlyph name="Oslashacute" xMin="39" yMin="-12" xMax="409" yMax="841">
      <component glyphName="Oslash" x="0" y="0" flags="0x400"/>
      <component glyphName="acutecomb.case" x="0" y="0" flags="0x400"/>
    </TTGlyph>
    <TTGlyph name="Otilde" xMin="39" yMin="-10" xMax="409" yMax="837">
      <component glyphName="O" x="0" y="0" flags="0x400"/>
      <component glyphName="tildecomb.case" x="0" y="0" flags="0x400"/>
    </TTGlyph>
    <TTGlyph name="P" xMin="62" yMin="0" xMax="399" yMax="640">
      <contour>
        <pt x="62" y="640" on="1"/>
        <pt x="214" y="640" on="1"/>
        <pt x="299" y="640" on="0"/>
        <pt x="399" y="523" on="0"/>
        <pt x="399" y="416" on="1"/>
        <pt x="399" y="309" on="0"/>
        <pt x="299" y="196" on="0"/>
        <pt x="214" y="196" on="1"/>
        <pt x="125" y="196" on="1"/>
        <pt x="125" y="0" on="1"/>
        <pt x="62" y="0" on="1"/>
      </contour>
      <contour>
        <pt x="209" y="252" on="1"/>
        <pt x="277" y="252" on="0"/>
        <pt x="332" y="336" on="0"/>
        <pt x="332" y="416" on="1"/>
        <pt x="332" y="498" on="0"/>
        <pt x="276" y="584" on="0"/>
        <pt x="209" y="584" on="1"/>
        <pt x="125" y="584" on="1"/>
        <pt x="125" y="252" on="1"/>
      </contour>
    </TTGlyph>
    <TTGlyph name="P.short" xMin="62" yMin="0" xMax="399" yMax="575">
      <contour>
        <pt x="62" y="575" on="1"/>
        <pt x="214" y="575" on="1"/>
        <pt x="299" y="575" on="0"/>
        <pt x="399" y="475" on="0"/>
        <pt x="399" y="384" on="1"/>
        <pt x="399" y="292" on="0"/>
        <pt x="299" y="196" on="0"/>
        <pt x="214" y="196" on="1"/>
        <pt x="125" y="196" on="1"/>
        <pt x="125" y="0" on="1"/>
        <pt x="62" y="0" on="1"/>
      </contour>
      <contour>
        <pt x="209" y="252" on="1"/>
        <pt x="277" y="252" on="0"/>
        <pt x="332" y="320" on="0"/>
        <pt x="332" y="384" on="1"/>
        <pt x="332" y="450" on="0"/>
        <pt x="276" y="520" on="0"/>
        <pt x="209" y="520" on="1"/>
        <pt x="125" y="520" on="1"/>
        <pt x="125" y="252" on="1"/>
      </contour>
    </TTGlyph>
    <TTGlyph name="P.sups" xMin="127" yMin="320" xMax="338" yMax="640">
      <contour>
        <pt x="127" y="640" on="1"/>
        <pt x="227" y="640" on="1"/>
        <pt x="277" y="640" on="0"/>
        <pt x="338" y="588" on="0"/>
        <pt x="338" y="542" on="1"/>
        <pt x="338" y="494" on="0"/>
        <pt x="278" y="443" on="0"/>
        <pt x="229" y="443" on="1"/>
        <pt x="183" y="443" on="1"/>
        <pt x="183" y="320" on="1"/>
        <pt x="127" y="320" on="1"/>
      </contour>
      <contour>
        <pt x="225" y="491" on="1"/>
        <pt x="278" y="491" on="0"/>
        <pt x="278" y="542" on="1"/>
        <pt x="278" y="593" on="0"/>
        <pt x="225" y="593" on="1"/>
        <pt x="183" y="593" on="1"/>
        <pt x="183" y="491" on="1"/>
      </contour>
    </TTGlyph>
    <TTGlyph name="Phi" xMin="37" yMin="0" xMax="411" yMax="640">
      <component glyphName="uni0424" x="0" y="0" flags="0x400"/>
    </TTGlyph>
    <TTGlyph name="Pi" xMin="62" yMin="0" xMax="386" yMax="640">
      <component glyphName="uni041F" x="0" y="0" flags="0x400"/>
    </TTGlyph>
    <TTGlyph name="Psi" xMin="39" yMin="0" xMax="409" yMax="640">
      <contour>
        <pt x="255" y="237" on="1"/>
        <pt x="304" y="247" on="0"/>
        <pt x="345" y="344" on="0"/>
        <pt x="345" y="438" on="1"/>
        <pt x="345" y="531" on="0"/>
        <pt x="335" y="640" on="1"/>
        <pt x="392" y="640" on="1"/>
        <pt x="409" y="529" on="0"/>
        <pt x="409" y="435" on="1"/>
        <pt x="409" y="322" on="0"/>
        <pt x="338" y="193" on="0"/>
        <pt x="255" y="183" on="1"/>
        <pt x="255" y="0" on="1"/>
        <pt x="193" y="0" on="1"/>
        <pt x="193" y="183" on="1"/>
        <pt x="110" y="193" on="0"/>
        <pt x="39" y="322" on="0"/>
        <pt x="39" y="435" on="1"/>
        <pt x="39" y="529" on="0"/>
        <pt x="56" y="640" on="1"/>
        <pt x="113" y="640" on="1"/>
        <pt x="103" y="531" on="0"/>
        <pt x="103" y="438" on="1"/>
        <pt x="103" y="344" on="0"/>
        <pt x="144" y="247" on="0"/>
        <pt x="193" y="237" on="1"/>
        <pt x="193" y="640" on="1"/>
        <pt x="255" y="640" on="1"/>
      </contour>
    </TTGlyph>
    <TTGlyph name="Q" xMin="39" yMin="-138" xMax="411" yMax="650">
      <contour>
        <pt x="323" y="-134" on="0"/>
        <pt x="227" y="-74" on="0"/>
        <pt x="215" y="-10" on="1"/>
        <pt x="39" y="-1" on="0"/>
        <pt x="39" y="319" on="1"/>
        <pt x="39" y="485" on="0"/>
        <pt x="131" y="650" on="0"/>
        <pt x="224" y="650" on="1"/>
        <pt x="319" y="650" on="0"/>
        <pt x="409" y="486" on="0"/>
        <pt x="409" y="319" on="1"/>
        <pt x="409" y="179" on="0"/>
        <pt x="343" y="18" on="0"/>
        <pt x="275" y="-3" on="1"/>
        <pt x="283" y="-45" on="0"/>
        <pt x="343" y="-77" on="0"/>
        <pt x="411" y="-80" on="1"/>
        <pt x="404" y="-138" on="1"/>
      </contour>
      <contour>
        <pt x="106" y="221" on="0"/>
        <pt x="129" y="102" on="0"/>
        <pt x="181" y="47" on="0"/>
        <pt x="224" y="47" on="1"/>
        <pt x="267" y="47" on="0"/>
        <pt x="319" y="102" on="0"/>
        <pt x="342" y="221" on="0"/>
        <pt x="342" y="319" on="1"/>
        <pt x="342" y="418" on="0"/>
        <pt x="319" y="538" on="0"/>
        <pt x="267" y="593" on="0"/>
        <pt x="224" y="593" on="1"/>
        <pt x="181" y="593" on="0"/>
        <pt x="129" y="538" on="0"/>
        <pt x="106" y="418" on="0"/>
        <pt x="106" y="319" on="1"/>
      </contour>
    </TTGlyph>
    <TTGlyph name="Q.sups" xMin="107" yMin="256" xMax="341" yMax="644">
      <contour>
        <pt x="149" y="329" on="0"/>
        <pt x="107" y="415" on="0"/>
        <pt x="107" y="480" on="1"/>
        <pt x="107" y="555" on="0"/>
        <pt x="162" y="644" on="0"/>
        <pt x="224" y="644" on="1"/>
        <pt x="285" y="644" on="0"/>
        <pt x="341" y="555" on="0"/>
        <pt x="341" y="480" on="1"/>
        <pt x="341" y="416" on="0"/>
        <pt x="298" y="330" on="0"/>
        <pt x="252" y="319" on="1"/>
        <pt x="252" y="256" on="1"/>
        <pt x="196" y="256" on="1"/>
        <pt x="196" y="319" on="1"/>
      </contour>
      <contour>
        <pt x="164" y="416" on="0"/>
        <pt x="191" y="365" on="0"/>
        <pt x="224" y="365" on="1"/>
        <pt x="257" y="365" on="0"/>
        <pt x="284" y="416" on="0"/>
        <pt x="284" y="480" on="1"/>
        <pt x="284" y="542" on="0"/>
        <pt x="257" y="595" on="0"/>
        <pt x="224" y="595" on="1"/>
        <pt x="191" y="595" on="0"/>
        <pt x="164" y="542" on="0"/>
        <pt x="164" y="480" on="1"/>
      </contour>
    </TTGlyph>
    <TTGlyph name="R" xMin="62" yMin="0" xMax="409" yMax="640">
      <contour>
        <pt x="300" y="640" on="0"/>
        <pt x="399" y="536" on="0"/>
        <pt x="399" y="442" on="1"/>
        <pt x="399" y="360" on="0"/>
        <pt x="324" y="267" on="0"/>
        <pt x="257" y="255" on="1"/>
        <pt x="321" y="229" on="0"/>
        <pt x="400" y="95" on="0"/>
        <pt x="409" y="0" on="1"/>
        <pt x="344" y="0" on="1"/>
        <pt x="333" y="99" on="0"/>
        <pt x="258" y="212" on="0"/>
        <pt x="183" y="245" on="1"/>
        <pt x="125" y="245" on="1"/>
        <pt x="125" y="0" on="1"/>
        <pt x="62" y="0" on="1"/>
        <pt x="62" y="640" on="1"/>
        <pt x="215" y="640" on="1"/>
      </contour>
      <contour>
        <pt x="210" y="301" on="1"/>
        <pt x="279" y="301" on="0"/>
        <pt x="332" y="373" on="0"/>
        <pt x="332" y="442" on="1"/>
        <pt x="332" y="511" on="0"/>
        <pt x="278" y="584" on="0"/>
        <pt x="210" y="584" on="1"/>
        <pt x="125" y="584" on="1"/>
        <pt x="125" y="301" on="1"/>
      </contour>
    </TTGlyph>
    <TTGlyph name="R.short" xMin="62" yMin="0" xMax="409" yMax="576">
      <contour>
        <pt x="300" y="576" on="0"/>
        <pt x="399" y="481" on="0"/>
        <pt x="399" y="395" on="1"/>
        <pt x="399" y="321" on="0"/>
        <pt x="326" y="235" on="0"/>
        <pt x="261" y="224" on="1"/>
        <pt x="323" y="199" on="0"/>
        <pt x="400" y="83" on="0"/>
        <pt x="409" y="0" on="1"/>
        <pt x="344" y="0" on="1"/>
        <pt x="333" y="86" on="0"/>
        <pt x="258" y="185" on="0"/>
        <pt x="184" y="214" on="1"/>
        <pt x="125" y="214" on="1"/>
        <pt x="125" y="0" on="1"/>
        <pt x="62" y="0" on="1"/>
        <pt x="62" y="576" on="1"/>
        <pt x="215" y="576" on="1"/>
      </contour>
      <contour>
        <pt x="210" y="269" on="1"/>
        <pt x="279" y="269" on="0"/>
        <pt x="332" y="333" on="0"/>
        <pt x="332" y="394" on="1"/>
        <pt x="332" y="456" on="0"/>
        <pt x="278" y="520" on="0"/>
        <pt x="210" y="520" on="1"/>
        <pt x="125" y="520" on="1"/>
        <pt x="125" y="269" on="1"/>
      </contour>
    </TTGlyph>
    <TTGlyph name="R.sups" xMin="127" yMin="320" xMax="329" yMax="640">
      <contour>
        <pt x="268" y="640" on="0"/>
        <pt x="327" y="585" on="0"/>
        <pt x="327" y="536" on="1"/>
        <pt x="327" y="502" on="0"/>
        <pt x="297" y="457" on="0"/>
        <pt x="270" y="448" on="1"/>
        <pt x="295" y="431" on="0"/>
        <pt x="325" y="365" on="0"/>
        <pt x="329" y="320" on="1"/>
        <pt x="271" y="320" on="1"/>
        <pt x="267" y="362" on="0"/>
        <pt x="240" y="414" on="0"/>
        <pt x="216" y="431" on="1"/>
        <pt x="183" y="431" on="1"/>
        <pt x="183" y="320" on="1"/>
        <pt x="127" y="320" on="1"/>
        <pt x="127" y="640" on="1"/>
        <pt x="220" y="640" on="1"/>
      </contour>
      <contour>
        <pt x="217" y="481" on="1"/>
        <pt x="269" y="481" on="0"/>
        <pt x="269" y="536" on="1"/>
        <pt x="269" y="591" on="0"/>
        <pt x="217" y="591" on="1"/>
        <pt x="183" y="591" on="1"/>
        <pt x="183" y="481" on="1"/>
      </contour>
    </TTGlyph>
    <TTGlyph name="Racute" xMin="62" yMin="0" xMax="409" yMax="841">
      <component glyphName="R" x="0" y="0" flags="0x400"/>
      <component glyphName="acutecomb.case" x="0" y="0" flags="0x400"/>
    </TTGlyph>
    <TTGlyph name="Rcaron" xMin="62" yMin="0" xMax="409" yMax="839">
      <component glyphName="R" x="0" y="0" flags="0x400"/>
      <component glyphName="uni030C.case" x="0" y="0" flags="0x400"/>
    </TTGlyph>
    <TTGlyph name="Rho" xMin="62" yMin="0" xMax="399" yMax="640">
      <component glyphName="P" x="0" y="0" flags="0x400"/>
    </TTGlyph>
    <TTGlyph name="S" xMin="55" yMin="-8" xMax="388" yMax="648">
      <contour>
        <pt x="122" y="-8" on="0"/>
        <pt x="55" y="18" on="1"/>
        <pt x="71" y="72" on="1"/>
        <pt x="138" y="48" on="0"/>
        <pt x="200" y="48" on="1"/>
        <pt x="268" y="48" on="0"/>
        <pt x="323" y="98" on="0"/>
        <pt x="323" y="142" on="1"/>
        <pt x="323" y="176" on="0"/>
        <pt x="293" y="222" on="0"/>
        <pt x="250" y="249" on="0"/>
        <pt x="211" y="268" on="1"/>
        <pt x="163" y="291" on="0"/>
        <pt x="104" y="332" on="0"/>
        <pt x="62" y="408" on="0"/>
        <pt x="62" y="468" on="1"/>
        <pt x="62" y="549" on="0"/>
        <pt x="162" y="648" on="0"/>
        <pt x="255" y="648" on="1"/>
        <pt x="284" y="648" on="0"/>
        <pt x="348" y="638" on="0"/>
        <pt x="372" y="630" on="1"/>
        <pt x="359" y="576" on="1"/>
        <pt x="305" y="592" on="0"/>
        <pt x="255" y="592" on="1"/>
        <pt x="184" y="592" on="0"/>
        <pt x="127" y="527" on="0"/>
        <pt x="127" y="471" on="1"/>
        <pt x="127" y="428" on="0"/>
        <pt x="161" y="371" on="0"/>
        <pt x="211" y="338" on="0"/>
        <pt x="253" y="317" on="1"/>
        <pt x="297" y="296" on="0"/>
        <pt x="351" y="259" on="0"/>
        <pt x="388" y="195" on="0"/>
        <pt x="388" y="146" on="1"/>
        <pt x="388" y="69" on="0"/>
        <pt x="290" y="-8" on="0"/>
        <pt x="200" y="-8" on="1"/>
      </contour>
    </TTGlyph>
    <TTGlyph name="S.short" xMin="55" yMin="-8" xMax="388" yMax="584">
      <contour>
        <pt x="122" y="-8" on="0"/>
        <pt x="55" y="18" on="1"/>
        <pt x="71" y="72" on="1"/>
        <pt x="138" y="48" on="0"/>
        <pt x="200" y="48" on="1"/>
        <pt x="268" y="48" on="0"/>
        <pt x="323" y="92" on="0"/>
        <pt x="323" y="132" on="1"/>
        <pt x="323" y="161" on="0"/>
        <pt x="294" y="199" on="0"/>
        <pt x="251" y="223" on="0"/>
        <pt x="214" y="239" on="1"/>
        <pt x="164" y="260" on="0"/>
        <pt x="105" y="297" on="0"/>
        <pt x="62" y="366" on="0"/>
        <pt x="62" y="421" on="1"/>
        <pt x="62" y="495" on="0"/>
        <pt x="162" y="584" on="0"/>
        <pt x="255" y="584" on="1"/>
        <pt x="284" y="584" on="0"/>
        <pt x="348" y="574" on="0"/>
        <pt x="372" y="566" on="1"/>
        <pt x="359" y="512" on="1"/>
        <pt x="305" y="528" on="0"/>
        <pt x="255" y="528" on="1"/>
        <pt x="184" y="528" on="0"/>
        <pt x="127" y="473" on="0"/>
        <pt x="127" y="425" on="1"/>
        <pt x="127" y="388" on="0"/>
        <pt x="160" y="339" on="0"/>
        <pt x="210" y="310" on="0"/>
        <pt x="251" y="292" on="1"/>
        <pt x="296" y="273" on="0"/>
        <pt x="350" y="239" on="0"/>
        <pt x="388" y="180" on="0"/>
        <pt x="388" y="135" on="1"/>
        <pt x="388" y="64" on="0"/>
        <pt x="290" y="-8" on="0"/>
        <pt x="200" y="-8" on="1"/>
      </contour>
    </TTGlyph>
    <TTGlyph name="S.sups" xMin="130" yMin="316" xMax="318" yMax="644">
      <contour>
        <pt x="180" y="316" on="0"/>
        <pt x="130" y="325" on="1"/>
        <pt x="137" y="370" on="1"/>
        <pt x="183" y="364" on="0"/>
        <pt x="204" y="364" on="1"/>
        <pt x="260" y="364" on="0"/>
        <pt x="260" y="408" on="1"/>
        <pt x="260" y="429" on="0"/>
        <pt x="234" y="450" on="0"/>
        <pt x="206" y="461" on="1"/>
        <pt x="169" y="475" on="0"/>
        <pt x="130" y="511" on="0"/>
        <pt x="130" y="552" on="1"/>
        <pt x="130" y="593" on="0"/>
        <pt x="185" y="644" on="0"/>
        <pt x="235" y="644" on="1"/>
        <pt x="269" y="644" on="0"/>
        <pt x="310" y="635" on="1"/>
        <pt x="302" y="590" on="1"/>
        <pt x="258" y="596" on="0"/>
        <pt x="243" y="596" on="1"/>
        <pt x="216" y="596" on="0"/>
        <pt x="188" y="576" on="0"/>
        <pt x="188" y="557" on="1"/>
        <pt x="188" y="537" on="0"/>
        <pt x="213" y="517" on="0"/>
        <pt x="240" y="506" on="1"/>
        <pt x="278" y="491" on="0"/>
        <pt x="318" y="452" on="0"/>
        <pt x="318" y="409" on="1"/>
        <pt x="318" y="367" on="0"/>
        <pt x="263" y="316" on="0"/>
        <pt x="210" y="316" on="1"/>
      </contour>
    </TTGlyph>
    <TTGlyph name="Sacute" xMin="55" yMin="-8" xMax="388" yMax="841">
      <component glyphName="S" x="0" y="0" flags="0x400"/>
      <component glyphName="acutecomb.case" x="0" y="0" flags="0x400"/>
    </TTGlyph>
    <TTGlyph name="Scaron" xMin="55" yMin="-8" xMax="388" yMax="839">
      <component glyphName="S" x="0" y="0" flags="0x400"/>
      <component glyphName="uni030C.case" x="0" y="0" flags="0x400"/>
    </TTGlyph>
    <TTGlyph name="Scedilla" xMin="55" yMin="-172" xMax="388" yMax="648">
      <component glyphName="S" x="0" y="0" flags="0x400"/>
      <component glyphName="uni0327" x="-55" y="20" flags="0x404"/>
    </TTGlyph>
    <TTGlyph name="Scircumflex" xMin="55" yMin="-8" xMax="388" yMax="842">
      <component glyphName="S" x="0" y="0" flags="0x400"/>
      <component glyphName="uni0302.case" x="0" y="0" flags="0x400"/>
    </TTGlyph>
    <TTGlyph name="Sigma" xMin="57" yMin="0" xMax="386" yMax="640">
      <contour>
        <pt x="192" y="320" on="1"/>
        <pt x="69" y="594" on="1"/>
        <pt x="69" y="640" on="1"/>
        <pt x="386" y="640" on="1"/>
        <pt x="386" y="584" on="1"/>
        <pt x="141" y="584" on="1"/>
        <pt x="260" y="320" on="1"/>
        <pt x="130" y="56" on="1"/>
        <pt x="386" y="56" on="1"/>
        <pt x="386" y="0" on="1"/>
        <pt x="57" y="0" on="1"/>
        <pt x="57" y="46" on="1"/>
      </contour>
    </TTGlyph>
    <TTGlyph name="T" xMin="49" yMin="0" xMax="399" yMax="640">
      <contour>
        <pt x="255" y="584" on="1"/>
        <pt x="255" y="0" on="1"/>
        <pt x="193" y="0" on="1"/>
        <pt x="193" y="584" on="1"/>
        <pt x="49" y="584" on="1"/>
        <pt x="49" y="640" on="1"/>
        <pt x="399" y="640" on="1"/>
        <pt x="399" y="584" on="1"/>
      </contour>
    </TTGlyph>
    <TTGlyph name="T.short" xMin="49" yMin="0" xMax="399" yMax="576">
      <contour>
        <pt x="255" y="520" on="1"/>
        <pt x="255" y="0" on="1"/>
        <pt x="193" y="0" on="1"/>
        <pt x="193" y="520" on="1"/>
        <pt x="49" y="520" on="1"/>
        <pt x="49" y="576" on="1"/>
        <pt x="399" y="576" on="1"/>
        <pt x="399" y="520" on="1"/>
      </contour>
    </TTGlyph>
    <TTGlyph name="T.sups" xMin="124" yMin="320" xMax="324" yMax="640">
      <contour>
        <pt x="196" y="591" on="1"/>
        <pt x="124" y="591" on="1"/>
        <pt x="124" y="640" on="1"/>
        <pt x="324" y="640" on="1"/>
        <pt x="324" y="591" on="1"/>
        <pt x="252" y="591" on="1"/>
        <pt x="252" y="320" on="1"/>
        <pt x="196" y="320" on="1"/>
      </contour>
    </TTGlyph>
    <TTGlyph name="Tau" xMin="49" yMin="0" xMax="399" yMax="640">
      <component glyphName="T" x="0" y="0" flags="0x400"/>
    </TTGlyph>
    <TTGlyph name="Tbar" xMin="49" yMin="0" xMax="399" yMax="640">
      <component glyphName="T" x="0" y="0" flags="0x400"/>
      <component glyphName="uni0335" x="0" y="64" flags="0x404"/>
    </TTGlyph>
    <TTGlyph name="Tcaron" xMin="49" yMin="0" xMax="399" yMax="839">
      <component glyphName="T" x="0" y="0" flags="0x400"/>
      <component glyphName="uni030C.case" x="0" y="0" flags="0x400"/>
    </TTGlyph>
    <TTGlyph name="Theta" xMin="39" yMin="-10" xMax="409" yMax="650">
      <contour>
        <pt x="39" y="-10" on="0"/>
        <pt x="39" y="319" on="1"/>
        <pt x="39" y="485" on="0"/>
        <pt x="131" y="650" on="0"/>
        <pt x="224" y="650" on="1"/>
        <pt x="319" y="650" on="0"/>
        <pt x="409" y="486" on="0"/>
        <pt x="409" y="319" on="1"/>
        <pt x="409" y="155" on="0"/>
        <pt x="318" y="-10" on="0"/>
        <pt x="224" y="-10" on="1"/>
      </contour>
      <contour>
        <pt x="342" y="318" on="1"/>
        <pt x="342" y="319" on="1"/>
        <pt x="342" y="418" on="0"/>
        <pt x="319" y="538" on="0"/>
        <pt x="267" y="593" on="0"/>
        <pt x="224" y="593" on="1"/>
        <pt x="181" y="593" on="0"/>
        <pt x="129" y="538" on="0"/>
        <pt x="106" y="418" on="0"/>
        <pt x="106" y="319" on="1"/>
        <pt x="106" y="318" on="1"/>
      </contour>
      <contour>
        <pt x="112" y="146" on="0"/>
        <pt x="167" y="47" on="0"/>
        <pt x="224" y="47" on="1"/>
        <pt x="281" y="47" on="0"/>
        <pt x="336" y="146" on="0"/>
        <pt x="341" y="258" on="1"/>
        <pt x="107" y="258" on="1"/>
      </contour>
    </TTGlyph>
    <TTGlyph name="Thorn" xMin="62" yMin="0" xMax="399" yMax="640">
      <contour>
        <pt x="299" y="508" on="0"/>
        <pt x="399" y="409" on="0"/>
        <pt x="399" y="318" on="1"/>
        <pt x="399" y="227" on="0"/>
        <pt x="300" y="132" on="0"/>
        <pt x="214" y="132" on="1"/>
        <pt x="125" y="132" on="1"/>
        <pt x="125" y="0" on="1"/>
        <pt x="62" y="0" on="1"/>
        <pt x="62" y="640" on="1"/>
        <pt x="125" y="640" on="1"/>
        <pt x="125" y="508" on="1"/>
        <pt x="214" y="508" on="1"/>
      </contour>
      <contour>
        <pt x="208" y="188" on="1"/>
        <pt x="279" y="188" on="0"/>
        <pt x="334" y="254" on="0"/>
        <pt x="334" y="318" on="1"/>
        <pt x="334" y="383" on="0"/>
        <pt x="277" y="452" on="0"/>
        <pt x="208" y="452" on="1"/>
        <pt x="125" y="452" on="1"/>
        <pt x="125" y="188" on="1"/>
      </contour>
    </TTGlyph>
    <TTGlyph name="U" xMin="62" yMin="-8" xMax="386" yMax="640">
      <contour>
        <pt x="125" y="640" on="1"/>
        <pt x="125" y="166" on="1"/>
        <pt x="125" y="108" on="0"/>
        <pt x="167" y="48" on="0"/>
        <pt x="224" y="48" on="1"/>
        <pt x="279" y="48" on="0"/>
        <pt x="323" y="109" on="0"/>
        <pt x="323" y="166" on="1"/>
        <pt x="323" y="640" on="1"/>
        <pt x="386" y="640" on="1"/>
        <pt x="386" y="170" on="1"/>
        <pt x="386" y="79" on="0"/>
        <pt x="299" y="-8" on="0"/>
        <pt x="224" y="-8" on="1"/>
        <pt x="149" y="-8" on="0"/>
        <pt x="62" y="78" on="0"/>
        <pt x="62" y="168" on="1"/>
        <pt x="62" y="640" on="1"/>
      </contour>
    </TTGlyph>
    <TTGlyph name="U.short" xMin="62" yMin="-8" xMax="386" yMax="576">
      <contour>
        <pt x="125" y="576" on="1"/>
        <pt x="125" y="166" on="1"/>
        <pt x="125" y="108" on="0"/>
        <pt x="167" y="48" on="0"/>
        <pt x="224" y="48" on="1"/>
        <pt x="279" y="48" on="0"/>
        <pt x="323" y="109" on="0"/>
        <pt x="323" y="166" on="1"/>
        <pt x="323" y="576" on="1"/>
        <pt x="386" y="576" on="1"/>
        <pt x="386" y="170" on="1"/>
        <pt x="386" y="79" on="0"/>
        <pt x="299" y="-8" on="0"/>
        <pt x="224" y="-8" on="1"/>
        <pt x="149" y="-8" on="0"/>
        <pt x="62" y="78" on="0"/>
        <pt x="62" y="168" on="1"/>
        <pt x="62" y="576" on="1"/>
      </contour>
    </TTGlyph>
    <TTGlyph name="U.sups" xMin="120" yMin="316" xMax="328" yMax="640">
      <contour>
        <pt x="177" y="316" on="0"/>
        <pt x="120" y="366" on="0"/>
        <pt x="120" y="418" on="1"/>
        <pt x="120" y="640" on="1"/>
        <pt x="176" y="640" on="1"/>
        <pt x="176" y="417" on="1"/>
        <pt x="176" y="392" on="0"/>
        <pt x="200" y="365" on="0"/>
        <pt x="224" y="365" on="1"/>
        <pt x="248" y="365" on="0"/>
        <pt x="272" y="392" on="0"/>
        <pt x="272" y="417" on="1"/>
        <pt x="272" y="640" on="1"/>
        <pt x="328" y="640" on="1"/>
        <pt x="328" y="419" on="1"/>
        <pt x="328" y="366" on="0"/>
        <pt x="271" y="316" on="0"/>
        <pt x="224" y="316" on="1"/>
      </contour>
    </TTGlyph>
    <TTGlyph name="Uacute" xMin="62" yMin="-8" xMax="386" yMax="841">
      <component glyphName="U" x="0" y="0" flags="0x400"/>
      <component glyphName="acutecomb.case" x="0" y="0" flags="0x400"/>
    </TTGlyph>
    <TTGlyph name="Ubreve" xMin="62" yMin="-8" xMax="386" yMax="834">
      <component glyphName="U" x="0" y="0" flags="0x400"/>
      <component glyphName="uni0306.case" x="0" y="0" flags="0x400"/>
    </TTGlyph>
    <TTGlyph name="Ucircumflex" xMin="62" yMin="-8" xMax="386" yMax="842">
      <component glyphName="U" x="0" y="0" flags="0x400"/>
      <component glyphName="uni0302.case" x="0" y="0" flags="0x400"/>
    </TTGlyph>
    <TTGlyph name="Udieresis" xMin="62" yMin="-8" xMax="386" yMax="814">
      <component glyphName="U" x="0" y="0" flags="0x400"/>
      <component glyphName="uni0308.case" x="0" y="0" flags="0x400"/>
    </TTGlyph>
    <TTGlyph name="Ugrave" xMin="62" yMin="-8" xMax="386" yMax="841">
      <component glyphName="U" x="0" y="0" flags="0x400"/>
      <component glyphName="gravecomb.case" x="0" y="0" flags="0x400"/>
    </TTGlyph>
    <TTGlyph name="Uhorn" xMin="62" yMin="-8" xMax="452" yMax="768">
      <component glyphName="U" x="0" y="0" flags="0x400"/>
      <component glyphName="uni031B.case" x="0" y="0" flags="0x400"/>
    </TTGlyph>
    <TTGlyph name="Uhorn.short" xMin="62" yMin="-8" xMax="452" yMax="704">
      <component glyphName="U.short" x="0" y="0" flags="0x400"/>
      <component glyphName="uni031B.case" x="0" y="-64" flags="0x404"/>
    </TTGlyph>
    <TTGlyph name="Uhungarumlaut" xMin="62" yMin="-8" xMax="397" yMax="838">
      <component glyphName="U" x="0" y="0" flags="0x400"/>
      <component glyphName="uni030B.case" x="0" y="0" flags="0x400"/>
    </TTGlyph>
    <TTGlyph name="Umacron" xMin="62" yMin="-8" xMax="386" yMax="766">
      <component glyphName="U" x="0" y="0" flags="0x400"/>
      <component glyphName="uni0304.case" x="0" y="0" flags="0x400"/>
    </TTGlyph>
    <TTGlyph name="Uogonek" xMin="62" yMin="-197" xMax="386" yMax="640">
      <component glyphName="U" x="0" y="0" flags="0x400"/>
      <component glyphName="uni0328" x="-97" y="0" flags="0x400"/>
    </TTGlyph>
    <TTGlyph name="Upsilon" xMin="25" yMin="0" xMax="423" yMax="640">
      <contour>
        <pt x="193" y="442" on="0"/>
        <pt x="25" y="640" on="1"/>
        <pt x="106" y="640" on="1"/>
        <pt x="196" y="519" on="0"/>
        <pt x="224" y="359" on="1"/>
        <pt x="254" y="518" on="0"/>
        <pt x="343" y="640" on="1"/>
        <pt x="423" y="640" on="1"/>
        <pt x="255" y="441" on="0"/>
        <pt x="255" y="170" on="1"/>
        <pt x="255" y="0" on="1"/>
        <pt x="193" y="0" on="1"/>
        <pt x="193" y="170" on="1"/>
      </contour>
    </TTGlyph>
    <TTGlyph name="Upsilondieresis" xMin="25" yMin="0" xMax="423" yMax="814">
      <component glyphName="Upsilon" x="0" y="0" flags="0x400"/>
      <component glyphName="uni0308.case" x="0" y="0" flags="0x400"/>
    </TTGlyph>
    <TTGlyph name="Upsilontonos" xMin="-63" yMin="0" xMax="423" yMax="704">
      <component glyphName="Upsilon" x="0" y="0" flags="0x400"/>
      <component glyphName="tonos" x="-256" y="0" flags="0x400"/>
    </TTGlyph>
    <TTGlyph name="Uring" xMin="62" yMin="-8" xMax="386" yMax="821">
      <component glyphName="U.short" x="0" y="0" flags="0x400"/>
      <component glyphName="uni030A.case" x="0" y="0" flags="0x400"/>
    </TTGlyph>
    <TTGlyph name="Utilde" xMin="62" yMin="-8" xMax="386" yMax="837">
      <component glyphName="U" x="0" y="0" flags="0x400"/>
      <component glyphName="tildecomb.case" x="0" y="0" flags="0x400"/>
    </TTGlyph>
    <TTGlyph name="V" xMin="37" yMin="-3" xMax="411" yMax="640">
      <contour>
        <pt x="135" y="120" on="0"/>
        <pt x="53" y="454" on="0"/>
        <pt x="37" y="640" on="1"/>
        <pt x="103" y="640" on="1"/>
        <pt x="118" y="470" on="0"/>
        <pt x="180" y="183" on="0"/>
        <pt x="224" y="79" on="1"/>
        <pt x="268" y="183" on="0"/>
        <pt x="330" y="470" on="0"/>
        <pt x="345" y="640" on="1"/>
        <pt x="411" y="640" on="1"/>
        <pt x="395" y="454" on="0"/>
        <pt x="313" y="120" on="0"/>
        <pt x="251" y="-3" on="1"/>
        <pt x="197" y="-3" on="1"/>
      </contour>
    </TTGlyph>
    <TTGlyph name="V.sups" xMin="109" yMin="320" xMax="338" yMax="640">
      <contour>
        <pt x="129" y="486" on="0"/>
        <pt x="109" y="640" on="1"/>
        <pt x="169" y="640" on="1"/>
        <pt x="184" y="524" on="0"/>
        <pt x="224" y="385" on="1"/>
        <pt x="263" y="513" on="0"/>
        <pt x="279" y="640" on="1"/>
        <pt x="338" y="640" on="1"/>
        <pt x="317" y="477" on="0"/>
        <pt x="249" y="320" on="1"/>
        <pt x="199" y="320" on="1"/>
      </contour>
    </TTGlyph>
    <TTGlyph name="W" xMin="43" yMin="0" xMax="405" yMax="640">
      <contour>
        <pt x="77" y="153" on="0"/>
        <pt x="45" y="444" on="0"/>
        <pt x="43" y="640" on="1"/>
        <pt x="105" y="640" on="1"/>
        <pt x="107" y="461" on="0"/>
        <pt x="125" y="205" on="0"/>
        <pt x="149" y="74" on="1"/>
        <pt x="173" y="178" on="0"/>
        <pt x="197" y="356" on="0"/>
        <pt x="197" y="448" on="1"/>
        <pt x="252" y="448" on="1"/>
        <pt x="252" y="355" on="0"/>
        <pt x="276" y="175" on="0"/>
        <pt x="300" y="76" on="1"/>
        <pt x="323" y="205" on="0"/>
        <pt x="341" y="462" on="0"/>
        <pt x="343" y="640" on="1"/>
        <pt x="405" y="640" on="1"/>
        <pt x="403" y="444" on="0"/>
        <pt x="371" y="153" on="0"/>
        <pt x="333" y="0" on="1"/>
        <pt x="276" y="0" on="1"/>
        <pt x="235" y="122" on="0"/>
        <pt x="224" y="257" on="1"/>
        <pt x="212" y="118" on="0"/>
        <pt x="173" y="0" on="1"/>
        <pt x="115" y="0" on="1"/>
      </contour>
    </TTGlyph>
    <TTGlyph name="W.short" xMin="43" yMin="0" xMax="405" yMax="576">
      <contour>
        <pt x="77" y="137" on="0"/>
        <pt x="45" y="400" on="0"/>
        <pt x="43" y="576" on="1"/>
        <pt x="105" y="576" on="1"/>
        <pt x="107" y="417" on="0"/>
        <pt x="125" y="187" on="0"/>
        <pt x="148" y="71" on="1"/>
        <pt x="172" y="175" on="0"/>
        <pt x="197" y="355" on="0"/>
        <pt x="197" y="448" on="1"/>
        <pt x="252" y="448" on="1"/>
        <pt x="252" y="355" on="0"/>
        <pt x="276" y="173" on="0"/>
        <pt x="300" y="73" on="1"/>
        <pt x="323" y="189" on="0"/>
        <pt x="341" y="417" on="0"/>
        <pt x="343" y="576" on="1"/>
        <pt x="405" y="576" on="1"/>
        <pt x="403" y="400" on="0"/>
        <pt x="371" y="137" on="0"/>
        <pt x="333" y="0" on="1"/>
        <pt x="276" y="0" on="1"/>
        <pt x="235" y="122" on="0"/>
        <pt x="224" y="257" on="1"/>
        <pt x="212" y="118" on="0"/>
        <pt x="173" y="0" on="1"/>
        <pt x="115" y="0" on="1"/>
      </contour>
    </TTGlyph>
    <TTGlyph name="W.sups" xMin="108" yMin="320" xMax="340" yMax="640">
      <contour>
        <pt x="127" y="401" on="0"/>
        <pt x="109" y="547" on="0"/>
        <pt x="108" y="640" on="1"/>
        <pt x="162" y="640" on="1"/>
        <pt x="163" y="554" on="0"/>
        <pt x="170" y="439" on="0"/>
        <pt x="180" y="382" on="1"/>
        <pt x="196" y="469" on="0"/>
        <pt x="199" y="554" on="1"/>
        <pt x="249" y="554" on="1"/>
        <pt x="252" y="469" on="0"/>
        <pt x="268" y="382" on="1"/>
        <pt x="278" y="439" on="0"/>
        <pt x="285" y="554" on="0"/>
        <pt x="286" y="640" on="1"/>
        <pt x="340" y="640" on="1"/>
        <pt x="339" y="547" on="0"/>
        <pt x="321" y="401" on="0"/>
        <pt x="301" y="320" on="1"/>
        <pt x="245" y="320" on="1"/>
        <pt x="231" y="368" on="0"/>
        <pt x="224" y="416" on="1"/>
        <pt x="217" y="368" on="0"/>
        <pt x="203" y="320" on="1"/>
        <pt x="147" y="320" on="1"/>
      </contour>
    </TTGlyph>
    <TTGlyph name="Wacute" xMin="43" yMin="0" xMax="405" yMax="841">
      <component glyphName="W" x="0" y="0" flags="0x400"/>
      <component glyphName="acutecomb.case" x="0" y="0" flags="0x400"/>
    </TTGlyph>
    <TTGlyph name="Wcircumflex" xMin="43" yMin="0" xMax="405" yMax="842">
      <component glyphName="W" x="0" y="0" flags="0x400"/>
      <component glyphName="uni0302.case" x="0" y="0" flags="0x400"/>
    </TTGlyph>
    <TTGlyph name="Wdieresis" xMin="43" yMin="0" xMax="405" yMax="814">
      <component glyphName="W" x="0" y="0" flags="0x400"/>
      <component glyphName="uni0308.case" x="0" y="0" flags="0x400"/>
    </TTGlyph>
    <TTGlyph name="Wgrave" xMin="43" yMin="0" xMax="405" yMax="841">
      <component glyphName="W" x="0" y="0" flags="0x400"/>
      <component glyphName="gravecomb.case" x="0" y="0" flags="0x400"/>
    </TTGlyph>
    <TTGlyph name="X" xMin="49" yMin="0" xMax="398" yMax="640">
      <contour>
        <pt x="68" y="96" on="0"/>
        <pt x="124" y="229" on="0"/>
        <pt x="180" y="301" on="1"/>
        <pt x="123" y="368" on="0"/>
        <pt x="69" y="518" on="0"/>
        <pt x="58" y="640" on="1"/>
        <pt x="121" y="640" on="1"/>
        <pt x="131" y="523" on="0"/>
        <pt x="175" y="395" on="0"/>
        <pt x="224" y="337" on="1"/>
        <pt x="272" y="390" on="0"/>
        <pt x="317" y="523" on="0"/>
        <pt x="327" y="640" on="1"/>
        <pt x="390" y="640" on="1"/>
        <pt x="378" y="517" on="0"/>
        <pt x="324" y="365" on="0"/>
        <pt x="267" y="299" on="1"/>
        <pt x="324" y="229" on="0"/>
        <pt x="379" y="99" on="0"/>
        <pt x="398" y="0" on="1"/>
        <pt x="333" y="0" on="1"/>
        <pt x="315" y="95" on="0"/>
        <pt x="269" y="204" on="0"/>
        <pt x="222" y="261" on="1"/>
        <pt x="178" y="204" on="0"/>
        <pt x="132" y="93" on="0"/>
        <pt x="114" y="0" on="1"/>
        <pt x="49" y="0" on="1"/>
      </contour>
    </TTGlyph>
    <TTGlyph name="X.sups" xMin="115" yMin="320" xMax="332" yMax="640">
      <contour>
        <pt x="126" y="370" on="0"/>
        <pt x="156" y="436" on="0"/>
        <pt x="185" y="469" on="1"/>
        <pt x="155" y="502" on="0"/>
        <pt x="127" y="579" on="0"/>
        <pt x="122" y="640" on="1"/>
        <pt x="177" y="640" on="1"/>
        <pt x="182" y="587" on="0"/>
        <pt x="204" y="526" on="0"/>
        <pt x="225" y="505" on="1"/>
        <pt x="247" y="528" on="0"/>
        <pt x="266" y="587" on="0"/>
        <pt x="271" y="640" on="1"/>
        <pt x="326" y="640" on="1"/>
        <pt x="321" y="580" on="0"/>
        <pt x="293" y="502" on="0"/>
        <pt x="263" y="470" on="1"/>
        <pt x="292" y="437" on="0"/>
        <pt x="322" y="371" on="0"/>
        <pt x="332" y="320" on="1"/>
        <pt x="274" y="320" on="1"/>
        <pt x="264" y="363" on="0"/>
        <pt x="242" y="413" on="0"/>
        <pt x="221" y="434" on="1"/>
        <pt x="202" y="410" on="0"/>
        <pt x="181" y="361" on="0"/>
        <pt x="173" y="320" on="1"/>
        <pt x="115" y="320" on="1"/>
      </contour>
    </TTGlyph>
    <TTGlyph name="Xi" xMin="50" yMin="0" xMax="398" yMax="640">
      <contour>
        <pt x="393" y="640" on="1"/>
        <pt x="393" y="584" on="1"/>
        <pt x="55" y="584" on="1"/>
        <pt x="55" y="640" on="1"/>
      </contour>
      <contour>
        <pt x="50" y="56" on="1"/>
        <pt x="398" y="56" on="1"/>
        <pt x="398" y="0" on="1"/>
        <pt x="50" y="0" on="1"/>
      </contour>
      <contour>
        <pt x="104" y="316" on="1"/>
        <pt x="344" y="316" on="1"/>
        <pt x="344" y="260" on="1"/>
        <pt x="104" y="260" on="1"/>
      </contour>
    </TTGlyph>
    <TTGlyph name="Y" xMin="38" yMin="0" xMax="410" yMax="640">
      <contour>
        <pt x="193" y="202" on="1"/>
        <pt x="130" y="285" on="0"/>
        <pt x="54" y="498" on="0"/>
        <pt x="38" y="640" on="1"/>
        <pt x="101" y="640" on="1"/>
        <pt x="116" y="517" on="0"/>
        <pt x="172" y="337" on="0"/>
        <pt x="224" y="247" on="1"/>
        <pt x="276" y="337" on="0"/>
        <pt x="332" y="517" on="0"/>
        <pt x="347" y="640" on="1"/>
        <pt x="410" y="640" on="1"/>
        <pt x="394" y="498" on="0"/>
        <pt x="318" y="285" on="0"/>
        <pt x="255" y="202" on="1"/>
        <pt x="255" y="0" on="1"/>
        <pt x="193" y="0" on="1"/>
      </contour>
    </TTGlyph>
    <TTGlyph name="Y.short" xMin="38" yMin="0" xMax="410" yMax="576">
      <contour>
        <pt x="193" y="170" on="1"/>
        <pt x="130" y="247" on="0"/>
        <pt x="54" y="444" on="0"/>
        <pt x="38" y="576" on="1"/>
        <pt x="101" y="576" on="1"/>
        <pt x="116" y="461" on="0"/>
        <pt x="172" y="295" on="0"/>
        <pt x="224" y="211" on="1"/>
        <pt x="276" y="295" on="0"/>
        <pt x="332" y="461" on="0"/>
        <pt x="347" y="576" on="1"/>
        <pt x="410" y="576" on="1"/>
        <pt x="394" y="444" on="0"/>
        <pt x="318" y="247" on="0"/>
        <pt x="255" y="170" on="1"/>
        <pt x="255" y="0" on="1"/>
        <pt x="193" y="0" on="1"/>
      </contour>
    </TTGlyph>
    <TTGlyph name="Y.sups" xMin="119" yMin="313" xMax="328" yMax="640">
      <contour>
        <pt x="203" y="371" on="0"/>
        <pt x="247" y="407" on="0"/>
        <pt x="257" y="440" on="1"/>
        <pt x="203" y="446" on="0"/>
        <pt x="148" y="492" on="0"/>
        <pt x="126" y="569" on="0"/>
        <pt x="119" y="640" on="1"/>
        <pt x="176" y="640" on="1"/>
        <pt x="181" y="579" on="0"/>
        <pt x="198" y="520" on="0"/>
        <pt x="232" y="494" on="0"/>
        <pt x="267" y="489" on="1"/>
        <pt x="270" y="513" on="0"/>
        <pt x="272" y="592" on="0"/>
        <pt x="272" y="640" on="1"/>
        <pt x="328" y="640" on="1"/>
        <pt x="328" y="546" on="0"/>
        <pt x="322" y="463" on="0"/>
        <pt x="313" y="430" on="1"/>
        <pt x="283" y="329" on="0"/>
        <pt x="163" y="313" on="1"/>
        <pt x="155" y="362" on="1"/>
      </contour>
    </TTGlyph>
    <TTGlyph name="Yacute" xMin="38" yMin="0" xMax="410" yMax="841">
      <component glyphName="Y" x="0" y="0" flags="0x400"/>
      <component glyphName="acutecomb.case" x="0" y="0" flags="0x400"/>
    </TTGlyph>
    <TTGlyph name="Ycircumflex" xMin="38" yMin="0" xMax="410" yMax="842">
      <component glyphName="Y" x="0" y="0" flags="0x400"/>
      <component glyphName="uni0302.case" x="0" y="0" flags="0x400"/>
    </TTGlyph>
    <TTGlyph name="Ydieresis" xMin="38" yMin="0" xMax="410" yMax="814">
      <component glyphName="Y" x="0" y="0" flags="0x400"/>
      <component glyphName="uni0308.case" x="0" y="0" flags="0x400"/>
    </TTGlyph>
    <TTGlyph name="Ygrave" xMin="38" yMin="0" xMax="410" yMax="841">
      <component glyphName="Y" x="0" y="0" flags="0x400"/>
      <component glyphName="gravecomb.case" x="0" y="0" flags="0x400"/>
    </TTGlyph>
    <TTGlyph name="Z" xMin="57" yMin="0" xMax="386" yMax="640">
      <contour>
        <pt x="57" y="46" on="1"/>
        <pt x="313" y="584" on="1"/>
        <pt x="69" y="584" on="1"/>
        <pt x="69" y="640" on="1"/>
        <pt x="386" y="640" on="1"/>
        <pt x="386" y="594" on="1"/>
        <pt x="130" y="56" on="1"/>
        <pt x="386" y="56" on="1"/>
        <pt x="386" y="0" on="1"/>
        <pt x="57" y="0" on="1"/>
      </contour>
    </TTGlyph>
    <TTGlyph name="Z.sups" xMin="126" yMin="320" xMax="313" yMax="640">
      <contour>
        <pt x="126" y="363" on="1"/>
        <pt x="248" y="592" on="1"/>
        <pt x="130" y="592" on="1"/>
        <pt x="130" y="640" on="1"/>
        <pt x="313" y="640" on="1"/>
        <pt x="313" y="597" on="1"/>
        <pt x="191" y="368" on="1"/>
        <pt x="313" y="368" on="1"/>
        <pt x="313" y="320" on="1"/>
        <pt x="126" y="320" on="1"/>
      </contour>
    </TTGlyph>
    <TTGlyph name="Zacute" xMin="57" yMin="0" xMax="386" yMax="841">
      <component glyphName="Z" x="0" y="0" flags="0x400"/>
      <component glyphName="acutecomb.case" x="0" y="0" flags="0x400"/>
    </TTGlyph>
    <TTGlyph name="Zcaron" xMin="57" yMin="0" xMax="386" yMax="839">
      <component glyphName="Z" x="0" y="0" flags="0x400"/>
      <component glyphName="uni030C.case" x="0" y="0" flags="0x400"/>
    </TTGlyph>
    <TTGlyph name="Zdotaccent" xMin="57" yMin="0" xMax="386" yMax="840">
      <component glyphName="Z" x="0" y="0" flags="0x400"/>
      <component glyphName="uni0307" x="0" y="192" flags="0x404"/>
    </TTGlyph>
    <TTGlyph name="Zeta" xMin="57" yMin="0" xMax="386" yMax="640">
      <component glyphName="Z" x="0" y="0" flags="0x400"/>
    </TTGlyph>
    <TTGlyph name="_part.slash.O" xMin="39" yMin="-12" xMax="409" yMax="653">
      <contour>
        <pt x="409" y="627" on="1"/>
        <pt x="90" y="-12" on="1"/>
        <pt x="39" y="14" on="1"/>
        <pt x="358" y="653" on="1"/>
      </contour>
    </TTGlyph>
    <TTGlyph name="_part.slash.comp" xMin="79" yMin="154" xMax="369" yMax="384">
      <contour>
        <pt x="338" y="384" on="1"/>
        <pt x="369" y="339" on="1"/>
        <pt x="110" y="154" on="1"/>
        <pt x="79" y="199" on="1"/>
      </contour>
    </TTGlyph>
    <TTGlyph name="_part.slash.o" xMin="58" yMin="-21" xMax="390" yMax="471">
      <contour>
        <pt x="390" y="442" on="1"/>
        <pt x="106" y="-21" on="1"/>
        <pt x="58" y="9" on="1"/>
        <pt x="342" y="471" on="1"/>
      </contour>
    </TTGlyph>
    <TTGlyph name="a" xMin="50" yMin="-4" xMax="377" yMax="453">
      <contour>
        <pt x="313" y="350" on="0"/>
        <pt x="270" y="396" on="0"/>
        <pt x="218" y="396" on="1"/>
        <pt x="166" y="396" on="0"/>
        <pt x="89" y="368" on="1"/>
        <pt x="72" y="418" on="1"/>
        <pt x="152" y="453" on="0"/>
        <pt x="223" y="453" on="1"/>
        <pt x="375" y="453" on="0"/>
        <pt x="375" y="304" on="1"/>
        <pt x="375" y="70" on="1"/>
        <pt x="377" y="0" on="1"/>
        <pt x="320" y="0" on="1"/>
        <pt x="317" y="47" on="1"/>
        <pt x="278" y="22" on="0"/>
        <pt x="212" y="-4" on="0"/>
        <pt x="174" y="-4" on="1"/>
        <pt x="122" y="-4" on="0"/>
        <pt x="50" y="59" on="0"/>
        <pt x="50" y="117" on="1"/>
        <pt x="50" y="186" on="0"/>
        <pt x="176" y="260" on="0"/>
        <pt x="313" y="264" on="1"/>
        <pt x="313" y="290" on="1"/>
      </contour>
      <contour>
        <pt x="116" y="88" on="0"/>
        <pt x="150" y="52" on="0"/>
        <pt x="184" y="52" on="1"/>
        <pt x="214" y="52" on="0"/>
        <pt x="273" y="76" on="0"/>
        <pt x="313" y="100" on="1"/>
        <pt x="313" y="211" on="1"/>
        <pt x="207" y="208" on="0"/>
        <pt x="116" y="163" on="0"/>
        <pt x="116" y="120" on="1"/>
      </contour>
    </TTGlyph>
    <TTGlyph name="aacute" xMin="50" yMin="-4" xMax="377" yMax="704">
      <component glyphName="a" x="0" y="0" flags="0x400"/>
      <component glyphName="acutecomb" x="2" y="0" flags="0x400"/>
    </TTGlyph>
    <TTGlyph name="abreve" xMin="50" yMin="-4" xMax="377" yMax="642">
      <component glyphName="a" x="0" y="0" flags="0x400"/>
      <component glyphName="uni0306" x="2" y="0" flags="0x400"/>
    </TTGlyph>
    <TTGlyph name="acircumflex" xMin="50" yMin="-4" xMax="377" yMax="650">
      <component glyphName="a" x="0" y="0" flags="0x400"/>
      <component glyphName="uni0302" x="2" y="0" flags="0x400"/>
    </TTGlyph>
    <TTGlyph name="acute" xMin="153" yMin="384" xMax="309" yMax="640">
      <contour>
        <pt x="153" y="384" on="1"/>
        <pt x="218" y="640" on="1"/>
        <pt x="309" y="640" on="1"/>
        <pt x="217" y="384" on="1"/>
      </contour>
    </TTGlyph>
    <TTGlyph name="acutecomb" xMin="196" yMin="512" xMax="331" yMax="704">
      <contour>
        <pt x="247" y="704" on="1"/>
        <pt x="331" y="704" on="1"/>
        <pt x="252" y="512" on="1"/>
        <pt x="196" y="512" on="1"/>
      </contour>
    </TTGlyph>
    <TTGlyph name="acutecomb.alt" xMin="196" yMin="513" xMax="331" yMax="649">
      <contour>
        <pt x="247" y="649" on="1"/>
        <pt x="331" y="649" on="1"/>
        <pt x="252" y="513" on="1"/>
        <pt x="196" y="513" on="1"/>
      </contour>
    </TTGlyph>
    <TTGlyph name="acutecomb.case" xMin="196" yMin="705" xMax="331" yMax="841">
      <component glyphName="acutecomb.alt" x="0" y="192" flags="0x404"/>
    </TTGlyph>
    <TTGlyph name="adieresis" xMin="50" yMin="-4" xMax="377" yMax="646">
      <component glyphName="a" x="0" y="0" flags="0x400"/>
      <component glyphName="uni0308" x="2" y="0" flags="0x400"/>
    </TTGlyph>
    <TTGlyph name="ae" xMin="-11" yMin="-9" xMax="460" yMax="456">
      <contour>
        <pt x="263" y="-9" on="0"/>
        <pt x="224" y="50" on="1"/>
        <pt x="166" y="-8" on="0"/>
        <pt x="103" y="-8" on="1"/>
        <pt x="50" y="-8" on="0"/>
        <pt x="-11" y="56" on="0"/>
        <pt x="-11" y="118" on="1"/>
        <pt x="-11" y="185" on="0"/>
        <pt x="80" y="257" on="0"/>
        <pt x="186" y="261" on="1"/>
        <pt x="186" y="290" on="1"/>
        <pt x="186" y="349" on="0"/>
        <pt x="154" y="397" on="0"/>
        <pt x="115" y="397" on="1"/>
        <pt x="72" y="397" on="0"/>
        <pt x="18" y="375" on="1"/>
        <pt x="1" y="425" on="1"/>
        <pt x="67" y="454" on="0"/>
        <pt x="118" y="454" on="1"/>
        <pt x="200" y="454" on="0"/>
        <pt x="226" y="392" on="1"/>
        <pt x="257" y="456" on="0"/>
        <pt x="329" y="456" on="1"/>
        <pt x="460" y="456" on="0"/>
        <pt x="460" y="248" on="1"/>
        <pt x="460" y="220" on="0"/>
        <pt x="459" y="206" on="1"/>
        <pt x="251" y="206" on="1"/>
        <pt x="253" y="122" on="0"/>
        <pt x="295" y="46" on="0"/>
        <pt x="346" y="46" on="1"/>
        <pt x="382" y="46" on="0"/>
        <pt x="430" y="63" on="1"/>
        <pt x="444" y="14" on="1"/>
        <pt x="395" y="-9" on="0"/>
        <pt x="340" y="-9" on="1"/>
      </contour>
      <contour>
        <pt x="54" y="83" on="0"/>
        <pt x="85" y="48" on="0"/>
        <pt x="110" y="48" on="1"/>
        <pt x="152" y="48" on="0"/>
        <pt x="202" y="98" on="1"/>
        <pt x="188" y="140" on="0"/>
        <pt x="186" y="207" on="1"/>
        <pt x="113" y="203" on="0"/>
        <pt x="54" y="160" on="0"/>
        <pt x="54" y="119" on="1"/>
      </contour>
      <contour>
        <pt x="394" y="261" on="1"/>
        <pt x="394" y="330" on="0"/>
        <pt x="363" y="400" on="0"/>
        <pt x="326" y="400" on="1"/>
        <pt x="290" y="400" on="0"/>
        <pt x="255" y="333" on="0"/>
        <pt x="252" y="261" on="1"/>
      </contour>
    </TTGlyph>
    <TTGlyph name="aeacute" xMin="-11" yMin="-9" xMax="460" yMax="704">
      <component glyphName="ae" x="0" y="0" flags="0x400"/>
      <component glyphName="acutecomb" x="0" y="0" flags="0x400"/>
    </TTGlyph>
    <TTGlyph name="agrave" xMin="50" yMin="-4" xMax="377" yMax="704">
      <component glyphName="a" x="0" y="0" flags="0x400"/>
      <component glyphName="gravecomb" x="2" y="0" flags="0x400"/>
    </TTGlyph>
    <TTGlyph name="alpha" xMin="43" yMin="-8" xMax="427" yMax="456">
      <contour>
        <pt x="331" y="-6" on="0"/>
        <pt x="318" y="32" on="1"/>
        <pt x="275" y="-8" on="0"/>
        <pt x="209" y="-8" on="1"/>
        <pt x="146" y="-8" on="0"/>
        <pt x="103" y="33" on="1"/>
        <pt x="43" y="93" on="0"/>
        <pt x="43" y="224" on="1"/>
        <pt x="43" y="287" on="0"/>
        <pt x="73" y="385" on="0"/>
        <pt x="101" y="413" on="1"/>
        <pt x="144" y="456" on="0"/>
        <pt x="209" y="456" on="1"/>
        <pt x="273" y="456" on="0"/>
        <pt x="316" y="419" on="1"/>
        <pt x="320" y="448" on="1"/>
        <pt x="374" y="448" on="1"/>
        <pt x="372" y="384" on="1"/>
        <pt x="372" y="77" on="1"/>
        <pt x="372" y="49" on="0"/>
        <pt x="401" y="49" on="1"/>
        <pt x="410" y="49" on="0"/>
        <pt x="424" y="51" on="1"/>
        <pt x="427" y="0" on="1"/>
        <pt x="403" y="-6" on="0"/>
        <pt x="380" y="-6" on="1"/>
      </contour>
      <contour>
        <pt x="111" y="108" on="0"/>
        <pt x="148" y="70" on="1"/>
        <pt x="172" y="47" on="0"/>
        <pt x="215" y="47" on="1"/>
        <pt x="272" y="47" on="0"/>
        <pt x="310" y="82" on="1"/>
        <pt x="310" y="366" on="1"/>
        <pt x="274" y="401" on="0"/>
        <pt x="215" y="401" on="1"/>
        <pt x="171" y="401" on="0"/>
        <pt x="147" y="377" on="1"/>
        <pt x="128" y="358" on="0"/>
        <pt x="111" y="285" on="0"/>
        <pt x="111" y="224" on="1"/>
      </contour>
    </TTGlyph>
    <TTGlyph name="alphatonos" xMin="43" yMin="-8" xMax="427" yMax="704">
      <component glyphName="alpha" x="0" y="0" flags="0x400"/>
      <component glyphName="tonos" x="0" y="0" flags="0x400"/>
    </TTGlyph>
    <TTGlyph name="amacron" xMin="50" yMin="-4" xMax="377" yMax="622">
      <component glyphName="a" x="0" y="0" flags="0x400"/>
      <component glyphName="uni0304" x="2" y="0" flags="0x400"/>
    </TTGlyph>
    <TTGlyph name="ampersand" xMin="37" yMin="-10" xMax="426" yMax="542">
      <contour>
        <pt x="255" y="486" on="0"/>
        <pt x="211" y="486" on="1"/>
        <pt x="160" y="486" on="0"/>
        <pt x="115" y="438" on="0"/>
        <pt x="115" y="401" on="1"/>
        <pt x="115" y="316" on="0"/>
        <pt x="220" y="316" on="1"/>
        <pt x="426" y="316" on="1"/>
        <pt x="426" y="260" on="1"/>
        <pt x="366" y="260" on="1"/>
        <pt x="366" y="18" on="1"/>
        <pt x="328" y="5" on="0"/>
        <pt x="242" y="-10" on="0"/>
        <pt x="208" y="-10" on="1"/>
        <pt x="119" y="-10" on="0"/>
        <pt x="37" y="77" on="0"/>
        <pt x="37" y="144" on="1"/>
        <pt x="37" y="187" on="0"/>
        <pt x="80" y="265" on="0"/>
        <pt x="131" y="288" on="1"/>
        <pt x="91" y="304" on="0"/>
        <pt x="52" y="365" on="0"/>
        <pt x="52" y="403" on="1"/>
        <pt x="52" y="465" on="0"/>
        <pt x="136" y="542" on="0"/>
        <pt x="215" y="542" on="1"/>
        <pt x="261" y="542" on="0"/>
        <pt x="317" y="530" on="1"/>
        <pt x="307" y="477" on="1"/>
      </contour>
      <contour>
        <pt x="101" y="46" on="0"/>
        <pt x="203" y="46" on="1"/>
        <pt x="259" y="46" on="0"/>
        <pt x="303" y="57" on="1"/>
        <pt x="303" y="260" on="1"/>
        <pt x="233" y="260" on="1"/>
        <pt x="161" y="260" on="0"/>
        <pt x="101" y="194" on="0"/>
        <pt x="101" y="145" on="1"/>
      </contour>
    </TTGlyph>
    <TTGlyph name="angle" xMin="66" yMin="69" xMax="382" yMax="517">
      <contour>
        <pt x="66" y="69" on="1"/>
        <pt x="66" y="125" on="1"/>
        <pt x="261" y="517" on="1"/>
        <pt x="311" y="493" on="1"/>
        <pt x="128" y="123" on="1"/>
        <pt x="382" y="123" on="1"/>
        <pt x="382" y="69" on="1"/>
      </contour>
    </TTGlyph>
    <TTGlyph name="anoteleia" xMin="165" yMin="340" xMax="283" yMax="458">
      <component glyphName="period" x="32" y="350" flags="0x404"/>
    </TTGlyph>
    <TTGlyph name="aogonek" xMin="50" yMin="-197" xMax="397" yMax="453">
      <component glyphName="a" x="0" y="0" flags="0x400"/>
      <component glyphName="uni0328" x="-2" y="0" flags="0x400"/>
    </TTGlyph>
    <TTGlyph name="approxequal" xMin="29" yMin="149" xMax="419" yMax="427">
      <contour>
        <pt x="283" y="149" on="0"/>
        <pt x="237" y="168" on="0"/>
        <pt x="207" y="187" on="1"/>
        <pt x="184" y="202" on="0"/>
        <pt x="151" y="216" on="0"/>
        <pt x="134" y="216" on="1"/>
        <pt x="111" y="216" on="0"/>
        <pt x="85" y="185" on="0"/>
        <pt x="80" y="152" on="1"/>
        <pt x="29" y="157" on="1"/>
        <pt x="35" y="211" on="0"/>
        <pt x="87" y="270" on="0"/>
        <pt x="134" y="270" on="1"/>
        <pt x="165" y="270" on="0"/>
        <pt x="211" y="251" on="0"/>
        <pt x="241" y="232" on="1"/>
        <pt x="264" y="217" on="0"/>
        <pt x="297" y="203" on="0"/>
        <pt x="314" y="203" on="1"/>
        <pt x="337" y="203" on="0"/>
        <pt x="363" y="234" on="0"/>
        <pt x="368" y="267" on="1"/>
        <pt x="419" y="263" on="1"/>
        <pt x="413" y="208" on="0"/>
        <pt x="361" y="149" on="0"/>
        <pt x="314" y="149" on="1"/>
      </contour>
      <contour>
        <pt x="35" y="368" on="0"/>
        <pt x="87" y="427" on="0"/>
        <pt x="134" y="427" on="1"/>
        <pt x="165" y="427" on="0"/>
        <pt x="211" y="408" on="0"/>
        <pt x="241" y="389" on="1"/>
        <pt x="264" y="374" on="0"/>
        <pt x="297" y="360" on="0"/>
        <pt x="314" y="360" on="1"/>
        <pt x="337" y="360" on="0"/>
        <pt x="363" y="391" on="0"/>
        <pt x="368" y="424" on="1"/>
        <pt x="419" y="419" on="1"/>
        <pt x="413" y="365" on="0"/>
        <pt x="361" y="306" on="0"/>
        <pt x="314" y="306" on="1"/>
        <pt x="283" y="306" on="0"/>
        <pt x="237" y="325" on="0"/>
        <pt x="207" y="344" on="1"/>
        <pt x="184" y="359" on="0"/>
        <pt x="151" y="373" on="0"/>
        <pt x="134" y="373" on="1"/>
        <pt x="111" y="373" on="0"/>
        <pt x="85" y="342" on="0"/>
        <pt x="80" y="309" on="1"/>
        <pt x="29" y="313" on="1"/>
      </contour>
    </TTGlyph>
    <TTGlyph name="aring" xMin="50" yMin="-4" xMax="377" yMax="693">
      <component glyphName="a" x="0" y="0" flags="0x400"/>
      <component glyphName="uni030A" x="2" y="0" flags="0x400"/>
    </TTGlyph>
    <TTGlyph name="aringacute" xMin="50" yMin="-4" xMax="377" yMax="873">
      <component glyphName="a" x="0" y="0" flags="0x400"/>
      <component glyphName="uni030A" x="2" y="0" flags="0x400"/>
      <component glyphName="acutecomb.alt" x="2" y="224" flags="0x404"/>
    </TTGlyph>
    <TTGlyph name="arrowboth" xMin="-8" yMin="118" xMax="456" yMax="458">
      <contour>
        <pt x="204" y="155" on="1"/>
        <pt x="171" y="118" on="1"/>
        <pt x="-8" y="269" on="1"/>
        <pt x="-8" y="307" on="1"/>
        <pt x="171" y="458" on="1"/>
        <pt x="204" y="421" on="1"/>
        <pt x="86" y="316" on="1"/>
        <pt x="363" y="316" on="1"/>
        <pt x="245" y="421" on="1"/>
        <pt x="277" y="458" on="1"/>
        <pt x="456" y="307" on="1"/>
        <pt x="456" y="269" on="1"/>
        <pt x="277" y="118" on="1"/>
        <pt x="245" y="155" on="1"/>
        <pt x="363" y="260" on="1"/>
        <pt x="86" y="260" on="1"/>
      </contour>
    </TTGlyph>
    <TTGlyph name="arrowdown" xMin="54" yMin="54" xMax="394" yMax="512">
      <contour>
        <pt x="252" y="147" on="1"/>
        <pt x="357" y="266" on="1"/>
        <pt x="394" y="233" on="1"/>
        <pt x="243" y="54" on="1"/>
        <pt x="205" y="54" on="1"/>
        <pt x="54" y="233" on="1"/>
        <pt x="91" y="266" on="1"/>
        <pt x="196" y="147" on="1"/>
        <pt x="196" y="512" on="1"/>
        <pt x="252" y="512" on="1"/>
      </contour>
    </TTGlyph>
    <TTGlyph name="arrowleft" xMin="-10" yMin="118" xMax="448" yMax="458">
      <contour>
        <pt x="83" y="260" on="1"/>
        <pt x="202" y="155" on="1"/>
        <pt x="169" y="118" on="1"/>
        <pt x="-10" y="269" on="1"/>
        <pt x="-10" y="307" on="1"/>
        <pt x="169" y="458" on="1"/>
        <pt x="202" y="421" on="1"/>
        <pt x="83" y="316" on="1"/>
        <pt x="448" y="316" on="1"/>
        <pt x="448" y="260" on="1"/>
      </contour>
    </TTGlyph>
    <TTGlyph name="arrowright" xMin="0" yMin="118" xMax="458" yMax="458">
      <contour>
        <pt x="365" y="316" on="1"/>
        <pt x="246" y="421" on="1"/>
        <pt x="279" y="458" on="1"/>
        <pt x="458" y="307" on="1"/>
        <pt x="458" y="269" on="1"/>
        <pt x="279" y="118" on="1"/>
        <pt x="246" y="155" on="1"/>
        <pt x="365" y="260" on="1"/>
        <pt x="0" y="260" on="1"/>
        <pt x="0" y="316" on="1"/>
      </contour>
    </TTGlyph>
    <TTGlyph name="arrowup" xMin="54" yMin="64" xMax="394" yMax="522">
      <contour>
        <pt x="196" y="429" on="1"/>
        <pt x="91" y="310" on="1"/>
        <pt x="54" y="343" on="1"/>
        <pt x="205" y="522" on="1"/>
        <pt x="243" y="522" on="1"/>
        <pt x="394" y="343" on="1"/>
        <pt x="357" y="310" on="1"/>
        <pt x="252" y="429" on="1"/>
        <pt x="252" y="64" on="1"/>
        <pt x="196" y="64" on="1"/>
      </contour>
    </TTGlyph>
    <TTGlyph name="arrowupdn" xMin="60" yMin="58" xMax="388" yMax="518">
      <contour>
        <pt x="98" y="311" on="1"/>
        <pt x="60" y="343" on="1"/>
        <pt x="204" y="518" on="1"/>
        <pt x="244" y="518" on="1"/>
        <pt x="388" y="343" on="1"/>
        <pt x="350" y="311" on="1"/>
        <pt x="252" y="425" on="1"/>
        <pt x="252" y="151" on="1"/>
        <pt x="350" y="265" on="1"/>
        <pt x="388" y="233" on="1"/>
        <pt x="244" y="58" on="1"/>
        <pt x="204" y="58" on="1"/>
        <pt x="60" y="233" on="1"/>
        <pt x="98" y="265" on="1"/>
        <pt x="196" y="151" on="1"/>
        <pt x="196" y="425" on="1"/>
      </contour>
    </TTGlyph>
    <TTGlyph name="arrowupdnbse" xMin="60" yMin="0" xMax="388" yMax="582">
      <contour>
        <pt x="68" y="56" on="1"/>
        <pt x="380" y="56" on="1"/>
        <pt x="380" y="0" on="1"/>
        <pt x="68" y="0" on="1"/>
      </contour>
      <contour>
        <pt x="98" y="329" on="1"/>
        <pt x="196" y="215" on="1"/>
        <pt x="196" y="489" on="1"/>
        <pt x="98" y="375" on="1"/>
        <pt x="60" y="407" on="1"/>
        <pt x="204" y="582" on="1"/>
        <pt x="244" y="582" on="1"/>
        <pt x="388" y="407" on="1"/>
        <pt x="350" y="375" on="1"/>
        <pt x="252" y="489" on="1"/>
        <pt x="252" y="215" on="1"/>
        <pt x="350" y="329" on="1"/>
        <pt x="388" y="297" on="1"/>
        <pt x="244" y="122" on="1"/>
        <pt x="204" y="122" on="1"/>
        <pt x="60" y="297" on="1"/>
      </contour>
    </TTGlyph>
    <TTGlyph name="asciicircum" xMin="50" yMin="192" xMax="398" yMax="566">
      <contour>
        <pt x="263" y="566" on="1"/>
        <pt x="398" y="192" on="1"/>
        <pt x="332" y="192" on="1"/>
        <pt x="224" y="503" on="1"/>
        <pt x="116" y="192" on="1"/>
        <pt x="50" y="192" on="1"/>
        <pt x="185" y="566" on="1"/>
      </contour>
    </TTGlyph>
    <TTGlyph name="asciitilde" xMin="-4" yMin="192" xMax="452" yMax="384">
      <contour>
        <pt x="282" y="192" on="0"/>
        <pt x="228" y="232" on="0"/>
        <pt x="198" y="271" on="1"/>
        <pt x="174" y="301" on="0"/>
        <pt x="142" y="328" on="0"/>
        <pt x="119" y="328" on="1"/>
        <pt x="84" y="328" on="0"/>
        <pt x="57" y="272" on="0"/>
        <pt x="51" y="205" on="1"/>
        <pt x="-4" y="210" on="1"/>
        <pt x="1" y="298" on="0"/>
        <pt x="58" y="384" on="0"/>
        <pt x="122" y="384" on="1"/>
        <pt x="166" y="384" on="0"/>
        <pt x="220" y="344" on="0"/>
        <pt x="250" y="305" on="1"/>
        <pt x="272" y="276" on="0"/>
        <pt x="306" y="248" on="0"/>
        <pt x="329" y="248" on="1"/>
        <pt x="364" y="248" on="0"/>
        <pt x="391" y="304" on="0"/>
        <pt x="397" y="371" on="1"/>
        <pt x="452" y="367" on="1"/>
        <pt x="447" y="279" on="0"/>
        <pt x="390" y="192" on="0"/>
        <pt x="327" y="192" on="1"/>
      </contour>
    </TTGlyph>
    <TTGlyph name="asterisk" xMin="42" yMin="76" xMax="406" yMax="500">
      <contour>
        <pt x="265" y="288" on="1"/>
        <pt x="406" y="176" on="1"/>
        <pt x="366" y="128" on="1"/>
        <pt x="251" y="230" on="1"/>
        <pt x="255" y="76" on="1"/>
        <pt x="193" y="76" on="1"/>
        <pt x="197" y="230" on="1"/>
        <pt x="82" y="128" on="1"/>
        <pt x="42" y="176" on="1"/>
        <pt x="183" y="288" on="1"/>
        <pt x="42" y="400" on="1"/>
        <pt x="82" y="448" on="1"/>
        <pt x="197" y="346" on="1"/>
        <pt x="193" y="500" on="1"/>
        <pt x="255" y="500" on="1"/>
        <pt x="251" y="346" on="1"/>
        <pt x="366" y="448" on="1"/>
        <pt x="406" y="400" on="1"/>
      </contour>
    </TTGlyph>
    <TTGlyph name="at" xMin="53" yMin="-128" xMax="383" yMax="586">
      <contour>
        <pt x="352" y="66" on="0"/>
        <pt x="304" y="66" on="1"/>
        <pt x="241" y="66" on="0"/>
        <pt x="172" y="146" on="0"/>
        <pt x="172" y="219" on="1"/>
        <pt x="172" y="289" on="0"/>
        <pt x="243" y="373" on="0"/>
        <pt x="321" y="385" on="1"/>
        <pt x="320" y="460" on="0"/>
        <pt x="280" y="530" on="0"/>
        <pt x="231" y="530" on="1"/>
        <pt x="188" y="530" on="0"/>
        <pt x="138" y="469" on="0"/>
        <pt x="115" y="335" on="0"/>
        <pt x="115" y="223" on="1"/>
        <pt x="115" y="61" on="0"/>
        <pt x="179" y="-73" on="0"/>
        <pt x="245" y="-73" on="1"/>
        <pt x="286" y="-73" on="0"/>
        <pt x="326" y="-59" on="1"/>
        <pt x="340" y="-109" on="1"/>
        <pt x="291" y="-128" on="0"/>
        <pt x="244" y="-128" on="1"/>
        <pt x="143" y="-128" on="0"/>
        <pt x="53" y="39" on="0"/>
        <pt x="53" y="223" on="1"/>
        <pt x="53" y="410" on="0"/>
        <pt x="136" y="586" on="0"/>
        <pt x="233" y="586" on="1"/>
        <pt x="308" y="586" on="0"/>
        <pt x="383" y="478" on="0"/>
        <pt x="383" y="383" on="1"/>
        <pt x="383" y="76" on="1"/>
      </contour>
      <contour>
        <pt x="236" y="172" on="0"/>
        <pt x="266" y="123" on="0"/>
        <pt x="303" y="123" on="1"/>
        <pt x="315" y="123" on="0"/>
        <pt x="321" y="124" on="1"/>
        <pt x="321" y="330" on="1"/>
        <pt x="271" y="321" on="0"/>
        <pt x="236" y="271" on="0"/>
        <pt x="236" y="220" on="1"/>
      </contour>
    </TTGlyph>
    <TTGlyph name="atilde" xMin="50" yMin="-4" xMax="377" yMax="645">
      <component glyphName="a" x="0" y="0" flags="0x400"/>
      <component glyphName="tildecomb" x="2" y="0" flags="0x400"/>
    </TTGlyph>
    <TTGlyph name="b" xMin="60" yMin="-8" xMax="399" yMax="640">
      <contour>
        <pt x="62" y="64" on="1"/>
        <pt x="62" y="640" on="1"/>
        <pt x="125" y="640" on="1"/>
        <pt x="125" y="417" on="1"/>
        <pt x="169" y="456" on="0"/>
        <pt x="233" y="456" on="1"/>
        <pt x="296" y="456" on="0"/>
        <pt x="339" y="415" on="1"/>
        <pt x="399" y="355" on="0"/>
        <pt x="399" y="224" on="1"/>
        <pt x="399" y="161" on="0"/>
        <pt x="369" y="63" on="0"/>
        <pt x="341" y="35" on="1"/>
        <pt x="298" y="-8" on="0"/>
        <pt x="233" y="-8" on="1"/>
        <pt x="163" y="-8" on="0"/>
        <pt x="119" y="36" on="1"/>
        <pt x="115" y="0" on="1"/>
        <pt x="60" y="0" on="1"/>
      </contour>
      <contour>
        <pt x="163" y="47" on="0"/>
        <pt x="227" y="47" on="1"/>
        <pt x="271" y="47" on="0"/>
        <pt x="295" y="71" on="1"/>
        <pt x="314" y="90" on="0"/>
        <pt x="331" y="163" on="0"/>
        <pt x="331" y="224" on="1"/>
        <pt x="331" y="340" on="0"/>
        <pt x="294" y="378" on="1"/>
        <pt x="270" y="401" on="0"/>
        <pt x="227" y="401" on="1"/>
        <pt x="164" y="401" on="0"/>
        <pt x="125" y="359" on="1"/>
        <pt x="125" y="89" on="1"/>
      </contour>
    </TTGlyph>
    <TTGlyph name="backslash" xMin="124" yMin="-68" xMax="324" yMax="709">
      <contour>
        <pt x="263" y="-68" on="1"/>
        <pt x="124" y="699" on="1"/>
        <pt x="185" y="709" on="1"/>
        <pt x="324" y="-58" on="1"/>
      </contour>
    </TTGlyph>
    <TTGlyph name="bar" xMin="193" yMin="-64" xMax="255" yMax="704">
      <contour>
        <pt x="193" y="-64" on="1"/>
        <pt x="193" y="704" on="1"/>
        <pt x="255" y="704" on="1"/>
        <pt x="255" y="-64" on="1"/>
      </contour>
    </TTGlyph>
    <TTGlyph name="beta" xMin="62" yMin="-192" xMax="406" yMax="648">
      <contour>
        <pt x="62" y="558" on="0"/>
        <pt x="150" y="648" on="0"/>
        <pt x="221" y="648" on="1"/>
        <pt x="299" y="648" on="0"/>
        <pt x="377" y="556" on="0"/>
        <pt x="377" y="490" on="1"/>
        <pt x="377" y="444" on="0"/>
        <pt x="330" y="373" on="0"/>
        <pt x="287" y="356" on="1"/>
        <pt x="406" y="323" on="0"/>
        <pt x="406" y="176" on="1"/>
        <pt x="406" y="95" on="0"/>
        <pt x="321" y="-6" on="0"/>
        <pt x="238" y="-6" on="1"/>
        <pt x="174" y="-6" on="0"/>
        <pt x="125" y="31" on="1"/>
        <pt x="125" y="-192" on="1"/>
        <pt x="62" y="-192" on="1"/>
        <pt x="62" y="477" on="1"/>
      </contour>
      <contour>
        <pt x="170" y="49" on="0"/>
        <pt x="233" y="49" on="1"/>
        <pt x="289" y="49" on="0"/>
        <pt x="341" y="112" on="0"/>
        <pt x="341" y="180" on="1"/>
        <pt x="341" y="252" on="0"/>
        <pt x="278" y="325" on="0"/>
        <pt x="205" y="325" on="1"/>
        <pt x="177" y="325" on="1"/>
        <pt x="177" y="379" on="1"/>
        <pt x="205" y="379" on="1"/>
        <pt x="312" y="379" on="0"/>
        <pt x="312" y="487" on="1"/>
        <pt x="312" y="537" on="0"/>
        <pt x="264" y="592" on="0"/>
        <pt x="219" y="592" on="1"/>
        <pt x="125" y="592" on="0"/>
        <pt x="125" y="476" on="1"/>
        <pt x="125" y="91" on="1"/>
      </contour>
    </TTGlyph>
    <TTGlyph name="block" xMin="-5" yMin="-197" xMax="453" yMax="837">
      <contour>
        <pt x="-5" y="-197" on="1"/>
        <pt x="-5" y="837" on="1"/>
        <pt x="453" y="837" on="1"/>
        <pt x="453" y="-197" on="1"/>
      </contour>
    </TTGlyph>
    <TTGlyph name="braceleft" xMin="86" yMin="-64" xMax="332" yMax="704">
      <contour>
        <pt x="240" y="-53" on="0"/>
        <pt x="154" y="5" on="0"/>
        <pt x="154" y="72" on="1"/>
        <pt x="154" y="90" on="0"/>
        <pt x="160" y="128" on="1"/>
        <pt x="166" y="168" on="0"/>
        <pt x="166" y="194" on="1"/>
        <pt x="166" y="232" on="0"/>
        <pt x="127" y="277" on="0"/>
        <pt x="86" y="284" on="1"/>
        <pt x="86" y="356" on="1"/>
        <pt x="127" y="363" on="0"/>
        <pt x="166" y="408" on="0"/>
        <pt x="166" y="446" on="1"/>
        <pt x="166" y="472" on="0"/>
        <pt x="160" y="512" on="1"/>
        <pt x="154" y="550" on="0"/>
        <pt x="154" y="568" on="1"/>
        <pt x="154" y="635" on="0"/>
        <pt x="240" y="693" on="0"/>
        <pt x="324" y="704" on="1"/>
        <pt x="332" y="655" on="1"/>
        <pt x="264" y="643" on="0"/>
        <pt x="213" y="608" on="0"/>
        <pt x="213" y="569" on="1"/>
        <pt x="213" y="557" on="0"/>
        <pt x="217" y="524" on="0"/>
        <pt x="218" y="517" on="1"/>
        <pt x="225" y="480" on="0"/>
        <pt x="225" y="448" on="1"/>
        <pt x="225" y="391" on="0"/>
        <pt x="180" y="335" on="0"/>
        <pt x="133" y="320" on="1"/>
        <pt x="180" y="305" on="0"/>
        <pt x="225" y="249" on="0"/>
        <pt x="225" y="192" on="1"/>
        <pt x="225" y="160" on="0"/>
        <pt x="218" y="123" on="1"/>
        <pt x="217" y="116" on="0"/>
        <pt x="213" y="83" on="0"/>
        <pt x="213" y="71" on="1"/>
        <pt x="213" y="32" on="0"/>
        <pt x="264" y="-3" on="0"/>
        <pt x="332" y="-15" on="1"/>
        <pt x="324" y="-64" on="1"/>
      </contour>
    </TTGlyph>
    <TTGlyph name="braceright" xMin="116" yMin="-64" xMax="362" yMax="704">
      <contour>
        <pt x="184" y="-3" on="0"/>
        <pt x="235" y="32" on="0"/>
        <pt x="235" y="71" on="1"/>
        <pt x="235" y="83" on="0"/>
        <pt x="231" y="116" on="0"/>
        <pt x="230" y="123" on="1"/>
        <pt x="223" y="160" on="0"/>
        <pt x="223" y="192" on="1"/>
        <pt x="223" y="249" on="0"/>
        <pt x="268" y="305" on="0"/>
        <pt x="315" y="320" on="1"/>
        <pt x="268" y="335" on="0"/>
        <pt x="223" y="391" on="0"/>
        <pt x="223" y="448" on="1"/>
        <pt x="223" y="480" on="0"/>
        <pt x="230" y="517" on="1"/>
        <pt x="231" y="524" on="0"/>
        <pt x="235" y="557" on="0"/>
        <pt x="235" y="569" on="1"/>
        <pt x="235" y="608" on="0"/>
        <pt x="184" y="643" on="0"/>
        <pt x="116" y="655" on="1"/>
        <pt x="124" y="704" on="1"/>
        <pt x="208" y="693" on="0"/>
        <pt x="294" y="635" on="0"/>
        <pt x="294" y="568" on="1"/>
        <pt x="294" y="550" on="0"/>
        <pt x="288" y="512" on="1"/>
        <pt x="282" y="472" on="0"/>
        <pt x="282" y="446" on="1"/>
        <pt x="282" y="408" on="0"/>
        <pt x="321" y="363" on="0"/>
        <pt x="362" y="356" on="1"/>
        <pt x="362" y="284" on="1"/>
        <pt x="321" y="277" on="0"/>
        <pt x="282" y="232" on="0"/>
        <pt x="282" y="194" on="1"/>
        <pt x="282" y="168" on="0"/>
        <pt x="288" y="128" on="1"/>
        <pt x="294" y="90" on="0"/>
        <pt x="294" y="72" on="1"/>
        <pt x="294" y="5" on="0"/>
        <pt x="208" y="-53" on="0"/>
        <pt x="124" y="-64" on="1"/>
        <pt x="116" y="-15" on="1"/>
      </contour>
    </TTGlyph>
    <TTGlyph name="bracketleft" xMin="149" yMin="-64" xMax="335" yMax="704">
      <contour>
        <pt x="211" y="648" on="1"/>
        <pt x="211" y="-8" on="1"/>
        <pt x="335" y="-8" on="1"/>
        <pt x="335" y="-64" on="1"/>
        <pt x="149" y="-64" on="1"/>
        <pt x="149" y="704" on="1"/>
        <pt x="335" y="704" on="1"/>
        <pt x="335" y="648" on="1"/>
      </contour>
    </TTGlyph>
    <TTGlyph name="bracketright" xMin="113" yMin="-64" xMax="299" yMax="704">
      <contour>
        <pt x="113" y="-64" on="1"/>
        <pt x="113" y="-8" on="1"/>
        <pt x="237" y="-8" on="1"/>
        <pt x="237" y="648" on="1"/>
        <pt x="113" y="648" on="1"/>
        <pt x="113" y="704" on="1"/>
        <pt x="299" y="704" on="1"/>
        <pt x="299" y="-64" on="1"/>
      </contour>
    </TTGlyph>
    <TTGlyph name="breve" xMin="97" yMin="504" xMax="351" yMax="642">
      <component glyphName="uni0306" x="0" y="0" flags="0x400"/>
    </TTGlyph>
    <TTGlyph name="brokenbar" xMin="193" yMin="-64" xMax="255" yMax="704">
      <contour>
        <pt x="193" y="384" on="1"/>
        <pt x="193" y="704" on="1"/>
        <pt x="255" y="704" on="1"/>
        <pt x="255" y="384" on="1"/>
      </contour>
      <contour>
        <pt x="193" y="256" on="1"/>
        <pt x="255" y="256" on="1"/>
        <pt x="255" y="-64" on="1"/>
        <pt x="193" y="-64" on="1"/>
      </contour>
    </TTGlyph>
    <TTGlyph name="bullet" xMin="127" yMin="125" xMax="321" yMax="323">
      <contour>
        <pt x="265" y="323" on="0"/>
        <pt x="321" y="266" on="0"/>
        <pt x="321" y="224" on="1"/>
        <pt x="321" y="182" on="0"/>
        <pt x="265" y="125" on="0"/>
        <pt x="224" y="125" on="1"/>
        <pt x="183" y="125" on="0"/>
        <pt x="127" y="182" on="0"/>
        <pt x="127" y="224" on="1"/>
        <pt x="127" y="266" on="0"/>
        <pt x="183" y="323" on="0"/>
        <pt x="224" y="323" on="1"/>
      </contour>
    </TTGlyph>
    <TTGlyph name="c" xMin="50" yMin="-7" xMax="354" yMax="455">
      <contour>
        <pt x="290" y="400" on="0"/>
        <pt x="238" y="400" on="1"/>
        <pt x="170" y="400" on="0"/>
        <pt x="116" y="319" on="0"/>
        <pt x="116" y="224" on="1"/>
        <pt x="116" y="130" on="0"/>
        <pt x="172" y="48" on="0"/>
        <pt x="239" y="48" on="1"/>
        <pt x="288" y="48" on="0"/>
        <pt x="343" y="64" on="1"/>
        <pt x="354" y="12" on="1"/>
        <pt x="296" y="-7" on="0"/>
        <pt x="234" y="-7" on="1"/>
        <pt x="136" y="-7" on="0"/>
        <pt x="50" y="118" on="0"/>
        <pt x="50" y="224" on="1"/>
        <pt x="50" y="330" on="0"/>
        <pt x="136" y="455" on="0"/>
        <pt x="234" y="455" on="1"/>
        <pt x="301" y="455" on="0"/>
        <pt x="354" y="436" on="1"/>
        <pt x="343" y="385" on="1"/>
      </contour>
    </TTGlyph>
    <TTGlyph name="cacute" xMin="50" yMin="-7" xMax="354" yMax="704">
      <component glyphName="c" x="0" y="0" flags="0x400"/>
      <component glyphName="acutecomb" x="16" y="0" flags="0x400"/>
    </TTGlyph>
    <TTGlyph name="caron" xMin="90" yMin="509" xMax="358" yMax="647">
      <component glyphName="uni030C" x="0" y="0" flags="0x400"/>
    </TTGlyph>
    <TTGlyph name="carriagereturn" xMin="4" yMin="60" xMax="424" yMax="444">
      <contour>
        <pt x="211" y="98" on="1"/>
        <pt x="179" y="60" on="1"/>
        <pt x="4" y="204" on="1"/>
        <pt x="4" y="244" on="1"/>
        <pt x="179" y="388" on="1"/>
        <pt x="211" y="350" on="1"/>
        <pt x="97" y="252" on="1"/>
        <pt x="364" y="252" on="1"/>
        <pt x="364" y="444" on="1"/>
        <pt x="424" y="444" on="1"/>
        <pt x="424" y="196" on="1"/>
        <pt x="97" y="196" on="1"/>
      </contour>
    </TTGlyph>
    <TTGlyph name="ccaron" xMin="50" yMin="-7" xMax="374" yMax="647">
      <component glyphName="c" x="0" y="0" flags="0x400"/>
      <component glyphName="uni030C" x="16" y="0" flags="0x400"/>
    </TTGlyph>
    <TTGlyph name="ccedilla" xMin="50" yMin="-192" xMax="354" yMax="455">
      <component glyphName="c" x="0" y="0" flags="0x400"/>
      <component glyphName="uni0327" x="-22" y="0" flags="0x400"/>
    </TTGlyph>
    <TTGlyph name="ccircumflex" xMin="50" yMin="-7" xMax="374" yMax="650">
      <component glyphName="c" x="0" y="0" flags="0x400"/>
      <component glyphName="uni0302" x="16" y="0" flags="0x400"/>
    </TTGlyph>
    <TTGlyph name="cdotaccent" xMin="50" yMin="-7" xMax="354" yMax="648">
      <component glyphName="c" x="0" y="0" flags="0x400"/>
      <component glyphName="uni0307" x="16" y="0" flags="0x400"/>
    </TTGlyph>
    <TTGlyph name="cedilla" xMin="126" yMin="-192" xMax="317" yMax="10">
      <component glyphName="uni0327" x="0" y="0" flags="0x400"/>
    </TTGlyph>
    <TTGlyph name="cent" xMin="50" yMin="-64" xMax="354" yMax="640">
      <contour>
        <pt x="290" y="464" on="0"/>
        <pt x="238" y="464" on="1"/>
        <pt x="170" y="464" on="0"/>
        <pt x="116" y="383" on="0"/>
        <pt x="116" y="288" on="1"/>
        <pt x="116" y="194" on="0"/>
        <pt x="172" y="112" on="0"/>
        <pt x="239" y="112" on="1"/>
        <pt x="288" y="112" on="0"/>
        <pt x="343" y="128" on="1"/>
        <pt x="354" y="76" on="1"/>
        <pt x="305" y="60" on="0"/>
        <pt x="253" y="57" on="1"/>
        <pt x="253" y="-64" on="1"/>
        <pt x="195" y="-64" on="1"/>
        <pt x="195" y="60" on="1"/>
        <pt x="118" y="73" on="0"/>
        <pt x="50" y="194" on="0"/>
        <pt x="50" y="288" on="1"/>
        <pt x="50" y="382" on="0"/>
        <pt x="118" y="503" on="0"/>
        <pt x="195" y="516" on="1"/>
        <pt x="195" y="640" on="1"/>
        <pt x="253" y="640" on="1"/>
        <pt x="253" y="519" on="1"/>
        <pt x="312" y="515" on="0"/>
        <pt x="354" y="500" on="1"/>
        <pt x="343" y="449" on="1"/>
      </contour>
    </TTGlyph>
    <TTGlyph name="chi" xMin="28" yMin="-192" xMax="396" yMax="448">
      <contour>
        <pt x="396" y="448" on="1"/>
        <pt x="257" y="157" on="1"/>
        <pt x="321" y="88" on="0"/>
        <pt x="377" y="-64" on="0"/>
        <pt x="390" y="-192" on="1"/>
        <pt x="329" y="-192" on="1"/>
        <pt x="318" y="-78" on="0"/>
        <pt x="277" y="50" on="0"/>
        <pt x="231" y="101" on="1"/>
        <pt x="91" y="-192" on="1"/>
        <pt x="28" y="-192" on="1"/>
        <pt x="185" y="139" on="1"/>
        <pt x="128" y="209" on="0"/>
        <pt x="71" y="344" on="0"/>
        <pt x="51" y="448" on="1"/>
        <pt x="114" y="448" on="1"/>
        <pt x="130" y="362" on="0"/>
        <pt x="173" y="251" on="0"/>
        <pt x="213" y="197" on="1"/>
        <pt x="332" y="448" on="1"/>
      </contour>
    </TTGlyph>
    <TTGlyph name="circle" xMin="59" yMin="124" xMax="389" yMax="452">
      <contour>
        <pt x="178" y="124" on="0"/>
        <pt x="102" y="167" on="0"/>
        <pt x="59" y="242" on="0"/>
        <pt x="59" y="288" on="1"/>
        <pt x="59" y="334" on="0"/>
        <pt x="102" y="409" on="0"/>
        <pt x="178" y="452" on="0"/>
        <pt x="224" y="452" on="1"/>
        <pt x="270" y="452" on="0"/>
        <pt x="346" y="409" on="0"/>
        <pt x="389" y="334" on="0"/>
        <pt x="389" y="288" on="1"/>
        <pt x="389" y="242" on="0"/>
        <pt x="346" y="167" on="0"/>
        <pt x="270" y="124" on="0"/>
        <pt x="224" y="124" on="1"/>
      </contour>
      <contour>
        <pt x="119" y="242" on="0"/>
        <pt x="180" y="180" on="0"/>
        <pt x="224" y="180" on="1"/>
        <pt x="268" y="180" on="0"/>
        <pt x="329" y="242" on="0"/>
        <pt x="329" y="288" on="1"/>
        <pt x="329" y="334" on="0"/>
        <pt x="268" y="396" on="0"/>
        <pt x="224" y="396" on="1"/>
        <pt x="180" y="396" on="0"/>
        <pt x="119" y="334" on="0"/>
        <pt x="119" y="288" on="1"/>
      </contour>
    </TTGlyph>
    <TTGlyph name="circumflex" xMin="90" yMin="512" xMax="358" yMax="650">
      <component glyphName="uni0302" x="0" y="0" flags="0x400"/>
    </TTGlyph>
    <TTGlyph name="club" xMin="64" yMin="64" xMax="384" yMax="512">
      <contour>
        <pt x="384" y="384" on="1"/>
        <pt x="384" y="192" on="1"/>
        <pt x="320" y="192" on="1"/>
        <pt x="320" y="256" on="1"/>
        <pt x="256" y="256" on="1"/>
        <pt x="256" y="128" on="1"/>
        <pt x="384" y="128" on="1"/>
        <pt x="384" y="64" on="1"/>
        <pt x="64" y="64" on="1"/>
        <pt x="64" y="128" on="1"/>
        <pt x="192" y="128" on="1"/>
        <pt x="192" y="256" on="1"/>
        <pt x="128" y="256" on="1"/>
        <pt x="128" y="192" on="1"/>
        <pt x="64" y="192" on="1"/>
        <pt x="64" y="384" on="1"/>
        <pt x="128" y="384" on="1"/>
        <pt x="128" y="320" on="1"/>
        <pt x="192" y="320" on="1"/>
        <pt x="192" y="448" on="1"/>
        <pt x="128" y="448" on="1"/>
        <pt x="128" y="512" on="1"/>
        <pt x="320" y="512" on="1"/>
        <pt x="320" y="448" on="1"/>
        <pt x="256" y="448" on="1"/>
        <pt x="256" y="320" on="1"/>
        <pt x="320" y="320" on="1"/>
        <pt x="320" y="384" on="1"/>
      </contour>
    </TTGlyph>
    <TTGlyph name="colon" xMin="133" yMin="-10" xMax="251" yMax="458">
      <contour>
        <pt x="167" y="-10" on="0"/>
        <pt x="133" y="21" on="0"/>
        <pt x="133" y="49" on="1"/>
        <pt x="133" y="76" on="0"/>
        <pt x="167" y="108" on="0"/>
        <pt x="192" y="108" on="1"/>
        <pt x="217" y="108" on="0"/>
        <pt x="251" y="76" on="0"/>
        <pt x="251" y="49" on="1"/>
        <pt x="251" y="21" on="0"/>
        <pt x="217" y="-10" on="0"/>
        <pt x="192" y="-10" on="1"/>
      </contour>
      <contour>
        <pt x="133" y="426" on="0"/>
        <pt x="167" y="458" on="0"/>
        <pt x="192" y="458" on="1"/>
        <pt x="217" y="458" on="0"/>
        <pt x="251" y="426" on="0"/>
        <pt x="251" y="399" on="1"/>
        <pt x="251" y="371" on="0"/>
        <pt x="217" y="340" on="0"/>
        <pt x="192" y="340" on="1"/>
        <pt x="167" y="340" on="0"/>
        <pt x="133" y="371" on="0"/>
        <pt x="133" y="399" on="1"/>
      </contour>
    </TTGlyph>
    <TTGlyph name="colon.alt" xMin="165" yMin="54" xMax="283" yMax="522">
      <component glyphName="colon" x="32" y="64" flags="0x404"/>
    </TTGlyph>
    <TTGlyph name="colonmonetary" xMin="62" yMin="-128" xMax="381" yMax="704">
      <contour>
        <pt x="156" y="16" on="1"/>
        <pt x="106" y="44" on="0"/>
        <pt x="62" y="174" on="0"/>
        <pt x="62" y="287" on="1"/>
        <pt x="62" y="419" on="0"/>
        <pt x="124" y="554" on="0"/>
        <pt x="195" y="574" on="1"/>
        <pt x="204" y="704" on="1"/>
        <pt x="257" y="704" on="1"/>
        <pt x="248" y="582" on="1"/>
        <pt x="256" y="583" on="0"/>
        <pt x="273" y="583" on="1"/>
        <pt x="292" y="583" on="1"/>
        <pt x="301" y="704" on="1"/>
        <pt x="354" y="704" on="1"/>
        <pt x="345" y="577" on="1"/>
        <pt x="353" y="576" on="0"/>
        <pt x="371" y="572" on="0"/>
        <pt x="376" y="571" on="1"/>
        <pt x="365" y="519" on="1"/>
        <pt x="357" y="521" on="0"/>
        <pt x="341" y="523" on="1"/>
        <pt x="307" y="48" on="1"/>
        <pt x="337" y="50" on="0"/>
        <pt x="370" y="57" on="1"/>
        <pt x="381" y="5" on="1"/>
        <pt x="340" y="-5" on="0"/>
        <pt x="303" y="-8" on="1"/>
        <pt x="295" y="-128" on="1"/>
        <pt x="242" y="-128" on="1"/>
        <pt x="250" y="-8" on="1"/>
        <pt x="220" y="-6" on="0"/>
        <pt x="207" y="-3" on="1"/>
        <pt x="198" y="-128" on="1"/>
        <pt x="145" y="-128" on="1"/>
      </contour>
      <contour>
        <pt x="131" y="211" on="0"/>
        <pt x="143" y="121" on="0"/>
        <pt x="161" y="94" on="1"/>
        <pt x="190" y="508" on="1"/>
        <pt x="154" y="487" on="0"/>
        <pt x="131" y="387" on="0"/>
        <pt x="131" y="287" on="1"/>
      </contour>
      <contour>
        <pt x="229" y="50" on="0"/>
        <pt x="254" y="48" on="1"/>
        <pt x="288" y="527" on="1"/>
        <pt x="278" y="527" on="1"/>
        <pt x="266" y="527" on="0"/>
        <pt x="244" y="525" on="1"/>
        <pt x="211" y="57" on="1"/>
      </contour>
    </TTGlyph>
    <TTGlyph name="comma" xMin="133" yMin="-130" xMax="254" yMax="108">
      <contour>
        <pt x="160" y="-72" on="0"/>
        <pt x="189" y="-34" on="0"/>
        <pt x="192" y="-10" on="1"/>
        <pt x="164" y="-9" on="0"/>
        <pt x="133" y="24" on="0"/>
        <pt x="133" y="49" on="1"/>
        <pt x="133" y="76" on="0"/>
        <pt x="166" y="108" on="0"/>
        <pt x="190" y="108" on="1"/>
        <pt x="218" y="108" on="0"/>
        <pt x="254" y="68" on="0"/>
        <pt x="254" y="27" on="1"/>
        <pt x="254" y="-61" on="0"/>
        <pt x="170" y="-130" on="1"/>
        <pt x="136" y="-93" on="1"/>
      </contour>
    </TTGlyph>
    <TTGlyph name="copyright" xMin="10" yMin="13" xMax="438" yMax="499">
      <contour>
        <pt x="169" y="13" on="0"/>
        <pt x="71" y="69" on="0"/>
        <pt x="10" y="179" on="0"/>
        <pt x="10" y="256" on="1"/>
        <pt x="10" y="334" on="0"/>
        <pt x="70" y="444" on="0"/>
        <pt x="168" y="499" on="0"/>
        <pt x="224" y="499" on="1"/>
        <pt x="280" y="499" on="0"/>
        <pt x="378" y="444" on="0"/>
        <pt x="438" y="334" on="0"/>
        <pt x="438" y="256" on="1"/>
        <pt x="438" y="179" on="0"/>
        <pt x="377" y="69" on="0"/>
        <pt x="279" y="13" on="0"/>
        <pt x="224" y="13" on="1"/>
      </contour>
      <contour>
        <pt x="58" y="160" on="0"/>
        <pt x="148" y="57" on="0"/>
        <pt x="224" y="57" on="1"/>
        <pt x="300" y="57" on="0"/>
        <pt x="390" y="160" on="0"/>
        <pt x="390" y="256" on="1"/>
        <pt x="390" y="352" on="0"/>
        <pt x="300" y="455" on="0"/>
        <pt x="224" y="455" on="1"/>
        <pt x="148" y="455" on="0"/>
        <pt x="58" y="352" on="0"/>
        <pt x="58" y="256" on="1"/>
      </contour>
      <contour>
        <pt x="114" y="323" on="0"/>
        <pt x="174" y="397" on="0"/>
        <pt x="234" y="397" on="1"/>
        <pt x="252" y="397" on="0"/>
        <pt x="294" y="389" on="0"/>
        <pt x="311" y="382" on="1"/>
        <pt x="298" y="344" on="1"/>
        <pt x="269" y="355" on="0"/>
        <pt x="237" y="355" on="1"/>
        <pt x="198" y="355" on="0"/>
        <pt x="164" y="310" on="0"/>
        <pt x="164" y="259" on="1"/>
        <pt x="164" y="207" on="0"/>
        <pt x="199" y="162" on="0"/>
        <pt x="237" y="162" on="1"/>
        <pt x="263" y="162" on="0"/>
        <pt x="300" y="172" on="1"/>
        <pt x="311" y="135" on="1"/>
        <pt x="273" y="120" on="0"/>
        <pt x="234" y="120" on="1"/>
        <pt x="174" y="120" on="0"/>
        <pt x="114" y="192" on="0"/>
        <pt x="114" y="258" on="1"/>
      </contour>
    </TTGlyph>
    <TTGlyph name="currency" xMin="46" yMin="59" xMax="402" yMax="517">
      <contour>
        <pt x="265" y="464" on="0"/>
        <pt x="304" y="446" on="1"/>
        <pt x="356" y="517" on="1"/>
        <pt x="402" y="483" on="1"/>
        <pt x="350" y="412" on="1"/>
        <pt x="374" y="388" on="0"/>
        <pt x="400" y="323" on="0"/>
        <pt x="400" y="288" on="1"/>
        <pt x="400" y="253" on="0"/>
        <pt x="374" y="188" on="0"/>
        <pt x="350" y="164" on="1"/>
        <pt x="402" y="93" on="1"/>
        <pt x="356" y="59" on="1"/>
        <pt x="304" y="130" on="1"/>
        <pt x="265" y="112" on="0"/>
        <pt x="224" y="112" on="1"/>
        <pt x="183" y="112" on="0"/>
        <pt x="144" y="130" on="1"/>
        <pt x="92" y="59" on="1"/>
        <pt x="46" y="93" on="1"/>
        <pt x="98" y="164" on="1"/>
        <pt x="74" y="188" on="0"/>
        <pt x="48" y="253" on="0"/>
        <pt x="48" y="288" on="1"/>
        <pt x="48" y="323" on="0"/>
        <pt x="74" y="388" on="0"/>
        <pt x="98" y="412" on="1"/>
        <pt x="46" y="483" on="1"/>
        <pt x="92" y="517" on="1"/>
        <pt x="144" y="446" on="1"/>
        <pt x="183" y="464" on="0"/>
        <pt x="224" y="464" on="1"/>
      </contour>
      <contour>
        <pt x="107" y="238" on="0"/>
        <pt x="174" y="168" on="0"/>
        <pt x="224" y="168" on="1"/>
        <pt x="274" y="168" on="0"/>
        <pt x="341" y="238" on="0"/>
        <pt x="341" y="288" on="1"/>
        <pt x="341" y="338" on="0"/>
        <pt x="274" y="408" on="0"/>
        <pt x="224" y="408" on="1"/>
        <pt x="174" y="408" on="0"/>
        <pt x="107" y="338" on="0"/>
        <pt x="107" y="288" on="1"/>
      </contour>
    </TTGlyph>
    <TTGlyph name="d" xMin="46" yMin="-8" xMax="388" yMax="640">
      <contour>
        <pt x="328" y="39" on="1"/>
        <pt x="283" y="-8" on="0"/>
        <pt x="212" y="-8" on="1"/>
        <pt x="149" y="-8" on="0"/>
        <pt x="106" y="33" on="1"/>
        <pt x="46" y="93" on="0"/>
        <pt x="46" y="224" on="1"/>
        <pt x="46" y="287" on="0"/>
        <pt x="76" y="385" on="0"/>
        <pt x="104" y="413" on="1"/>
        <pt x="147" y="456" on="0"/>
        <pt x="212" y="456" on="1"/>
        <pt x="277" y="456" on="0"/>
        <pt x="323" y="415" on="1"/>
        <pt x="323" y="640" on="1"/>
        <pt x="386" y="640" on="1"/>
        <pt x="386" y="64" on="1"/>
        <pt x="388" y="0" on="1"/>
        <pt x="333" y="0" on="1"/>
      </contour>
      <contour>
        <pt x="114" y="108" on="0"/>
        <pt x="151" y="70" on="1"/>
        <pt x="175" y="47" on="0"/>
        <pt x="218" y="47" on="1"/>
        <pt x="284" y="47" on="0"/>
        <pt x="323" y="92" on="1"/>
        <pt x="323" y="356" on="1"/>
        <pt x="284" y="401" on="0"/>
        <pt x="218" y="401" on="1"/>
        <pt x="174" y="401" on="0"/>
        <pt x="150" y="377" on="1"/>
        <pt x="131" y="358" on="0"/>
        <pt x="114" y="285" on="0"/>
        <pt x="114" y="224" on="1"/>
      </contour>
    </TTGlyph>
    <TTGlyph name="dagger" xMin="66" yMin="0" xMax="382" yMax="640">
      <contour>
        <pt x="253" y="454" on="1"/>
        <pt x="382" y="454" on="1"/>
        <pt x="382" y="400" on="1"/>
        <pt x="253" y="400" on="1"/>
        <pt x="253" y="0" on="1"/>
        <pt x="195" y="0" on="1"/>
        <pt x="195" y="400" on="1"/>
        <pt x="66" y="400" on="1"/>
        <pt x="66" y="454" on="1"/>
        <pt x="195" y="454" on="1"/>
        <pt x="195" y="640" on="1"/>
        <pt x="253" y="640" on="1"/>
      </contour>
    </TTGlyph>
    <TTGlyph name="daggerdbl" xMin="66" yMin="0" xMax="382" yMax="640">
      <contour>
        <pt x="253" y="454" on="1"/>
        <pt x="382" y="454" on="1"/>
        <pt x="382" y="398" on="1"/>
        <pt x="253" y="398" on="1"/>
        <pt x="253" y="242" on="1"/>
        <pt x="382" y="242" on="1"/>
        <pt x="382" y="186" on="1"/>
        <pt x="253" y="186" on="1"/>
        <pt x="253" y="0" on="1"/>
        <pt x="195" y="0" on="1"/>
        <pt x="195" y="186" on="1"/>
        <pt x="66" y="186" on="1"/>
        <pt x="66" y="242" on="1"/>
        <pt x="195" y="242" on="1"/>
        <pt x="195" y="398" on="1"/>
        <pt x="66" y="398" on="1"/>
        <pt x="66" y="454" on="1"/>
        <pt x="195" y="454" on="1"/>
        <pt x="195" y="640" on="1"/>
        <pt x="253" y="640" on="1"/>
      </contour>
    </TTGlyph>
    <TTGlyph name="dcaron" xMin="9" yMin="-8" xMax="475" yMax="640">
      <component glyphName="d" x="-37" y="0" flags="0x400"/>
      <component glyphName="uni030C.alt" x="44" y="0" flags="0x400"/>
    </TTGlyph>
    <TTGlyph name="dcroat" xMin="46" yMin="-8" xMax="436" yMax="640">
      <component glyphName="d" x="0" y="0" flags="0x400"/>
      <component glyphName="uni0335" x="86" y="310" flags="0x404"/>
    </TTGlyph>
    <TTGlyph name="degree" xMin="57" yMin="377" xMax="327" yMax="647">
      <contour>
        <pt x="230" y="647" on="0"/>
        <pt x="292" y="610" on="0"/>
        <pt x="327" y="548" on="0"/>
        <pt x="327" y="512" on="1"/>
        <pt x="327" y="476" on="0"/>
        <pt x="292" y="414" on="0"/>
        <pt x="230" y="377" on="0"/>
        <pt x="192" y="377" on="1"/>
        <pt x="154" y="377" on="0"/>
        <pt x="92" y="414" on="0"/>
        <pt x="57" y="476" on="0"/>
        <pt x="57" y="512" on="1"/>
        <pt x="57" y="548" on="0"/>
        <pt x="92" y="610" on="0"/>
        <pt x="154" y="647" on="0"/>
        <pt x="192" y="647" on="1"/>
      </contour>
      <contour>
        <pt x="114" y="476" on="0"/>
        <pt x="155" y="428" on="0"/>
        <pt x="192" y="428" on="1"/>
        <pt x="229" y="428" on="0"/>
        <pt x="270" y="476" on="0"/>
        <pt x="270" y="512" on="1"/>
        <pt x="270" y="548" on="0"/>
        <pt x="229" y="596" on="0"/>
        <pt x="192" y="596" on="1"/>
        <pt x="155" y="596" on="0"/>
        <pt x="114" y="548" on="0"/>
        <pt x="114" y="512" on="1"/>
      </contour>
    </TTGlyph>
    <TTGlyph name="delta" xMin="52" yMin="-13" xMax="396" yMax="642">
      <contour>
        <pt x="172" y="-13" on="0"/>
        <pt x="95" y="35" on="0"/>
        <pt x="52" y="122" on="0"/>
        <pt x="52" y="177" on="1"/>
        <pt x="52" y="248" on="0"/>
        <pt x="123" y="359" on="0"/>
        <pt x="190" y="397" on="1"/>
        <pt x="158" y="422" on="0"/>
        <pt x="122" y="478" on="0"/>
        <pt x="122" y="519" on="1"/>
        <pt x="122" y="575" on="0"/>
        <pt x="205" y="642" on="0"/>
        <pt x="279" y="642" on="1"/>
        <pt x="325" y="642" on="0"/>
        <pt x="381" y="635" on="1"/>
        <pt x="376" y="581" on="1"/>
        <pt x="319" y="586" on="0"/>
        <pt x="281" y="586" on="1"/>
        <pt x="235" y="586" on="0"/>
        <pt x="187" y="550" on="0"/>
        <pt x="187" y="517" on="1"/>
        <pt x="187" y="485" on="0"/>
        <pt x="214" y="458" on="1"/>
        <pt x="220" y="452" on="0"/>
        <pt x="257" y="422" on="1"/>
        <pt x="303" y="387" on="0"/>
        <pt x="321" y="368" on="1"/>
        <pt x="396" y="295" on="0"/>
        <pt x="396" y="192" on="1"/>
        <pt x="396" y="100" on="0"/>
        <pt x="300" y="-13" on="0"/>
        <pt x="221" y="-13" on="1"/>
      </contour>
      <contour>
        <pt x="118" y="115" on="0"/>
        <pt x="172" y="43" on="0"/>
        <pt x="221" y="43" on="1"/>
        <pt x="276" y="43" on="0"/>
        <pt x="331" y="118" on="0"/>
        <pt x="331" y="192" on="1"/>
        <pt x="331" y="254" on="0"/>
        <pt x="281" y="329" on="0"/>
        <pt x="235" y="364" on="1"/>
        <pt x="169" y="325" on="0"/>
        <pt x="118" y="237" on="0"/>
        <pt x="118" y="176" on="1"/>
      </contour>
    </TTGlyph>
    <TTGlyph name="diamond" xMin="64" yMin="80" xMax="384" yMax="456">
      <contour>
        <pt x="202" y="456" on="1"/>
        <pt x="246" y="456" on="1"/>
        <pt x="384" y="284" on="1"/>
        <pt x="384" y="252" on="1"/>
        <pt x="246" y="80" on="1"/>
        <pt x="202" y="80" on="1"/>
        <pt x="64" y="252" on="1"/>
        <pt x="64" y="284" on="1"/>
      </contour>
    </TTGlyph>
    <TTGlyph name="dieresis" xMin="83" yMin="539" xMax="365" yMax="646">
      <component glyphName="uni0308" x="0" y="0" flags="0x400"/>
    </TTGlyph>
    <TTGlyph name="dieresistonos" xMin="45" yMin="512" xMax="403" yMax="704">
      <contour>
        <pt x="269" y="704" on="1"/>
        <pt x="241" y="512" on="1"/>
        <pt x="186" y="512" on="1"/>
        <pt x="198" y="704" on="1"/>
      </contour>
      <contour>
        <pt x="45" y="617" on="0"/>
        <pt x="75" y="646" on="0"/>
        <pt x="96" y="646" on="1"/>
        <pt x="118" y="646" on="0"/>
        <pt x="148" y="617" on="0"/>
        <pt x="148" y="593" on="1"/>
        <pt x="148" y="568" on="0"/>
        <pt x="118" y="539" on="0"/>
        <pt x="96" y="539" on="1"/>
        <pt x="75" y="539" on="0"/>
        <pt x="45" y="568" on="0"/>
        <pt x="45" y="593" on="1"/>
      </contour>
      <contour>
        <pt x="300" y="617" on="0"/>
        <pt x="330" y="646" on="0"/>
        <pt x="352" y="646" on="1"/>
        <pt x="373" y="646" on="0"/>
        <pt x="403" y="617" on="0"/>
        <pt x="403" y="593" on="1"/>
        <pt x="403" y="568" on="0"/>
        <pt x="373" y="539" on="0"/>
        <pt x="352" y="539" on="1"/>
        <pt x="330" y="539" on="0"/>
        <pt x="300" y="568" on="0"/>
        <pt x="300" y="593" on="1"/>
      </contour>
    </TTGlyph>
    <TTGlyph name="divide" xMin="24" yMin="67" xMax="424" yMax="509">
      <contour>
        <pt x="24" y="315" on="1"/>
        <pt x="424" y="315" on="1"/>
        <pt x="424" y="261" on="1"/>
        <pt x="24" y="261" on="1"/>
      </contour>
      <contour>
        <pt x="165" y="153" on="0"/>
        <pt x="199" y="185" on="0"/>
        <pt x="224" y="185" on="1"/>
        <pt x="249" y="185" on="0"/>
        <pt x="283" y="153" on="0"/>
        <pt x="283" y="126" on="1"/>
        <pt x="283" y="98" on="0"/>
        <pt x="249" y="67" on="0"/>
        <pt x="224" y="67" on="1"/>
        <pt x="199" y="67" on="0"/>
        <pt x="165" y="98" on="0"/>
        <pt x="165" y="126" on="1"/>
      </contour>
      <contour>
        <pt x="165" y="477" on="0"/>
        <pt x="199" y="509" on="0"/>
        <pt x="224" y="509" on="1"/>
        <pt x="249" y="509" on="0"/>
        <pt x="283" y="477" on="0"/>
        <pt x="283" y="450" on="1"/>
        <pt x="283" y="422" on="0"/>
        <pt x="249" y="391" on="0"/>
        <pt x="224" y="391" on="1"/>
        <pt x="199" y="391" on="0"/>
        <pt x="165" y="422" on="0"/>
        <pt x="165" y="450" on="1"/>
      </contour>
    </TTGlyph>
    <TTGlyph name="dkshade" xMin="0" yMin="-192" xMax="384" yMax="832">
      <contour>
        <pt x="64" y="-128" on="1"/>
        <pt x="0" y="-128" on="1"/>
        <pt x="0" y="64" on="1"/>
        <pt x="64" y="64" on="1"/>
        <pt x="64" y="128" on="1"/>
        <pt x="0" y="128" on="1"/>
        <pt x="0" y="320" on="1"/>
        <pt x="64" y="320" on="1"/>
        <pt x="64" y="384" on="1"/>
        <pt x="0" y="384" on="1"/>
        <pt x="0" y="576" on="1"/>
        <pt x="64" y="576" on="1"/>
        <pt x="64" y="640" on="1"/>
        <pt x="0" y="640" on="1"/>
        <pt x="0" y="832" on="1"/>
        <pt x="384" y="832" on="1"/>
        <pt x="384" y="768" on="1"/>
        <pt x="320" y="768" on="1"/>
        <pt x="320" y="704" on="1"/>
        <pt x="384" y="704" on="1"/>
        <pt x="384" y="512" on="1"/>
        <pt x="320" y="512" on="1"/>
        <pt x="320" y="448" on="1"/>
        <pt x="384" y="448" on="1"/>
        <pt x="384" y="256" on="1"/>
        <pt x="320" y="256" on="1"/>
        <pt x="320" y="192" on="1"/>
        <pt x="384" y="192" on="1"/>
        <pt x="384" y="0" on="1"/>
        <pt x="320" y="0" on="1"/>
        <pt x="320" y="-64" on="1"/>
        <pt x="384" y="-64" on="1"/>
        <pt x="384" y="-192" on="1"/>
        <pt x="320" y="-192" on="1"/>
        <pt x="320" y="-128" on="1"/>
        <pt x="256" y="-128" on="1"/>
        <pt x="256" y="-192" on="1"/>
        <pt x="192" y="-192" on="1"/>
        <pt x="192" y="-128" on="1"/>
        <pt x="128" y="-128" on="1"/>
        <pt x="128" y="-192" on="1"/>
        <pt x="64" y="-192" on="1"/>
      </contour>
      <contour>
        <pt x="128" y="-64" on="1"/>
        <pt x="128" y="0" on="1"/>
        <pt x="64" y="0" on="1"/>
        <pt x="64" y="-64" on="1"/>
      </contour>
      <contour>
        <pt x="128" y="192" on="1"/>
        <pt x="128" y="256" on="1"/>
        <pt x="64" y="256" on="1"/>
        <pt x="64" y="192" on="1"/>
      </contour>
      <contour>
        <pt x="128" y="448" on="1"/>
        <pt x="128" y="512" on="1"/>
        <pt x="64" y="512" on="1"/>
        <pt x="64" y="448" on="1"/>
      </contour>
      <contour>
        <pt x="128" y="704" on="1"/>
        <pt x="128" y="768" on="1"/>
        <pt x="64" y="768" on="1"/>
        <pt x="64" y="704" on="1"/>
      </contour>
      <contour>
        <pt x="192" y="64" on="1"/>
        <pt x="192" y="128" on="1"/>
        <pt x="128" y="128" on="1"/>
        <pt x="128" y="64" on="1"/>
      </contour>
      <contour>
        <pt x="192" y="320" on="1"/>
        <pt x="192" y="384" on="1"/>
        <pt x="128" y="384" on="1"/>
        <pt x="128" y="320" on="1"/>
      </contour>
      <contour>
        <pt x="192" y="576" on="1"/>
        <pt x="192" y="640" on="1"/>
        <pt x="128" y="640" on="1"/>
        <pt x="128" y="576" on="1"/>
      </contour>
      <contour>
        <pt x="256" y="-64" on="1"/>
        <pt x="256" y="0" on="1"/>
        <pt x="192" y="0" on="1"/>
        <pt x="192" y="-64" on="1"/>
      </contour>
      <contour>
        <pt x="256" y="192" on="1"/>
        <pt x="256" y="256" on="1"/>
        <pt x="192" y="256" on="1"/>
        <pt x="192" y="192" on="1"/>
      </contour>
      <contour>
        <pt x="256" y="448" on="1"/>
        <pt x="256" y="512" on="1"/>
        <pt x="192" y="512" on="1"/>
        <pt x="192" y="448" on="1"/>
      </contour>
      <contour>
        <pt x="256" y="704" on="1"/>
        <pt x="256" y="768" on="1"/>
        <pt x="192" y="768" on="1"/>
        <pt x="192" y="704" on="1"/>
      </contour>
      <contour>
        <pt x="320" y="64" on="1"/>
        <pt x="320" y="128" on="1"/>
        <pt x="256" y="128" on="1"/>
        <pt x="256" y="64" on="1"/>
      </contour>
      <contour>
        <pt x="320" y="320" on="1"/>
        <pt x="320" y="384" on="1"/>
        <pt x="256" y="384" on="1"/>
        <pt x="256" y="320" on="1"/>
      </contour>
      <contour>
        <pt x="320" y="576" on="1"/>
        <pt x="320" y="640" on="1"/>
        <pt x="256" y="640" on="1"/>
        <pt x="256" y="576" on="1"/>
      </contour>
    </TTGlyph>
    <TTGlyph name="dnblock" xMin="-5" yMin="-197" xMax="453" yMax="325">
      <contour>
        <pt x="-5" y="-197" on="1"/>
        <pt x="-5" y="325" on="1"/>
        <pt x="453" y="325" on="1"/>
        <pt x="453" y="-197" on="1"/>
      </contour>
    </TTGlyph>
    <TTGlyph name="dollar" xMin="55" yMin="-128" xMax="388" yMax="704">
      <contour>
        <pt x="195" y="-8" on="1"/>
        <pt x="121" y="-6" on="0"/>
        <pt x="55" y="18" on="1"/>
        <pt x="71" y="72" on="1"/>
        <pt x="138" y="48" on="0"/>
        <pt x="200" y="48" on="1"/>
        <pt x="268" y="48" on="0"/>
        <pt x="323" y="92" on="0"/>
        <pt x="323" y="132" on="1"/>
        <pt x="323" y="161" on="0"/>
        <pt x="294" y="199" on="0"/>
        <pt x="251" y="223" on="0"/>
        <pt x="214" y="239" on="1"/>
        <pt x="164" y="260" on="0"/>
        <pt x="105" y="297" on="0"/>
        <pt x="62" y="366" on="0"/>
        <pt x="62" y="421" on="1"/>
        <pt x="62" y="482" on="0"/>
        <pt x="130" y="565" on="0"/>
        <pt x="195" y="578" on="1"/>
        <pt x="195" y="704" on="1"/>
        <pt x="253" y="704" on="1"/>
        <pt x="253" y="584" on="1"/>
        <pt x="255" y="584" on="1"/>
        <pt x="284" y="584" on="0"/>
        <pt x="348" y="574" on="0"/>
        <pt x="372" y="566" on="1"/>
        <pt x="359" y="512" on="1"/>
        <pt x="305" y="528" on="0"/>
        <pt x="255" y="528" on="1"/>
        <pt x="184" y="528" on="0"/>
        <pt x="127" y="473" on="0"/>
        <pt x="127" y="425" on="1"/>
        <pt x="127" y="388" on="0"/>
        <pt x="160" y="339" on="0"/>
        <pt x="210" y="310" on="0"/>
        <pt x="251" y="292" on="1"/>
        <pt x="296" y="273" on="0"/>
        <pt x="350" y="239" on="0"/>
        <pt x="388" y="180" on="0"/>
        <pt x="388" y="135" on="1"/>
        <pt x="388" y="75" on="0"/>
        <pt x="318" y="5" on="0"/>
        <pt x="253" y="-4" on="1"/>
        <pt x="253" y="-128" on="1"/>
        <pt x="195" y="-128" on="1"/>
      </contour>
    </TTGlyph>
    <TTGlyph name="dong" xMin="36" yMin="-123" xMax="436" yMax="640">
      <component glyphName="dcroat" x="0" y="0" flags="0x400"/>
      <component glyphName="minus" x="0" y="-384" flags="0x404"/>
    </TTGlyph>
    <TTGlyph name="dotaccent" xMin="167" yMin="535" xMax="281" yMax="648">
      <component glyphName="uni0307" x="0" y="0" flags="0x400"/>
    </TTGlyph>
    <TTGlyph name="dotbelowcomb" xMin="167" yMin="-175" xMax="281" yMax="-62">
      <component glyphName="uni0307" x="0" y="-710" flags="0x404"/>
    </TTGlyph>
    <TTGlyph name="dotlessi" xMin="77" yMin="0" xMax="263" yMax="448">
      <contour>
        <pt x="201" y="390" on="1"/>
        <pt x="77" y="398" on="1"/>
        <pt x="77" y="448" on="1"/>
        <pt x="263" y="448" on="1"/>
        <pt x="263" y="0" on="1"/>
        <pt x="201" y="0" on="1"/>
      </contour>
    </TTGlyph>
    <TTGlyph name="dotlessi.cv02" xMin="193" yMin="0" xMax="255" yMax="448">
      <contour>
        <pt x="193" y="448" on="1"/>
        <pt x="255" y="448" on="1"/>
        <pt x="255" y="0" on="1"/>
        <pt x="193" y="0" on="1"/>
      </contour>
    </TTGlyph>
    <TTGlyph name="dotmath" xMin="165" yMin="229" xMax="283" yMax="347">
      <component glyphName="period" x="32" y="239" flags="0x404"/>
    </TTGlyph>
    <TTGlyph name="e" xMin="52" yMin="-13" xMax="394" yMax="461">
      <contour>
        <pt x="52" y="331" on="0"/>
        <pt x="134" y="461" on="0"/>
        <pt x="224" y="461" on="1"/>
        <pt x="305" y="461" on="0"/>
        <pt x="394" y="344" on="0"/>
        <pt x="394" y="238" on="1"/>
        <pt x="394" y="217" on="0"/>
        <pt x="393" y="206" on="1"/>
        <pt x="119" y="206" on="1"/>
        <pt x="121" y="119" on="0"/>
        <pt x="179" y="42" on="0"/>
        <pt x="248" y="42" on="1"/>
        <pt x="296" y="42" on="0"/>
        <pt x="362" y="63" on="1"/>
        <pt x="374" y="14" on="1"/>
        <pt x="310" y="-13" on="0"/>
        <pt x="242" y="-13" on="1"/>
        <pt x="140" y="-13" on="0"/>
        <pt x="52" y="116" on="0"/>
        <pt x="52" y="224" on="1"/>
      </contour>
      <contour>
        <pt x="328" y="261" on="1"/>
        <pt x="324" y="405" on="0"/>
        <pt x="224" y="405" on="1"/>
        <pt x="174" y="405" on="0"/>
        <pt x="124" y="337" on="0"/>
        <pt x="120" y="261" on="1"/>
      </contour>
    </TTGlyph>
    <TTGlyph name="eacute" xMin="52" yMin="-13" xMax="394" yMax="704">
      <component glyphName="e" x="0" y="0" flags="0x400"/>
      <component glyphName="acutecomb" x="0" y="0" flags="0x400"/>
    </TTGlyph>
    <TTGlyph name="ebreve" xMin="52" yMin="-13" xMax="394" yMax="642">
      <component glyphName="e" x="0" y="0" flags="0x400"/>
      <component glyphName="uni0306" x="0" y="0" flags="0x400"/>
    </TTGlyph>
    <TTGlyph name="ecaron" xMin="52" yMin="-13" xMax="394" yMax="647">
      <component glyphName="e" x="0" y="0" flags="0x400"/>
      <component glyphName="uni030C" x="0" y="0" flags="0x400"/>
    </TTGlyph>
    <TTGlyph name="ecircumflex" xMin="52" yMin="-13" xMax="394" yMax="650">
      <component glyphName="e" x="0" y="0" flags="0x400"/>
      <component glyphName="uni0302" x="0" y="0" flags="0x400"/>
    </TTGlyph>
    <TTGlyph name="edieresis" xMin="52" yMin="-13" xMax="394" yMax="646">
      <component glyphName="e" x="0" y="0" flags="0x400"/>
      <component glyphName="uni0308" x="0" y="0" flags="0x400"/>
    </TTGlyph>
    <TTGlyph name="edotaccent" xMin="52" yMin="-13" xMax="394" yMax="648">
      <component glyphName="e" x="0" y="0" flags="0x400"/>
      <component glyphName="uni0307" x="0" y="0" flags="0x400"/>
    </TTGlyph>
    <TTGlyph name="egrave" xMin="52" yMin="-13" xMax="394" yMax="704">
      <component glyphName="e" x="0" y="0" flags="0x400"/>
      <component glyphName="gravecomb" x="0" y="0" flags="0x400"/>
    </TTGlyph>
    <TTGlyph name="eight" xMin="36" yMin="-11" xMax="413" yMax="586">
      <contour>
        <pt x="135" y="-11" on="0"/>
        <pt x="36" y="80" on="0"/>
        <pt x="36" y="150" on="1"/>
        <pt x="36" y="198" on="0"/>
        <pt x="89" y="277" on="0"/>
        <pt x="134" y="306" on="1"/>
        <pt x="94" y="336" on="0"/>
        <pt x="60" y="400" on="0"/>
        <pt x="60" y="437" on="1"/>
        <pt x="60" y="479" on="0"/>
        <pt x="103" y="547" on="0"/>
        <pt x="178" y="586" on="0"/>
        <pt x="224" y="586" on="1"/>
        <pt x="296" y="586" on="0"/>
        <pt x="388" y="500" on="0"/>
        <pt x="388" y="429" on="1"/>
        <pt x="388" y="388" on="0"/>
        <pt x="347" y="309" on="0"/>
        <pt x="304" y="277" on="1"/>
        <pt x="360" y="247" on="0"/>
        <pt x="413" y="182" on="0"/>
        <pt x="413" y="135" on="1"/>
        <pt x="413" y="97" on="0"/>
        <pt x="368" y="30" on="0"/>
        <pt x="282" y="-11" on="0"/>
        <pt x="224" y="-11" on="1"/>
      </contour>
      <contour>
        <pt x="100" y="105" on="0"/>
        <pt x="162" y="45" on="0"/>
        <pt x="224" y="45" on="1"/>
        <pt x="286" y="45" on="0"/>
        <pt x="348" y="100" on="0"/>
        <pt x="348" y="136" on="1"/>
        <pt x="348" y="158" on="0"/>
        <pt x="327" y="192" on="0"/>
        <pt x="270" y="231" on="0"/>
        <pt x="213" y="259" on="1"/>
        <pt x="199" y="266" on="0"/>
        <pt x="178" y="278" on="1"/>
        <pt x="133" y="252" on="0"/>
        <pt x="100" y="189" on="0"/>
        <pt x="100" y="151" on="1"/>
      </contour>
      <contour>
        <pt x="125" y="412" on="0"/>
        <pt x="144" y="372" on="0"/>
        <pt x="201" y="327" on="0"/>
        <pt x="258" y="300" on="1"/>
        <pt x="323" y="355" on="0"/>
        <pt x="323" y="432" on="1"/>
        <pt x="323" y="474" on="0"/>
        <pt x="273" y="530" on="0"/>
        <pt x="223" y="530" on="1"/>
        <pt x="172" y="530" on="0"/>
        <pt x="125" y="476" on="0"/>
        <pt x="125" y="437" on="1"/>
      </contour>
    </TTGlyph>
    <TTGlyph name="eight.dnom" xMin="178" yMin="-198" xMax="398" yMax="134">
      <component glyphName="uni2078" x="128" y="-512" flags="0x404"/>
    </TTGlyph>
    <TTGlyph name="eight.numr" xMin="50" yMin="314" xMax="270" yMax="646">
      <component glyphName="uni2078" x="0" y="0" flags="0x400"/>
    </TTGlyph>
    <TTGlyph name="eight.osf" xMin="36" yMin="-11" xMax="413" yMax="586">
      <component glyphName="eight" x="0" y="0" flags="0x400"/>
    </TTGlyph>
    <TTGlyph name="eight_fraction_nine" xMin="42" yMin="-198" xMax="405" yMax="646">
      <component glyphName="eight.numr" x="0" y="0" flags="0x400"/>
      <component glyphName="fraction.alt" x="0" y="0" flags="0x400"/>
      <component glyphName="nine.dnom" x="0" y="0" flags="0x400"/>
    </TTGlyph>
    <TTGlyph name="ellipsis" xMin="16" yMin="-10" xMax="432" yMax="108">
      <component glyphName="period" x="-117" y="0" flags="0x400"/>
      <component glyphName="period" x="32" y="0" flags="0x400"/>
      <component glyphName="period" x="181" y="0" flags="0x400"/>
    </TTGlyph>
    <TTGlyph name="emacron" xMin="52" yMin="-13" xMax="394" yMax="622">
      <component glyphName="e" x="0" y="0" flags="0x400"/>
      <component glyphName="uni0304" x="0" y="0" flags="0x400"/>
    </TTGlyph>
    <TTGlyph name="emdash" xMin="-10" yMin="260" xMax="458" yMax="316">
      <contour>
        <pt x="-10" y="260" on="1"/>
        <pt x="-10" y="316" on="1"/>
        <pt x="458" y="316" on="1"/>
        <pt x="458" y="260" on="1"/>
      </contour>
    </TTGlyph>
    <TTGlyph name="emptyset" xMin="-6" yMin="-12" xMax="454" yMax="588">
      <contour>
        <pt x="189" y="60" on="0"/>
        <pt x="156" y="69" on="1"/>
        <pt x="120" y="-12" on="1"/>
        <pt x="68" y="10" on="1"/>
        <pt x="104" y="91" on="1"/>
        <pt x="53" y="121" on="0"/>
        <pt x="-6" y="224" on="0"/>
        <pt x="-6" y="288" on="1"/>
        <pt x="-6" y="353" on="0"/>
        <pt x="54" y="457" on="0"/>
        <pt x="159" y="517" on="0"/>
        <pt x="224" y="517" on="1"/>
        <pt x="261" y="517" on="0"/>
        <pt x="292" y="508" on="1"/>
        <pt x="328" y="588" on="1"/>
        <pt x="380" y="566" on="1"/>
        <pt x="344" y="486" on="1"/>
        <pt x="395" y="456" on="0"/>
        <pt x="454" y="352" on="0"/>
        <pt x="454" y="288" on="1"/>
        <pt x="454" y="224" on="0"/>
        <pt x="394" y="120" on="0"/>
        <pt x="289" y="60" on="0"/>
        <pt x="224" y="60" on="1"/>
      </contour>
      <contour>
        <pt x="55" y="240" on="0"/>
        <pt x="93" y="164" on="0"/>
        <pt x="127" y="141" on="1"/>
        <pt x="269" y="458" on="1"/>
        <pt x="246" y="463" on="0"/>
        <pt x="224" y="463" on="1"/>
        <pt x="148" y="463" on="0"/>
        <pt x="55" y="367" on="0"/>
        <pt x="55" y="288" on="1"/>
      </contour>
      <contour>
        <pt x="202" y="114" on="0"/>
        <pt x="224" y="114" on="1"/>
        <pt x="300" y="114" on="0"/>
        <pt x="393" y="210" on="0"/>
        <pt x="393" y="288" on="1"/>
        <pt x="393" y="337" on="0"/>
        <pt x="355" y="413" on="0"/>
        <pt x="321" y="436" on="1"/>
        <pt x="179" y="119" on="1"/>
      </contour>
    </TTGlyph>
    <TTGlyph name="endash" xMin="89" yMin="260" xMax="359" yMax="316">
      <component glyphName="hyphen" x="0" y="0" flags="0x400"/>
    </TTGlyph>
    <TTGlyph name="eng" xMin="60" yMin="-196" xMax="386" yMax="452">
      <contour>
        <pt x="62" y="378" on="1"/>
        <pt x="60" y="448" on="1"/>
        <pt x="117" y="448" on="1"/>
        <pt x="122" y="386" on="1"/>
        <pt x="190" y="452" on="0"/>
        <pt x="260" y="452" on="1"/>
        <pt x="316" y="452" on="0"/>
        <pt x="386" y="382" on="0"/>
        <pt x="386" y="305" on="1"/>
        <pt x="386" y="-5" on="1"/>
        <pt x="386" y="-77" on="0"/>
        <pt x="334" y="-167" on="0"/>
        <pt x="268" y="-196" on="1"/>
        <pt x="244" y="-145" on="1"/>
        <pt x="289" y="-126" on="0"/>
        <pt x="323" y="-68" on="0"/>
        <pt x="323" y="-13" on="1"/>
        <pt x="323" y="303" on="1"/>
        <pt x="323" y="351" on="0"/>
        <pt x="287" y="396" on="0"/>
        <pt x="248" y="396" on="1"/>
        <pt x="191" y="396" on="0"/>
        <pt x="125" y="334" on="1"/>
        <pt x="125" y="0" on="1"/>
        <pt x="62" y="0" on="1"/>
      </contour>
    </TTGlyph>
    <TTGlyph name="eogonek" xMin="52" yMin="-197" xMax="394" yMax="461">
      <component glyphName="e" x="0" y="0" flags="0x400"/>
      <component glyphName="uni0328" x="-45" y="0" flags="0x400"/>
    </TTGlyph>
    <TTGlyph name="epsilon" xMin="54" yMin="-7" xMax="375" yMax="455">
      <contour>
        <pt x="140" y="-7" on="0"/>
        <pt x="54" y="64" on="0"/>
        <pt x="54" y="118" on="1"/>
        <pt x="54" y="159" on="0"/>
        <pt x="96" y="217" on="0"/>
        <pt x="140" y="231" on="1"/>
        <pt x="101" y="244" on="0"/>
        <pt x="60" y="294" on="0"/>
        <pt x="60" y="330" on="1"/>
        <pt x="60" y="383" on="0"/>
        <pt x="143" y="455" on="0"/>
        <pt x="233" y="455" on="1"/>
        <pt x="309" y="455" on="0"/>
        <pt x="365" y="435" on="1"/>
        <pt x="353" y="384" on="1"/>
        <pt x="301" y="399" on="0"/>
        <pt x="236" y="399" on="1"/>
        <pt x="125" y="399" on="0"/>
        <pt x="125" y="329" on="1"/>
        <pt x="125" y="297" on="0"/>
        <pt x="177" y="259" on="0"/>
        <pt x="228" y="259" on="1"/>
        <pt x="321" y="259" on="1"/>
        <pt x="321" y="205" on="1"/>
        <pt x="228" y="205" on="1"/>
        <pt x="173" y="205" on="0"/>
        <pt x="119" y="161" on="0"/>
        <pt x="119" y="128" on="1"/>
        <pt x="119" y="49" on="0"/>
        <pt x="239" y="49" on="1"/>
        <pt x="302" y="49" on="0"/>
        <pt x="364" y="65" on="1"/>
        <pt x="375" y="14" on="1"/>
        <pt x="312" y="-7" on="0"/>
        <pt x="234" y="-7" on="1"/>
      </contour>
    </TTGlyph>
    <TTGlyph name="epsilontonos" xMin="54" yMin="-7" xMax="375" yMax="704">
      <component glyphName="epsilon" x="0" y="0" flags="0x400"/>
      <component glyphName="tonos" x="0" y="0" flags="0x400"/>
    </TTGlyph>
    <TTGlyph name="equal" xMin="32" yMin="183" xMax="416" yMax="393">
      <contour>
        <pt x="32" y="183" on="1"/>
        <pt x="32" y="237" on="1"/>
        <pt x="416" y="237" on="1"/>
        <pt x="416" y="183" on="1"/>
      </contour>
      <contour>
        <pt x="32" y="393" on="1"/>
        <pt x="416" y="393" on="1"/>
        <pt x="416" y="339" on="1"/>
        <pt x="32" y="339" on="1"/>
      </contour>
    </TTGlyph>
    <TTGlyph name="equivalence" xMin="32" yMin="126" xMax="416" yMax="450">
      <contour>
        <pt x="32" y="126" on="1"/>
        <pt x="32" y="180" on="1"/>
        <pt x="416" y="180" on="1"/>
        <pt x="416" y="126" on="1"/>
      </contour>
      <contour>
        <pt x="32" y="315" on="1"/>
        <pt x="416" y="315" on="1"/>
        <pt x="416" y="261" on="1"/>
        <pt x="32" y="261" on="1"/>
      </contour>
      <contour>
        <pt x="32" y="450" on="1"/>
        <pt x="416" y="450" on="1"/>
        <pt x="416" y="396" on="1"/>
        <pt x="32" y="396" on="1"/>
      </contour>
    </TTGlyph>
    <TTGlyph name="estimated" xMin="54" yMin="-13" xMax="394" yMax="461">
      <contour>
        <pt x="292" y="-13" on="0"/>
        <pt x="238" y="-13" on="1"/>
        <pt x="140" y="-13" on="0"/>
        <pt x="54" y="122" on="0"/>
        <pt x="54" y="224" on="1"/>
        <pt x="54" y="327" on="0"/>
        <pt x="141" y="461" on="0"/>
        <pt x="229" y="461" on="1"/>
        <pt x="315" y="461" on="0"/>
        <pt x="394" y="333" on="0"/>
        <pt x="394" y="224" on="1"/>
        <pt x="394" y="196" on="1"/>
        <pt x="160" y="196" on="1"/>
        <pt x="162" y="110" on="0"/>
        <pt x="200" y="37" on="0"/>
        <pt x="249" y="37" on="1"/>
        <pt x="299" y="37" on="0"/>
        <pt x="345" y="52" on="1"/>
        <pt x="357" y="7" on="1"/>
      </contour>
      <contour>
        <pt x="288" y="247" on="1"/>
        <pt x="286" y="337" on="0"/>
        <pt x="259" y="411" on="0"/>
        <pt x="225" y="411" on="1"/>
        <pt x="189" y="411" on="0"/>
        <pt x="162" y="338" on="0"/>
        <pt x="160" y="247" on="1"/>
      </contour>
    </TTGlyph>
    <TTGlyph name="eta" xMin="60" yMin="-192" xMax="386" yMax="452">
      <contour>
        <pt x="62" y="378" on="1"/>
        <pt x="60" y="448" on="1"/>
        <pt x="117" y="448" on="1"/>
        <pt x="122" y="386" on="1"/>
        <pt x="190" y="452" on="0"/>
        <pt x="260" y="452" on="1"/>
        <pt x="316" y="452" on="0"/>
        <pt x="386" y="382" on="0"/>
        <pt x="386" y="305" on="1"/>
        <pt x="386" y="-192" on="1"/>
        <pt x="323" y="-192" on="1"/>
        <pt x="323" y="303" on="1"/>
        <pt x="323" y="351" on="0"/>
        <pt x="287" y="396" on="0"/>
        <pt x="248" y="396" on="1"/>
        <pt x="191" y="396" on="0"/>
        <pt x="125" y="334" on="1"/>
        <pt x="125" y="0" on="1"/>
        <pt x="62" y="0" on="1"/>
      </contour>
    </TTGlyph>
    <TTGlyph name="etatonos" xMin="60" yMin="-192" xMax="386" yMax="704">
      <component glyphName="eta" x="0" y="0" flags="0x400"/>
      <component glyphName="tonos" x="0" y="0" flags="0x400"/>
    </TTGlyph>
    <TTGlyph name="eth" xMin="49" yMin="-8" xMax="398" yMax="648">
      <contour>
        <pt x="214" y="617" on="0"/>
        <pt x="246" y="588" on="1"/>
        <pt x="310" y="632" on="1"/>
        <pt x="337" y="593" on="1"/>
        <pt x="281" y="554" on="1"/>
        <pt x="341" y="490" on="0"/>
        <pt x="398" y="340" on="0"/>
        <pt x="398" y="252" on="1"/>
        <pt x="398" y="124" on="0"/>
        <pt x="307" y="-8" on="0"/>
        <pt x="221" y="-8" on="1"/>
        <pt x="143" y="-8" on="0"/>
        <pt x="49" y="107" on="0"/>
        <pt x="49" y="203" on="1"/>
        <pt x="49" y="269" on="0"/>
        <pt x="92" y="364" on="0"/>
        <pt x="168" y="414" on="0"/>
        <pt x="215" y="414" on="1"/>
        <pt x="269" y="414" on="0"/>
        <pt x="315" y="387" on="1"/>
        <pt x="292" y="461" on="0"/>
        <pt x="234" y="522" on="1"/>
        <pt x="158" y="469" on="1"/>
        <pt x="131" y="508" on="1"/>
        <pt x="200" y="556" on="1"/>
        <pt x="172" y="580" on="0"/>
        <pt x="137" y="604" on="1"/>
        <pt x="167" y="648" on="1"/>
      </contour>
      <contour>
        <pt x="114" y="131" on="0"/>
        <pt x="166" y="48" on="0"/>
        <pt x="224" y="48" on="1"/>
        <pt x="285" y="48" on="0"/>
        <pt x="334" y="148" on="0"/>
        <pt x="334" y="246" on="1"/>
        <pt x="334" y="294" on="0"/>
        <pt x="329" y="325" on="1"/>
        <pt x="275" y="358" on="0"/>
        <pt x="220" y="358" on="1"/>
        <pt x="114" y="358" on="0"/>
        <pt x="114" y="203" on="1"/>
      </contour>
    </TTGlyph>
    <TTGlyph name="exclam" xMin="165" yMin="-10" xMax="283" yMax="640">
      <contour>
        <pt x="183" y="640" on="1"/>
        <pt x="265" y="640" on="1"/>
        <pt x="251" y="192" on="1"/>
        <pt x="197" y="192" on="1"/>
      </contour>
      <contour>
        <pt x="165" y="76" on="0"/>
        <pt x="199" y="108" on="0"/>
        <pt x="224" y="108" on="1"/>
        <pt x="249" y="108" on="0"/>
        <pt x="283" y="76" on="0"/>
        <pt x="283" y="49" on="1"/>
        <pt x="283" y="21" on="0"/>
        <pt x="249" y="-10" on="0"/>
        <pt x="224" y="-10" on="1"/>
        <pt x="199" y="-10" on="0"/>
        <pt x="165" y="21" on="0"/>
        <pt x="165" y="49" on="1"/>
      </contour>
    </TTGlyph>
    <TTGlyph name="exclamdbl" xMin="71" yMin="-10" xMax="377" yMax="640">
      <component glyphName="exclam" x="-94" y="0" flags="0x400"/>
      <component glyphName="exclam" x="94" y="0" flags="0x400"/>
    </TTGlyph>
    <TTGlyph name="exclamdown" xMin="165" yMin="-192" xMax="283" yMax="458">
      <contour>
        <pt x="265" y="-192" on="1"/>
        <pt x="183" y="-192" on="1"/>
        <pt x="197" y="256" on="1"/>
        <pt x="251" y="256" on="1"/>
      </contour>
      <contour>
        <pt x="165" y="427" on="0"/>
        <pt x="199" y="458" on="0"/>
        <pt x="224" y="458" on="1"/>
        <pt x="249" y="458" on="0"/>
        <pt x="283" y="427" on="0"/>
        <pt x="283" y="399" on="1"/>
        <pt x="283" y="372" on="0"/>
        <pt x="249" y="340" on="0"/>
        <pt x="224" y="340" on="1"/>
        <pt x="199" y="340" on="0"/>
        <pt x="165" y="372" on="0"/>
        <pt x="165" y="399" on="1"/>
      </contour>
    </TTGlyph>
    <TTGlyph name="f" xMin="59" yMin="0" xMax="374" yMax="648">
      <contour>
        <pt x="59" y="395" on="1"/>
        <pt x="59" y="448" on="1"/>
        <pt x="134" y="448" on="1"/>
        <pt x="134" y="504" on="1"/>
        <pt x="134" y="576" on="0"/>
        <pt x="206" y="648" on="0"/>
        <pt x="265" y="648" on="1"/>
        <pt x="319" y="648" on="0"/>
        <pt x="374" y="637" on="1"/>
        <pt x="364" y="582" on="1"/>
        <pt x="311" y="592" on="0"/>
        <pt x="272" y="592" on="1"/>
        <pt x="231" y="592" on="0"/>
        <pt x="196" y="546" on="0"/>
        <pt x="196" y="510" on="1"/>
        <pt x="196" y="448" on="1"/>
        <pt x="345" y="448" on="1"/>
        <pt x="345" y="393" on="1"/>
        <pt x="196" y="393" on="1"/>
        <pt x="196" y="0" on="1"/>
        <pt x="134" y="0" on="1"/>
        <pt x="134" y="392" on="1"/>
      </contour>
    </TTGlyph>
    <TTGlyph name="female" xMin="59" yMin="-110" xMax="389" yMax="452">
      <contour>
        <pt x="194" y="-12" on="1"/>
        <pt x="98" y="-12" on="1"/>
        <pt x="98" y="44" on="1"/>
        <pt x="194" y="44" on="1"/>
        <pt x="194" y="126" on="1"/>
        <pt x="134" y="137" on="0"/>
        <pt x="59" y="226" on="0"/>
        <pt x="59" y="288" on="1"/>
        <pt x="59" y="334" on="0"/>
        <pt x="102" y="409" on="0"/>
        <pt x="178" y="452" on="0"/>
        <pt x="224" y="452" on="1"/>
        <pt x="270" y="452" on="0"/>
        <pt x="346" y="409" on="0"/>
        <pt x="389" y="334" on="0"/>
        <pt x="389" y="288" on="1"/>
        <pt x="389" y="226" on="0"/>
        <pt x="314" y="137" on="0"/>
        <pt x="254" y="126" on="1"/>
        <pt x="254" y="44" on="1"/>
        <pt x="350" y="44" on="1"/>
        <pt x="350" y="-12" on="1"/>
        <pt x="254" y="-12" on="1"/>
        <pt x="254" y="-110" on="1"/>
        <pt x="194" y="-110" on="1"/>
      </contour>
      <contour>
        <pt x="119" y="242" on="0"/>
        <pt x="180" y="180" on="0"/>
        <pt x="224" y="180" on="1"/>
        <pt x="268" y="180" on="0"/>
        <pt x="329" y="242" on="0"/>
        <pt x="329" y="288" on="1"/>
        <pt x="329" y="334" on="0"/>
        <pt x="268" y="396" on="0"/>
        <pt x="224" y="396" on="1"/>
        <pt x="180" y="396" on="0"/>
        <pt x="119" y="334" on="0"/>
        <pt x="119" y="288" on="1"/>
      </contour>
    </TTGlyph>
    <TTGlyph name="filledbox" xMin="62" yMin="128" xMax="386" yMax="448">
      <contour>
        <pt x="386" y="128" on="1"/>
        <pt x="62" y="128" on="1"/>
        <pt x="62" y="448" on="1"/>
        <pt x="386" y="448" on="1"/>
      </contour>
    </TTGlyph>
    <TTGlyph name="filledrect" xMin="16" yMin="192" xMax="432" yMax="384">
      <contour>
        <pt x="432" y="192" on="1"/>
        <pt x="16" y="192" on="1"/>
        <pt x="16" y="384" on="1"/>
        <pt x="432" y="384" on="1"/>
      </contour>
    </TTGlyph>
    <TTGlyph name="five" xMin="56" yMin="-6" xMax="394" yMax="576">
      <contour>
        <pt x="112" y="59" on="0"/>
        <pt x="176" y="50" on="0"/>
        <pt x="209" y="50" on="1"/>
        <pt x="272" y="50" on="0"/>
        <pt x="327" y="103" on="0"/>
        <pt x="327" y="160" on="1"/>
        <pt x="327" y="218" on="0"/>
        <pt x="277" y="265" on="0"/>
        <pt x="216" y="265" on="1"/>
        <pt x="166" y="265" on="0"/>
        <pt x="90" y="251" on="1"/>
        <pt x="70" y="271" on="1"/>
        <pt x="83" y="576" on="1"/>
        <pt x="372" y="576" on="1"/>
        <pt x="372" y="520" on="1"/>
        <pt x="144" y="520" on="1"/>
        <pt x="135" y="311" on="1"/>
        <pt x="183" y="321" on="0"/>
        <pt x="230" y="321" on="1"/>
        <pt x="303" y="321" on="0"/>
        <pt x="394" y="247" on="0"/>
        <pt x="394" y="162" on="1"/>
        <pt x="394" y="75" on="0"/>
        <pt x="297" y="-6" on="0"/>
        <pt x="212" y="-6" on="1"/>
        <pt x="138" y="-6" on="0"/>
        <pt x="56" y="16" on="1"/>
        <pt x="68" y="69" on="1"/>
      </contour>
    </TTGlyph>
    <TTGlyph name="five.dnom" xMin="178" yMin="-198" xMax="390" yMax="128">
      <component glyphName="uni2075" x="128" y="-512" flags="0x404"/>
    </TTGlyph>
    <TTGlyph name="five.numr" xMin="50" yMin="314" xMax="262" yMax="640">
      <component glyphName="uni2075" x="0" y="0" flags="0x400"/>
    </TTGlyph>
    <TTGlyph name="five.osf" xMin="56" yMin="-128" xMax="394" yMax="448">
      <contour>
        <pt x="112" y="-63" on="0"/>
        <pt x="176" y="-72" on="0"/>
        <pt x="209" y="-72" on="1"/>
        <pt x="272" y="-72" on="0"/>
        <pt x="327" y="-21" on="0"/>
        <pt x="327" y="35" on="1"/>
        <pt x="327" y="91" on="0"/>
        <pt x="277" y="137" on="0"/>
        <pt x="216" y="137" on="1"/>
        <pt x="166" y="137" on="0"/>
        <pt x="90" y="123" on="1"/>
        <pt x="70" y="143" on="1"/>
        <pt x="83" y="448" on="1"/>
        <pt x="372" y="448" on="1"/>
        <pt x="372" y="392" on="1"/>
        <pt x="144" y="392" on="1"/>
        <pt x="135" y="183" on="1"/>
        <pt x="183" y="193" on="0"/>
        <pt x="230" y="193" on="1"/>
        <pt x="303" y="193" on="0"/>
        <pt x="394" y="120" on="0"/>
        <pt x="394" y="37" on="1"/>
        <pt x="394" y="-49" on="0"/>
        <pt x="297" y="-128" on="0"/>
        <pt x="212" y="-128" on="1"/>
        <pt x="138" y="-128" on="0"/>
        <pt x="56" y="-106" on="1"/>
        <pt x="68" y="-53" on="1"/>
      </contour>
    </TTGlyph>
    <TTGlyph name="five_fraction_nine" xMin="42" yMin="-198" xMax="405" yMax="640">
      <component glyphName="five.numr" x="0" y="0" flags="0x400"/>
      <component glyphName="fraction.alt" x="0" y="0" flags="0x400"/>
      <component glyphName="nine.dnom" x="0" y="0" flags="0x400"/>
    </TTGlyph>
    <TTGlyph name="five_fraction_seven" xMin="42" yMin="-198" xMax="405" yMax="640">
      <component glyphName="five.numr" x="0" y="0" flags="0x400"/>
      <component glyphName="fraction.alt" x="0" y="0" flags="0x400"/>
      <component glyphName="seven.dnom" x="0" y="0" flags="0x400"/>
    </TTGlyph>
    <TTGlyph name="fiveeighths" xMin="42" yMin="-198" xMax="405" yMax="640">
      <component glyphName="five.numr" x="0" y="0" flags="0x400"/>
      <component glyphName="fraction.alt" x="0" y="0" flags="0x400"/>
      <component glyphName="eight.dnom" x="0" y="0" flags="0x400"/>
    </TTGlyph>
    <TTGlyph name="florin" xMin="66" yMin="-196" xMax="386" yMax="648">
      <contour>
        <pt x="110" y="-124" on="0"/>
        <pt x="146" y="-65" on="0"/>
        <pt x="146" y="-13" on="1"/>
        <pt x="146" y="392" on="1"/>
        <pt x="71" y="395" on="1"/>
        <pt x="71" y="448" on="1"/>
        <pt x="146" y="448" on="1"/>
        <pt x="146" y="504" on="1"/>
        <pt x="146" y="577" on="0"/>
        <pt x="218" y="648" on="0"/>
        <pt x="277" y="648" on="1"/>
        <pt x="331" y="648" on="0"/>
        <pt x="386" y="637" on="1"/>
        <pt x="376" y="582" on="1"/>
        <pt x="323" y="592" on="0"/>
        <pt x="283" y="592" on="1"/>
        <pt x="243" y="592" on="0"/>
        <pt x="208" y="546" on="0"/>
        <pt x="208" y="510" on="1"/>
        <pt x="208" y="448" on="1"/>
        <pt x="357" y="448" on="1"/>
        <pt x="357" y="393" on="1"/>
        <pt x="208" y="393" on="1"/>
        <pt x="208" y="-5" on="1"/>
        <pt x="208" y="-78" on="0"/>
        <pt x="157" y="-166" on="0"/>
        <pt x="91" y="-196" on="1"/>
        <pt x="66" y="-145" on="1"/>
      </contour>
    </TTGlyph>
    <TTGlyph name="four" xMin="43" yMin="0" xMax="421" yMax="592">
      <contour>
        <pt x="272" y="132" on="1"/>
        <pt x="43" y="132" on="1"/>
        <pt x="53" y="334" on="0"/>
        <pt x="193" y="558" on="0"/>
        <pt x="334" y="592" on="1"/>
        <pt x="334" y="188" on="1"/>
        <pt x="421" y="188" on="1"/>
        <pt x="421" y="132" on="1"/>
        <pt x="334" y="132" on="1"/>
        <pt x="334" y="0" on="1"/>
        <pt x="272" y="0" on="1"/>
      </contour>
      <contour>
        <pt x="272" y="188" on="1"/>
        <pt x="272" y="506" on="1"/>
        <pt x="200" y="472" on="0"/>
        <pt x="123" y="315" on="0"/>
        <pt x="110" y="188" on="1"/>
      </contour>
    </TTGlyph>
    <TTGlyph name="four.dnom" xMin="188" yMin="-192" xMax="412" yMax="138">
      <component glyphName="uni2074" x="128" y="-512" flags="0x404"/>
    </TTGlyph>
    <TTGlyph name="four.numr" xMin="60" yMin="320" xMax="284" yMax="650">
      <component glyphName="uni2074" x="0" y="0" flags="0x400"/>
    </TTGlyph>
    <TTGlyph name="four.osf" xMin="43" yMin="-128" xMax="421" yMax="464">
      <contour>
        <pt x="272" y="4" on="1"/>
        <pt x="43" y="4" on="1"/>
        <pt x="53" y="206" on="0"/>
        <pt x="193" y="430" on="0"/>
        <pt x="334" y="464" on="1"/>
        <pt x="334" y="60" on="1"/>
        <pt x="421" y="60" on="1"/>
        <pt x="421" y="4" on="1"/>
        <pt x="334" y="4" on="1"/>
        <pt x="334" y="-128" on="1"/>
        <pt x="272" y="-128" on="1"/>
      </contour>
      <contour>
        <pt x="272" y="60" on="1"/>
        <pt x="272" y="378" on="1"/>
        <pt x="200" y="344" on="0"/>
        <pt x="123" y="187" on="0"/>
        <pt x="110" y="60" on="1"/>
      </contour>
    </TTGlyph>
    <TTGlyph name="four_fraction_nine" xMin="42" yMin="-198" xMax="405" yMax="650">
      <component glyphName="four.numr" x="0" y="0" flags="0x400"/>
      <component glyphName="fraction.alt" x="0" y="0" flags="0x400"/>
      <component glyphName="nine.dnom" x="0" y="0" flags="0x400"/>
    </TTGlyph>
    <TTGlyph name="four_fraction_seven" xMin="42" yMin="-198" xMax="405" yMax="650">
      <component glyphName="four.numr" x="0" y="0" flags="0x400"/>
      <component glyphName="fraction.alt" x="0" y="0" flags="0x400"/>
      <component glyphName="seven.dnom" x="0" y="0" flags="0x400"/>
    </TTGlyph>
    <TTGlyph name="fraction" xMin="124" yMin="-68" xMax="324" yMax="709">
      <component glyphName="slash" x="0" y="0" flags="0x400"/>
    </TTGlyph>
    <TTGlyph name="fraction.alt" xMin="42" yMin="174" xMax="405" yMax="274">
      <contour>
        <pt x="398" y="274" on="1"/>
        <pt x="405" y="226" on="1"/>
        <pt x="49" y="174" on="1"/>
        <pt x="42" y="222" on="1"/>
      </contour>
    </TTGlyph>
    <TTGlyph name="fraction.percent" xMin="25" yMin="185" xMax="423" yMax="454">
      <contour>
        <pt x="394" y="454" on="1"/>
        <pt x="423" y="406" on="1"/>
        <pt x="53" y="185" on="1"/>
        <pt x="25" y="233" on="1"/>
      </contour>
    </TTGlyph>
</ttFont>
